<?xml version="1.0" standalone="no"?>
<!DOCTYPE svg PUBLIC "-//W3C//DTD SVG 1.1//EN" "http://www.w3.org/Graphics/SVG/1.1/DTD/svg11.dtd" >
<svg>
<metadata>
Created by FontForge 20090914 at Fri Sep  2 05:11:42 2022
 By www-data
Copyright (C) 1990-1992 ParaGraph JV.
</metadata>
<defs>
<font id="StandardPosterCyrillic" horiz-adv-x="0" >
  <font-face 
    font-family="StandardPoster"
    font-weight="400"
    font-stretch="normal"
    units-per-em="2048"
    panose-1="2 11 5 0 0 0 0 0 0 0"
    ascent="1638"
    descent="-410"
    x-height="987"
    cap-height="1434"
    bbox="-33.0029 -502.003 3131 1761"
    underline-thickness="56"
    underline-position="-217"
    unicode-range="U+0020-U+2219"
  />
<missing-glyph horiz-adv-x="1536" 
d="M256 0v1280h1024v-1280h-1024zM1247 33v1214h-958v-1214h958z" />
    <glyph glyph-name=".notdef" horiz-adv-x="1536" 
d="M256 0v1280h1024v-1280h-1024zM1247 33v1214h-958v-1214h958z" />
    <glyph glyph-name="space" unicode=" " horiz-adv-x="719" 
 />
    <glyph glyph-name="exclam" unicode="!" horiz-adv-x="737" 
d="M401 532l-65 0.000976562c0 66 -9.83301 120.667 -29.5 164s-51.667 97.833 -96 163.5s-77.5 124.5 -99.5 176.5c-19.333 48 -29 97.333 -29 148c0 46.667 10.333 91.167 31 133.5s52.5 77.333 95.5 105s96.5 41.5 160.5 41.5c63.333 0 116.5 -13.833 159.5 -41.5
s74.833 -62.667 95.5 -105s31 -86.833 31 -133.5c0 -50 -9.33301 -99.333 -28 -148c-22 -52 -55 -110.5 -99 -175.5s-76.167 -119.333 -96.5 -163s-30.5 -98.834 -30.5 -165.501zM369 -30.999c-48 0 -90.334 8.33496 -127.001 25.002s-65.667 41.5 -87 74.5
s-32 71.5 -32 115.5c0 68 23 120.833 69 158.5s105 56.5 177 56.5c47.333 0 89.5 -8.33301 126.5 -25s66 -41.334 87 -74.001s31.5 -71.334 31.5 -116.001c0 -44 -10.667 -82.5 -32 -115.5s-50.166 -57.833 -86.499 -74.5s-78.5 -25 -126.5 -25z" />
    <glyph glyph-name="quotedbl" unicode="&#x22;" 
 />
    <glyph glyph-name="numbersign" unicode="#" 
 />
    <glyph glyph-name="dollar" unicode="$" horiz-adv-x="1659" 
d="M690 1597l66.001 0.00488281v-135h143v135h66v-135c102 -6.66699 196 -18.834 282 -36.501s157.333 -45.167 214 -82.5s85 -86.333 85 -147c0 -46 -17.167 -86.167 -51.5 -120.5s-90.833 -51.5 -169.5 -51.5c-86 0 -149.167 16.5 -189.5 49.5s-60.5 69.167 -60.5 108.5
c0 32 10.333 59.333 31 82s46 38.334 76 47.001c-58 49.333 -130.333 78.666 -217 87.999v-404c111.333 -18.667 207.166 -46 287.499 -82s144 -77.333 191 -124s81 -97 102 -151s31.5 -109.667 31.5 -167c0 -66.667 -17 -134.334 -51 -203.001s-97 -130.834 -189 -186.501
s-216 -91.167 -372 -106.5v-180h-66v176c-31.333 -1.33301 -79 -2 -143 -2v-174h-66v176c-165.333 8 -308 30.167 -428 66.5s-180 104.5 -180 204.5c0 57.333 19.5 105.666 58.5 144.999s100.833 59 185.5 59c89.333 0 154 -18.833 194 -56.5s60 -80.167 60 -127.5
c0 -34.667 -9.16699 -63.667 -27.5 -87s-38.166 -40 -59.499 -50s-40.333 -17 -57 -21c70 -42 154.667 -67 254 -75v514c-120.667 34 -221.834 71.5 -303.501 112.5s-146 92.333 -193 154s-70.5 135.167 -70.5 220.5c0 73.333 19.167 141.166 57.5 203.499
s100.333 114 186 155s193.5 64.833 323.5 71.5v137zM690.001 1059v350.001c-50.667 -2.66699 -96 -12 -136 -28s-70.333 -37.333 -91 -64s-31 -56 -31 -88c0 -90.667 86 -147.334 258 -170.001zM756.001 526.006v-501h143v462zM756.001 1044.01l143 -32v395
c-31.333 2.66699 -79 4 -143 4v-367zM965.001 471.006v-439.999c71.333 8 140 28.167 206 60.5s99 83.166 99 152.499c0 64 -29 113.333 -87 148s-130.667 61 -218 79z" />
    <glyph glyph-name="percent" unicode="%" horiz-adv-x="2212" 
d="M553 -119l1030 1675l76 -43l-1034 -1677zM553 1464c69.333 0 130.5 -11 183.5 -33s97.833 -51.833 134.5 -89.5s64.5 -80.334 83.5 -128.001s28.5 -97.167 28.5 -148.5c0 -50.667 -9.33301 -99.5 -28 -146.5s-46.667 -89.667 -84 -128s-82.666 -68.666 -135.999 -90.999
s-114 -33.5 -182 -33.5c-67.333 0 -127.833 11 -181.5 33s-99.334 52.667 -137.001 92s-65.667 82.166 -84 128.499s-27.5 94.833 -27.5 145.5c0 106.667 38.167 199.834 114.5 279.501s181.5 119.5 315.5 119.5zM635 817v496.001c0 31.333 -6.66699 56.166 -20 74.499
s-34 27.5 -62 27.5c-54.667 0 -82 -34 -82 -102v-496c0 -68 27.333 -102 82 -102s82 34 82 102zM1659 768.001c66.667 0 127.502 -11.333 182.502 -34s100.5 -52.5 136.5 -89.5s63.5 -79.333 82.5 -127s28.5 -97.167 28.5 -148.5c0 -66 -16.833 -130.167 -50.5 -192.5
s-82.834 -112.5 -147.501 -150.5s-142 -57 -232 -57c-67.333 0 -127.833 11 -181.5 33s-99.334 52.667 -137.001 92s-65.667 82.333 -84 129s-27.5 95.334 -27.5 146.001c0 51.333 9.33301 100.333 28 147s46.334 89.167 83.001 127.5s82.167 68.666 136.5 90.999
s115.166 33.5 182.499 33.5zM1741 121.001v495c0 68.667 -27.333 103 -82 103s-82 -34.333 -82 -103v-495c0 -68.667 27.333 -103 82 -103s82 34.333 82 103z" />
    <glyph glyph-name="ampersand" unicode="&#x26;" horiz-adv-x="1966" 
d="M602 911c-32.667 67.333 -49.001 140.333 -49.001 219c0 78 18.667 142.667 56 194s87.833 89 151.5 113s133.834 36 210.501 36c112 0 204 -15.833 276 -47.5s123.5 -71.667 154.5 -120s46.5 -98.5 46.5 -150.5c0 -64.667 -23.833 -118.834 -71.5 -162.501
s-104.5 -74.834 -170.5 -93.501l267 -448c32.667 24.667 61.167 54.834 85.5 90.501s36.5 72.167 36.5 109.5c0 62.667 -39.333 94 -118 94v54h399v-54c-49.333 0 -88.333 -12.667 -117 -38s-61.334 -65 -98.001 -119c-51.333 -79.333 -104 -142.333 -158 -189l103 -174
c24.667 -46 59.334 -69 104.001 -69c32 0 63.333 10.333 94 31s56.667 42.334 78 65.001l43 -43c-80 -78 -160.667 -136.167 -242 -174.5s-172 -57.5 -272 -57.5c-149.333 0 -257.333 38.333 -324 115c-54.667 -37.333 -115 -65.833 -181 -85.5s-144 -29.5 -234 -29.5
c-171.333 0 -301.166 32.167 -389.499 96.5s-143.833 130.833 -166.5 199.5s-34 125 -34 169c0 92 19.667 169.333 59 232s87.666 110.5 144.999 143.5s112.833 56.167 166.5 69.5s103.5 21.333 149.5 24zM1176 950c34 21.333 59.5 49.833 76.5 85.5s25.5 73.5 25.5 113.5
c0 68 -20.333 128 -61 180s-92.667 78 -156 78c-26.667 0 -48 -7.66699 -64 -23s-24 -35 -24 -59c0 -20 6 -41 18 -63zM1051 135l-426 718.999c-23.333 0 -46 -4 -68 -12s-40.167 -20.667 -54.5 -38s-21.5 -39.666 -21.5 -66.999c0 -31.333 13.667 -71 41 -119l242 -411
c23.333 -36.667 46.5 -65 69.5 -85s55.167 -30 96.5 -30c46 0 86.333 14.333 121 43z" />
    <glyph glyph-name="quotesingle" unicode="'" 
 />
    <glyph glyph-name="parenleft" unicode="(" horiz-adv-x="901" 
d="M819 1464l-0.000976562 -53.001c-50 -1.33301 -94.833 -17.5 -134.5 -48.5s-71.5 -80 -95.5 -147s-36 -149.833 -36 -248.5v-971c0 -148.667 25 -259.5 75 -332.5s113.667 -110.5 191 -112.5v-53c-100.667 8 -195.667 36.333 -285 85s-168.333 116.667 -237 204
s-121.667 189.333 -159 306s-56 246 -56 388c0 142.667 18.833 272.834 56.5 390.501s90.334 219.5 158.001 305.5s146.667 153.5 237 202.5s185.5 77.167 285.5 84.5z" />
    <glyph glyph-name="parenright" unicode=")" horiz-adv-x="901" 
d="M82 -502v52.9971c77.333 2 141 39.5 191 112.5s75 183.833 75 332.5v971c0 98.667 -12 181.5 -36 248.5s-55.833 116 -95.5 147s-84.5 47.167 -134.5 48.5v53c100.667 -6.66699 195.834 -34.5 285.501 -83.5s168.167 -116 235.5 -201s120.166 -187.167 158.499 -306.5
s57.5 -250 57.5 -392c0 -141.333 -19 -271.166 -57 -389.499s-91.167 -220.666 -159.5 -306.999s-146.833 -153.666 -235.5 -201.999s-183.667 -76.5 -285 -84.5z" />
    <glyph glyph-name="asterisk" unicode="*" horiz-adv-x="1118" 
d="M586 1067l37.001 -27.0059c26 12.667 44.5 24.334 55.5 35.001s23.833 26.334 38.5 47.001c24.667 34.667 51.167 62.834 79.5 84.501s63.166 32.5 104.499 32.5c20.667 0 39.834 -7 57.501 -21s31.667 -32.333 42 -55s15.5 -47 15.5 -73
c0 -44.667 -15 -78.167 -45 -100.5s-69 -33.5 -117 -33.5c-24.667 0 -42.167 1.66699 -52.5 5s-26.833 9.83301 -49.5 19.5s-42.667 14.5 -60 14.5c-24.667 0 -42.334 -1.33301 -53.001 -4l-14 -41c18 -21.333 34.167 -35.666 48.5 -42.999s33.5 -14.666 57.5 -21.999
c50 -14.667 90.5 -32.167 121.5 -52.5s46.5 -50.166 46.5 -89.499c0 -45.333 -15.833 -83.833 -47.5 -115.5s-68.5 -47.5 -110.5 -47.5c-54 0 -89.333 21.5 -106 64.5s-25 93.833 -25 152.5c0 54.667 -9.33301 95 -28 121h-43c-20.667 -28.667 -31 -69 -31 -121
c0 -144.667 -43 -217 -129 -217c-48.667 0 -87.5 17.167 -116.5 51.5s-43.5 71.5 -43.5 111.5c0 22.667 6.16699 42.5 18.5 59.5s27.166 30.5 44.499 40.5s37.5 18.833 60.5 26.5l46.5 15.5c23.333 7.33301 43.333 15.166 60 23.499s32.334 22.166 47.001 41.499l-15 41
c-10.667 2.66699 -29 4 -55 4c-16.667 0 -33.167 -4.33301 -49.5 -13s-30.5 -15.167 -42.5 -19.5s-34.667 -6.5 -68 -6.5c-48 0 -87.333 11.167 -118 33.5s-46 55.833 -46 100.5c0 36 10.667 69.833 32 101.5s49 47.5 83 47.5c70.667 0 132.667 -39 186 -117
c18.667 -24.667 32.834 -41.5 42.501 -50.5s27.167 -19.5 52.5 -31.5l34 27c-3.33301 39.333 -19 77.666 -47 114.999c-24.667 33.333 -42.334 59.5 -53.001 78.5s-16 43.167 -16 72.5c0 22.667 5 43.834 15 63.501s25.833 35.834 47.5 48.501s48.5 19 80.5 19
c48 0 83.833 -12.833 107.5 -38.5s35.5 -56.5 35.5 -92.5c0 -29.333 -6 -54.833 -18 -76.5s-29 -46.5 -51 -74.5c-28 -37.333 -43.667 -75.666 -47 -114.999z" />
    <glyph glyph-name="plus" unicode="+" horiz-adv-x="1311" 
d="M737 184h-164v451h-450v164h450v450h164v-450h451v-164h-451v-451z" />
    <glyph glyph-name="comma" unicode="," horiz-adv-x="737" 
d="M260 -266l-24.002 55.002c74.667 19.333 139 50.166 193 92.499s81 81.166 81 116.499c0 13.333 -4.66699 20 -14 20c-5.33301 0 -11 -2 -17 -6c-23.333 -14.667 -44.166 -25.5 -62.499 -32.5s-41.833 -10.5 -70.5 -10.5c-69.333 0 -123.833 19 -163.5 57
s-59.5 86 -59.5 144c0 42.667 9.83301 81.5 29.5 116.5s48 62.5 85 82.5s80.167 30 129.5 30c74.667 0 134.5 -22.833 179.5 -68.5s67.5 -112.167 67.5 -199.5c0 -94 -28.167 -175.667 -84.5 -245s-146.166 -120 -269.499 -152z" />
    <glyph glyph-name="hyphen" unicode="-" horiz-adv-x="860" 
d="M123 655h614v-286h-614v286z" />
    <glyph glyph-name="period" unicode="." horiz-adv-x="737" 
d="M369 -31c-48 0 -90.334 8.33496 -127.001 25.002s-65.667 41.5 -87 74.5s-32 71.5 -32 115.5c0 68 23 120.833 69 158.5s105 56.5 177 56.5c47.333 0 89.5 -8.33301 126.5 -25s66 -41.334 87 -74.001s31.5 -71.334 31.5 -116.001c0 -44 -10.667 -82.5 -32 -115.5
s-50.166 -57.833 -86.499 -74.5s-78.5 -25 -126.5 -25z" />
    <glyph glyph-name="slash" unicode="/" horiz-adv-x="1024" 
d="M1024 1434l-942 -1905h-82l942 1905h82z" />
    <glyph glyph-name="zero" unicode="0" horiz-adv-x="1475" 
d="M737 1464c78.667 0 156.834 -13.168 234.501 -39.501s150 -68.666 217 -126.999s121.167 -136 162.5 -233s62 -212.833 62 -347.5c0 -133.333 -20.667 -248.5 -62 -345.5s-95.5 -175 -162.5 -234s-139.833 -101.833 -218.5 -128.5s-156.334 -40 -233.001 -40
c-90 0 -176 16.333 -258 49s-154.5 81.334 -217.5 146.001s-112.167 143.667 -147.5 237s-53 198.666 -53 315.999s17.667 222.5 53 315.5s84.333 172 147 237s134.667 113.667 216 146s168 48.5 260 48.5zM635 1288v-1143c0 -81.333 34 -122 102 -122
c68.667 0 103 40.667 103 122v1143c0 82 -34.333 123 -103 123c-68 0 -102 -41 -102 -123z" />
    <glyph glyph-name="one" unicode="1" horiz-adv-x="1475" 
d="M434 53v1297h-196v53h378c118 0 208.667 4.5 272 13.5s118.333 24.833 165 47.5v-1411h196v-53h-1011v53h196z" />
    <glyph glyph-name="two" unicode="2" horiz-adv-x="1475" 
d="M1352 537l60.9971 0.000976562c-34 -187.333 -92 -328.833 -174 -424.5s-202.667 -143.5 -362 -143.5c-40 0 -77 2.16699 -111 6.5s-74.333 11.166 -121 20.499c-82.667 16 -138.667 28.333 -168 37c-76.667 18.667 -132 28 -166 28c-107.333 0 -172 -30.667 -194 -92
h-56c14.667 91.333 37.167 170.666 67.5 237.999s64.5 123.333 102.5 168s71.167 78.5 99.5 101.5s83.5 64.833 165.5 125.5c76.667 58 135.834 107.833 177.501 149.5s73.667 86.5 96 134.5s33.5 102.333 33.5 163c0 66 -9.16699 125.5 -27.5 178.5
s-46.833 94.833 -85.5 125.5s-85.667 46 -141 46c-90 0 -157.667 -31.333 -203 -94c21.333 2.66699 37 4 47 4c42 0 79.833 -9.5 113.5 -28.5s60 -45.167 79 -78.5s28.5 -72.333 28.5 -117c0 -76 -22.167 -139.333 -66.5 -190s-108.166 -76 -191.499 -76
c-84.667 0 -151.5 25.333 -200.5 76s-73.5 112.667 -73.5 186c0 56.667 16.333 113.834 49 171.501s95.5 107.334 188.5 149.001s220.5 62.5 382.5 62.5c124 0 230 -10.833 318 -32.5s158 -51.334 210 -89.001s89.333 -80.5 112 -128.5s34 -100.333 34 -157
c0 -103.333 -27.167 -185.666 -81.5 -246.999s-116.833 -105.333 -187.5 -132s-159 -52 -265 -76c-65.333 -13.333 -129.333 -29 -192 -47s-117.5 -37.833 -164.5 -59.5s-88.5 -46.834 -124.5 -75.501s-67 -63 -93 -103l21 -18c126 102.667 283.667 154 473 154
c86 0 150 -2.33301 192 -7c30 -2 73.333 -6.83301 130 -14.5s97.334 -11.5 122.001 -11.5c85.333 0 134 39 146 117z" />
    <glyph glyph-name="three" unicode="3" horiz-adv-x="1475" 
d="M942 768v-19.9961c85.333 -2 164.166 -18.833 236.499 -50.5s129.5 -76.667 171.5 -135s63 -126.5 63 -204.5c0 -100 -33.5 -179 -100.5 -237s-154.167 -97.833 -261.5 -119.5s-231.666 -32.5 -372.999 -32.5c-157.333 0 -282.166 19.167 -374.499 57.5
s-155.833 84.5 -190.5 138.5s-52 108.333 -52 163c0 73.333 22.833 138.666 68.5 195.999s115.834 86 210.501 86c83.333 0 149.5 -22.5 198.5 -67.5s73.5 -102.833 73.5 -173.5c0 -78 -23.667 -136.5 -71 -175.5s-108.333 -58.5 -183 -58.5
c21.333 -44.667 50.833 -73.834 88.5 -87.501s79.834 -20.5 126.501 -20.5c110 0 182 34.5 216 103.5s51 162.833 51 281.5v118c0 126 -48 189 -144 189h-71c-14 0 -27 -2 -39 -6c-17.333 -2.66699 -29.666 -4 -36.999 -4c-31.333 0 -47 12 -47 36
c0 9.33301 3.5 17.833 10.5 25.5s19.167 11.5 36.5 11.5c7.33301 0 19.666 -1.33301 36.999 -4c12 -4 25 -6 39 -6h71c96 0 144 63 144 189v143c0 52 -4 98.833 -12 140.5s-28.333 79.167 -61 112.5s-82.334 50 -149.001 50c-74.667 0 -131 -17.667 -169 -53
c48.667 -10.667 89.834 -33.834 123.501 -69.501s50.5 -88.5 50.5 -158.5c0 -74 -23.667 -130.667 -71 -170s-111.333 -59 -192 -59c-53.333 0 -99.333 11 -138 33s-68.334 51.667 -89.001 89s-31 78.666 -31 123.999c0 49.333 16.167 98.166 48.5 146.499
s94.666 89.5 186.999 123.5s220.833 51 385.5 51c109.333 0 210.666 -9.33301 303.999 -28s170.833 -54.667 232.5 -108s92.5 -128 92.5 -224c0 -95.333 -34.833 -170.166 -104.5 -224.499s-171.5 -91.5 -305.5 -111.5z" />
    <glyph glyph-name="four" unicode="4" horiz-adv-x="1475" 
d="M651 53v324h-631v53l840 1004h410v-1004h184v-51h-184v-326h184v-53h-987v53h184zM651 1092l-553 -662h553v662z" />
    <glyph glyph-name="five" unicode="5" horiz-adv-x="1475" 
d="M238 698l-62 -0.000976562l84 766c140 -40.667 291.667 -61 455 -61c129.333 0 224.833 4.16699 286.5 12.5s114.334 18.5 158.001 30.5s81.834 18 114.501 18c8 0 14.333 -2 19 -6s7 -10.667 7 -20c0 -34 -12.333 -73.667 -37 -119s-66.334 -90.666 -125.001 -135.999
s-140.667 -83.166 -246 -113.499s-232.666 -45.5 -381.999 -45.5c-48.667 0 -126.667 4 -234 12l-30 -274c32 20 69 39.5 111 58.5s93.833 35.5 155.5 49.5s131.167 21 208.5 21c148 0 274 -19.833 378 -59.5s182.333 -95.167 235 -166.5s79 -153 79 -245
c0 -87.333 -18.833 -160.833 -56.5 -220.5s-89.667 -106.167 -156 -139.5s-142.333 -56.833 -228 -70.5s-183.834 -20.5 -294.501 -20.5c-161.333 0 -287.666 18 -378.999 54s-153.833 79 -187.5 129s-50.5 101.667 -50.5 155c0 38.667 6 75.167 18 109.5s30 64.5 54 90.5
s54 46.333 90 61s75 22 117 22c25.333 0 58 -4.5 98 -13.5s79 -31.5 117 -67.5s57 -89.667 57 -161c0 -78 -23.667 -136.333 -71 -175s-108.333 -58 -183 -58c18 -27.333 39.5 -47.333 64.5 -60s49.667 -20.5 74 -23.5s49.833 -4.5 76.5 -4.5c78 0 136.667 18.833 176 56.5
s64.333 81.5 75 131.5s16 107.333 16 172v62c0 94.667 -16.833 168.167 -50.5 220.5s-72.834 86.666 -117.501 102.999s-88.334 24.5 -131.001 24.5c-117.333 0 -218.333 -33 -303 -99z" />
    <glyph glyph-name="six" unicode="6" horiz-adv-x="1475" 
d="M635 1104l-0.00195312 -360.999c108 52 219.333 78 334 78c82 0 156.833 -14.667 224.5 -44s121.167 -74.333 160.5 -135s59 -136 59 -226c0 -91.333 -21.667 -167.166 -65 -227.499s-98.666 -106.333 -165.999 -138s-137.333 -53.167 -210 -64.5
s-141.334 -17 -206.001 -17c-206.667 0 -362.5 51.333 -467.5 154s-170.833 209 -197.5 319s-40 201.667 -40 275c0 133.333 24.167 256.666 72.5 369.999s127.833 204.5 238.5 273.5s252.334 103.5 425.001 103.5c146 0 259.167 -16.167 339.5 -48.5
s134.833 -70.5 163.5 -114.5s43 -87.333 43 -130c0 -38.667 -8.33301 -75.667 -25 -111s-43.167 -64.5 -79.5 -87.5s-83.166 -34.5 -140.499 -34.5c-77.333 0 -139.666 17.667 -186.999 53s-71 81.666 -71 138.999c0 62.667 16 115.167 48 157.5s79.333 64.5 142 66.5
c-39.333 35.333 -96 53 -170 53c-69.333 0 -120.333 -16.667 -153 -50s-52.834 -70.833 -60.501 -112.5s-11.5 -88.5 -11.5 -140.5zM839.998 145.001v451c0 82 -34.333 123 -103 123c-68 0 -102 -41 -102 -123v-451c0 -81.333 34 -122 102 -122c68.667 0 103 40.667 103 122
z" />
    <glyph glyph-name="seven" unicode="7" horiz-adv-x="1475" 
d="M133 1464l52.999 0.00195312c-4 -20 -6 -41 -6 -63c0 -52 13.667 -78 41 -78c16 0 42 14.833 78 44.5s77 53.167 123 70.5s107.333 26 184 26c53.333 0 103 -5.16699 149 -15.5s93.333 -23.5 142 -39.5c64 -19.333 112.5 -32.666 145.5 -39.999s68.5 -11 106.5 -11
c116 0 190.333 35.333 223 106h62c-80 -114 -145.167 -222.333 -195.5 -325s-87 -194.5 -110 -275.5s-38 -152 -45 -213s-11.167 -130.5 -12.5 -208.5c-1.33301 -90.667 -8.16602 -168.667 -20.499 -234s-41.666 -121.5 -87.999 -168.5s-115.833 -70.5 -208.5 -70.5
c-49.333 0 -94 6.16699 -134 18.5s-76.333 31.166 -109 56.499s-57.667 56.166 -75 92.499s-26 76.833 -26 121.5c0 54.667 11.333 106.667 34 156s53.167 96.333 91.5 141s77.5 84.5 117.5 119.5l117 99.5c104.667 85.333 178.167 148.666 220.5 189.999
s78.166 83.333 107.499 126l-15 18c-94 -64 -204.333 -96 -331 -96c-56 0 -112.667 7.33301 -170 22l-89 25.5c-28.667 8.33301 -58.667 15.833 -90 22.5s-61.333 10 -90 10c-116.667 0 -176 -71 -178 -213h-53z" />
    <glyph glyph-name="eight" unicode="8" horiz-adv-x="1475" 
d="M532 735l-0.00390625 21.002c-85.333 12 -158.666 31.833 -219.999 59.5s-108.166 64.5 -140.499 110.5s-48.5 101.333 -48.5 166c0 91.333 42.667 176.166 128 254.499s247.333 117.5 486 117.5s400.834 -39.167 486.501 -117.5s128.5 -163.166 128.5 -254.499
c0 -64.667 -16.167 -120 -48.5 -166s-79.333 -82.833 -141 -110.5s-135.167 -47.5 -220.5 -59.5v-21c97.333 -2 182 -20.167 254 -54.5s126.167 -80 162.5 -137s54.5 -118.833 54.5 -185.5c0 -259.333 -225.333 -389 -676 -389s-676 129.667 -676 389
c0 97.333 37.333 182.166 112 254.499s194.334 113.166 359.001 122.499zM839.996 895.002v393c0 82 -34.333 123 -103 123c-68 0 -102 -41 -102 -123v-393c0 -82 34 -123 102 -123c68.667 0 103 41 103 123zM839.996 145.002v451c0 82 -34.333 123 -103 123
c-68 0 -102 -41 -102 -123v-451c0 -81.333 34 -122 102 -122c68.667 0 103 40.667 103 122z" />
    <glyph glyph-name="nine" unicode="9" horiz-adv-x="1475" 
d="M840 330l0.000976562 359.998c-56 -26 -110.5 -45.5 -163.5 -58.5s-109.833 -19.5 -170.5 -19.5c-130 0 -236.667 34.333 -320 103s-125 169.667 -125 303c0 119.333 35.667 212.166 107 278.499s155.5 110.833 252.5 133.5s193.167 34 288.5 34
c206.667 0 362.5 -51.333 467.5 -154s170.667 -209 197 -319s39.5 -201.333 39.5 -274c0 -93.333 -15.167 -194.666 -45.5 -303.999s-99.833 -210.666 -208.5 -303.999s-269 -140 -481 -140c-145.333 0 -260.666 14.833 -345.999 44.5s-143.5 66.334 -174.5 110.001
s-46.5 89.834 -46.5 138.501c0 39.333 8.66699 76.666 26 111.999s45.333 64.5 84 87.5s88 34.5 148 34.5c57.333 0 106.166 -9.16699 146.499 -27.5s70.333 -43 90 -74s29.5 -64.833 29.5 -101.5c0 -35.333 -6.83301 -69 -20.5 -101s-36.334 -58.5 -68.001 -79.5
s-72.5 -31.833 -122.5 -32.5c40 -35.333 103.333 -53 190 -53c98 0 160.167 29.5 186.5 88.5s39.5 130.5 39.5 214.5zM635.001 1288v-450c0 -82 34 -123 102 -123c68.667 0 103 41 103 123v450c0 82 -34.333 123 -103 123c-68 0 -102 -41 -102 -123z" />
    <glyph glyph-name="colon" unicode=":" horiz-adv-x="737" 
d="M369 588c-48 0 -90.333 8.33301 -127 25s-65.667 41.5 -87 74.5s-32 71.5 -32 115.5c0 66.667 23 119.167 69 157.5s105 57.5 177 57.5c48 0 90.167 -8.33301 126.5 -25s65.166 -41.5 86.499 -74.5s32 -71.5 32 -115.5s-10.667 -82.5 -32 -115.5
s-50.166 -57.833 -86.499 -74.5s-78.5 -25 -126.5 -25zM369 -31c-48 0 -90.334 8.33496 -127.001 25.002s-65.667 41.5 -87 74.5s-32 71.5 -32 115.5c0 68 23 120.833 69 158.5s105 56.5 177 56.5c47.333 0 89.5 -8.33301 126.5 -25s66 -41.334 87 -74.001
s31.5 -71.334 31.5 -116.001c0 -44 -10.667 -82.5 -32 -115.5s-50.166 -57.833 -86.499 -74.5s-78.5 -25 -126.5 -25z" />
    <glyph glyph-name="semicolon" unicode=";" horiz-adv-x="737" 
d="M369 588c-48 0 -90.333 8.33301 -127 25s-65.667 41.5 -87 74.5s-32 71.5 -32 115.5c0 66.667 23 119.167 69 157.5s105 57.5 177 57.5c48 0 90.167 -8.33301 126.5 -25s65.166 -41.5 86.499 -74.5s32 -71.5 32 -115.5s-10.667 -82.5 -32 -115.5
s-50.166 -57.833 -86.499 -74.5s-78.5 -25 -126.5 -25zM260 -266l-24.002 55.0029c74.667 19.333 139 50.166 193 92.499s81 81.166 81 116.499c0 13.333 -4.66699 20 -14 20c-10 0 -21.167 -4.83301 -33.5 -14.5s-26.166 -17.834 -41.499 -24.501s-40.333 -10 -75 -10
c-69.333 0 -123.833 19 -163.5 57s-59.5 86 -59.5 144c0 42.667 9.83301 81.5 29.5 116.5s48 62.5 85 82.5s80.167 30 129.5 30c74.667 0 134.5 -22.833 179.5 -68.5s67.5 -112.167 67.5 -199.5c0 -94 -28.167 -175.667 -84.5 -245s-146.166 -120 -269.499 -152z" />
    <glyph glyph-name="less" unicode="&#x3c;" 
 />
    <glyph glyph-name="equal" unicode="=" horiz-adv-x="1311" 
d="M123 799v164h1065v-164h-1065zM123 471v164h1065v-164h-1065z" />
    <glyph glyph-name="greater" unicode="&#x3e;" 
 />
    <glyph glyph-name="question" unicode="?" horiz-adv-x="1290" 
d="M641 512l-66 0.00390625c-1.33301 12 -2 29.667 -2 53c0 31.333 1.83301 58.666 5.5 81.999s8.5 45.833 14.5 67.5s13.333 43.167 22 64.5l26 65c25.333 59.333 44.333 109.333 57 150s19 87 19 139c0 113.333 -25.667 187.333 -77 222s-102.333 52 -153 52
c-78.667 0 -139.334 -17.667 -182.001 -53c34 -1.33301 70.167 -8.83301 108.5 -22.5s71.166 -37.167 98.499 -70.5s41 -78.333 41 -135c0 -75.333 -23 -132.333 -69 -171s-96.667 -58 -152 -58c-44 0 -85.167 9.83301 -123.5 29.5s-69 48.167 -92 85.5s-34.5 81 -34.5 131
c0 48.667 15 97 45 145s88.167 89.333 174.5 124s206.5 52 360.5 52c112.667 0 205.834 -11 279.501 -33s129.5 -50 167.5 -84s64 -70.333 78 -109s21 -78 21 -118c0 -56.667 -15 -105.834 -45 -147.501s-68.667 -76.834 -116 -105.501s-109 -59 -185 -91
c-24 -9.33301 -49.167 -20.333 -75.5 -33s-50.166 -28.334 -71.499 -47.001s-39 -43.5 -53 -74.5s-21 -67.5 -21 -109.5zM608 -30.9961c-72 0 -131 19.1689 -177 57.502s-69 90.833 -69 157.5c0 68 23 120.833 69 158.5s105 56.5 177 56.5
c46.667 0 88.834 -8.33301 126.501 -25s67 -41.334 88 -74.001s31.5 -71.334 31.5 -116.001c0 -67.333 -22.833 -120 -68.5 -158s-104.834 -57 -177.501 -57z" />
    <glyph glyph-name="at" unicode="@" 
 />
    <glyph glyph-name="A" unicode="A" horiz-adv-x="1683" 
d="M733 487l-387 0.000976562l-98 -274c-11.333 -30.667 -17 -59.334 -17 -86.001c0 -22.667 7.5 -40.667 22.5 -54s34.167 -20 57.5 -20h78v-53h-389v53c56 2 96.833 17.667 122.5 47s46.167 65 61.5 107l437 1227h417l506 -1381h107v-53h-922v53h164zM367 541.001h346
l-176 479z" />
    <glyph glyph-name="B" unicode="B" horiz-adv-x="1790" 
d="M233 53l0.000976562 1327h-151v54h1120c68.667 0 140 -9.33301 214 -28s137.833 -53.167 191.5 -103.5s80.5 -118.5 80.5 -204.5c0 -123.333 -48.833 -209.333 -146.5 -258s-208.834 -76 -333.501 -82v-21c347.333 -21.333 521 -153.666 521 -396.999
c0 -130.667 -53 -220 -159 -268s-235.333 -72 -388 -72h-1100v53h151zM852.001 773.999l84 0.000976562c30.667 0 57 3.33301 79 10s40.667 22.667 56 48s23 64.666 23 117.999v254c0 75.333 -13.833 123.5 -41.5 144.5s-66.5 31.5 -116.5 31.5h-84v-606zM852.001 53
l84 0.000976562c30.667 0 57 3.33301 79 10s40.667 22.667 56 48s23 64.666 23 117.999v316c0 75.333 -13.833 123.5 -41.5 144.5s-66.5 31.5 -116.5 31.5h-84v-668z" />
    <glyph glyph-name="C" unicode="C" horiz-adv-x="1536" 
d="M1425 1495l23.002 -532.003h-53c-15.333 70.667 -43.333 138 -84 202s-91 115.5 -151 154.5s-124.333 58.5 -193 58.5c-98.667 0 -162.334 -32.5 -191.001 -97.5s-43 -136.167 -43 -213.5v-664c0 -92.667 21.667 -167.667 65 -225s108.333 -86 195 -86
c68 0 127.667 14.167 179 42.5s94 65.166 128 110.499s60.667 93.5 80 144.5s33.666 99.5 42.999 145.5l52 -13c-10.667 -61.333 -28.334 -122.666 -53.001 -183.999s-60.167 -120 -106.5 -176s-108 -102.167 -185 -138.5s-169.167 -54.5 -276.5 -54.5
c-152 0 -286.667 34.333 -404 103s-208 160.334 -272 275.001s-96 238 -96 370c0 110 20.333 211.333 61 304s97.334 172.334 170.001 239.001s155 117.334 247 152.001s190 52 294 52c131.333 0 249.333 -31.333 354 -94l164 125h53z" />
    <glyph glyph-name="D" unicode="D" horiz-adv-x="1831" 
d="M238 1380h-152v54h991c150 0 275.167 -28 375.5 -84s174.833 -135 223.5 -237s73 -223 73 -363c0 -96 -10.5 -187.667 -31.5 -275s-56.667 -166.833 -107 -238.5s-119.5 -129 -207.5 -172s-196.667 -64.5 -326 -64.5h-991v53h152v1327zM856 1380v-1327h84
c30.667 0 57 3.33301 79 10s40.667 22.667 56 48s23 64.666 23 117.999v975c0 75.333 -13.833 123.5 -41.5 144.5s-66.5 31.5 -116.5 31.5h-84z" />
    <glyph glyph-name="E" unicode="E" horiz-adv-x="1638" 
d="M238 53l-0.00292969 1327h-152v54h1389v-512h-54c-44 305.333 -220 458 -528 458h-37v-628h29c94.667 0 164 30.333 208 91s66 132 66 214h53v-664h-53c0 82 -22 153.333 -66 214s-113.333 91 -208 91h-29v-645c107.333 0 198.333 14.667 273 44
s134.334 67.833 179.001 115.5s79.334 101.667 104.001 162s41.334 119.833 50.001 178.5h54v-553h-1434v53h156z" />
    <glyph glyph-name="F" unicode="F" horiz-adv-x="1536" 
d="M238 53v1327h-152v54h1409v-512h-53c-8 70.667 -28 139.834 -60 207.501s-86.5 126.334 -163.5 176.001s-178.833 74.5 -305.5 74.5h-57v-628h41c94.667 0 164 30.333 208 91s66 132 66 214h54v-664h-54c0 82 -22 153.333 -66 214s-113.333 91 -208 91h-41v-645h205v-53
h-979v53h156z" />
    <glyph glyph-name="G" unicode="G" horiz-adv-x="1761" 
d="M1720 799l-0.000976562 -54.001h-151v-624c-36.667 24.667 -74.334 37 -113.001 37c-22 0 -41.167 -4.16699 -57.5 -12.5s-43.5 -24.166 -81.5 -47.499c-35.333 -20.667 -72.166 -39.5 -110.499 -56.5s-77.166 -31 -116.499 -42s-77.5 -18.833 -114.5 -23.5
s-77.5 -7 -121.5 -7c-113.333 0 -217.666 19.667 -312.999 59s-177.5 94 -246.5 164s-121.667 150.333 -158 241s-54.5 185.334 -54.5 284.001c0 94 17.167 185.667 51.5 275s84.166 169.333 149.499 240s146.333 127 243 169s206 63 328 63c39.333 0 80 -3.33301 122 -10
s84.333 -17.5 127 -32.5s85.334 -34.833 128.001 -59.5l164 133h53v-532h-53c-15.333 70.667 -43.333 138 -84 202s-91 115.5 -151 154.5s-124.333 58.5 -193 58.5c-98.667 0 -162.334 -32.5 -191.001 -97.5s-43 -136.167 -43 -213.5v-915
c0 -28.667 7.33301 -57.334 22 -86.001s47.667 -43 99 -43s84.333 14 99 42s22 57 22 87v593h-144v54h889z" />
    <glyph glyph-name="H" unicode="H" horiz-adv-x="1946" 
d="M852 758h242v622h-74v54h844v-54h-152v-1327h152v-53h-844v53h74v652h-242v-652h74v-53h-844v53h151v1327h-151v54h844v-54h-74v-622z" />
    <glyph glyph-name="I" unicode="I" horiz-adv-x="1163" 
d="M272 53v1325h-151v56h921v-56h-151v-1325h147v-53h-913v53h147z" />
    <glyph glyph-name="J" unicode="J" horiz-adv-x="1364" 
d="M532 1380h-204v54h975v-54h-152v-919c0 -131.333 -31.333 -233.5 -94 -306.5s-137.334 -122.167 -224.001 -147.5s-174 -38 -262 -38c-91.333 0 -178.166 13.5 -260.499 40.5s-149.166 67.833 -200.499 122.5s-77 120 -77 196c0 84.667 26.167 148.167 78.5 190.5
s112.166 63.5 179.499 63.5c44.667 0 85.834 -9.5 123.501 -28.5s67.167 -46.167 88.5 -81.5s32 -76 32 -122c0 -73.333 -24.333 -128.5 -73 -165.5s-108.334 -55.5 -179.001 -55.5c-12 0 -30.667 1.33301 -56 4c16.667 -22 42.334 -39.5 77.001 -52.5
s69.334 -19.5 104.001 -19.5c56 0 106.833 12 152.5 36s82.167 59.333 109.5 106s41 102 41 166c0 40 -6.33301 79.667 -19 119s-32.334 73.833 -59.001 103.5s-60.334 52.167 -101.001 67.5v721z" />
    <glyph glyph-name="K" unicode="K" horiz-adv-x="2060" 
d="M852 793l441.998 378.002c44 38 66 77.667 66 119c0 24 -10 45 -30 63s-54.333 27 -103 27h-41v54h669v-54c-95.333 -0.666992 -181.666 -20.334 -258.999 -59.001s-150.666 -95.334 -219.999 -170.001l549 -1098h103v-53h-873v53h115l-357 721l-61 -51v-670h152v-53
h-922v53h151v1327h-151v54h922v-54h-152v-587z" />
    <glyph glyph-name="L" unicode="L" horiz-adv-x="1536" 
d="M238 53l-0.00195312 1327h-152v54h922v-54h-152v-1327c146.667 2.66699 273.834 47.334 381.501 134.001s175.834 236 204.501 448h53v-635h-1413v53h156z" />
    <glyph glyph-name="M" unicode="M" horiz-adv-x="2122" 
d="M737 0l-434 1270h-8v-1041c0 -74.667 15.5 -122.667 46.5 -144s68.833 -32 113.5 -32h37v-53h-410v53c60.667 0 101 18.333 121 55s30 77 30 121v1151h-151v54h772l199 -584h8l205 584h774v-54h-152v-1327h152v-53h-922v53h152v1211h-8l-439 -1264h-86z" />
    <glyph glyph-name="N" unicode="N" horiz-adv-x="1802" 
d="M827 1434l693 -1072v842c0 52 -8.5 91 -25.5 117s-36.833 42.333 -59.5 49s-47.667 10 -75 10h-37v54h438v-54h-20c-27.333 0 -52.333 -3.33301 -75 -10s-42.5 -23 -59.5 -49s-25.5 -65 -25.5 -117v-1204h-553l-713 1106v-877c0 -52 8.5 -91 25.5 -117
s36.833 -42.333 59.5 -49s47.667 -10 75 -10h37v-53h-455v53h37c44.667 0 82.5 10.833 113.5 32.5s46.5 69.5 46.5 143.5v971l-59 92c-16 26 -33.667 47.167 -53 63.5s-46.333 24.5 -81 24.5h-20v54h786z" />
    <glyph glyph-name="O" unicode="O" horiz-adv-x="1708" 
d="M82 717c0 135.333 32.165 260.167 96.498 374.5s155.333 205 273 272s251.834 100.5 402.501 100.5s284.834 -33.5 402.501 -100.5s208.667 -157.667 273 -272s96.5 -239.166 96.5 -374.499c0 -101.333 -18 -197 -54 -287s-88 -169.5 -156 -238.5
s-150.167 -123.333 -246.5 -163s-201.5 -59.5 -315.5 -59.5c-113.333 0 -218 19.667 -314 59s-178 93.166 -246 161.499s-120.333 148 -157 239s-55 187.167 -55 288.5zM732.998 1282v-1130c0 -28.667 7.33301 -57.334 22 -86.001s47.667 -43 99 -43s84.333 14 99 42
s22 57 22 87v1130c0 30 -7.33301 59 -22 87s-47.667 42 -99 42s-84.333 -14.333 -99 -43s-22 -57.334 -22 -86.001z" />
    <glyph glyph-name="P" unicode="P" horiz-adv-x="1769" 
d="M233 53v1327h-151v54h1016c164.667 0 311 -27.5 439 -82.5s192 -170.833 192 -347.5c0 -96 -21.333 -173.5 -64 -232.5s-96.5 -102.5 -161.5 -130.5s-132.167 -46.333 -201.5 -55s-137.333 -13 -204 -13h-246v-520h152v-53h-922v53h151zM852 1380v-752.999h84
c30.667 0 57 3.33301 79 10s40.667 22.667 56 48s23 64.666 23 117.999v401c0 75.333 -13.833 123.5 -41.5 144.5s-66.5 31.5 -116.5 31.5h-84z" />
    <glyph glyph-name="Q" unicode="Q" horiz-adv-x="1708" 
d="M403 -117l-41.0029 55.998c50 45.333 109.667 74 179 86c-72 28.667 -136 66.334 -192 113.001s-104 100.834 -144 162.501s-70.5 128.5 -91.5 200.5s-31.5 144 -31.5 216c0 135.333 32.167 260.166 96.5 374.499s155.333 205 273 272s251.834 100.5 402.501 100.5
s284.834 -33.5 402.501 -100.5s208.667 -157.667 273 -272s96.5 -239.166 96.5 -374.499c0 -96.667 -17.5 -189.834 -52.5 -279.501s-86.5 -170.167 -154.5 -241.5s-150.167 -127 -246.5 -167s-202.5 -60 -318.5 -60c60.667 -31.333 127.334 -59.666 200.001 -84.999
s139.667 -38 201 -38c70 0 130.667 18.5 182 55.5s90.666 84 117.999 141s43.666 116.5 48.999 178.5h51c0 -122.667 -8 -230.167 -24 -322.5s-49.5 -168.5 -100.5 -228.5s-124.833 -90 -221.5 -90c-48.667 0 -96.667 8.83301 -144 26.5s-94.666 42.167 -141.999 73.5
s-103 72.333 -167 123c-68 55.333 -121.333 94.5 -160 117.5s-81 34.5 -127 34.5c-61.333 0 -116.666 -24 -165.999 -72zM732.997 1282v-1130c0 -28.667 7.33301 -57.334 22 -86.001s47.667 -43 99 -43s84.333 14 99 42s22 57 22 87v1130c0 30 -7.33301 59 -22 87
s-47.667 42 -99 42s-84.333 -14.333 -99 -43s-22 -57.334 -22 -86.001z" />
    <glyph glyph-name="R" unicode="R" horiz-adv-x="1970" 
d="M233 53l0.00195312 1327h-151v54h1044c199.333 0 349.666 -23.5 450.999 -70.5s152 -132.833 152 -257.5c0 -137.333 -54.833 -228.833 -164.5 -274.5s-217.5 -69.5 -323.5 -71.5v-21c128.667 -9.33301 225.667 -35.666 291 -78.999s107 -91 125 -143
s28.333 -111 31 -177c1.33301 -56.667 7 -102.167 17 -136.5s32.333 -51.5 67 -51.5c40 0 83 25 129 75l36 -37c-70 -73.333 -140.333 -128.5 -211 -165.5s-148.334 -55.5 -233.001 -55.5c-266 0 -399 138.667 -399 416v164c0 75.333 -13.833 123.5 -41.5 144.5
s-66.5 31.5 -116.5 31.5h-84v-672h152v-53h-922v53h151zM852.002 1380v-601.999h84c30.667 0 57 3.33301 79 10s40.667 22.667 56 48s23 64.666 23 117.999v250c0 75.333 -13.833 123.5 -41.5 144.5s-66.5 31.5 -116.5 31.5h-84z" />
    <glyph glyph-name="S" unicode="S" horiz-adv-x="1700" 
d="M1481 1501l26.0029 -456.998h-53c-32.667 56.667 -75.334 108 -128.001 154s-111.334 85 -176.001 117s-133 56 -205 72s-146 24 -222 24c-98 0 -164.167 -14 -198.5 -42s-51.5 -61 -51.5 -99c0 -31.333 9.5 -57.833 28.5 -79.5s44.167 -39.334 75.5 -53.001
s68.666 -25.667 111.999 -36l136 -32.5c114 -25.333 211.167 -49.5 291.5 -72.5s159.833 -55.833 238.5 -98.5s142.167 -98.667 190.5 -168s72.5 -155.666 72.5 -258.999c0 -98 -23.833 -184.833 -71.5 -260.5s-117.667 -134.834 -210 -177.501s-202.5 -64 -330.5 -64
c-158.667 0 -294.834 13.667 -408.501 41s-209.834 58 -288.501 92l-143 -143h-53v492h53c152.667 -285.333 426.334 -428 821.001 -428c92 0 162.167 19.333 210.5 58s72.5 86 72.5 142c0 48 -17.333 87.167 -52 117.5s-75.667 54 -123 71s-112 36.167 -194 57.5
c-158 41.333 -270.167 71.666 -336.5 90.999s-139.333 49.333 -219 90s-143.5 92.167 -191.5 154.5s-72 137.5 -72 225.5c0 85.333 23.167 160.833 69.5 226.5s114.833 116.667 205.5 153s199 54.5 325 54.5c108.667 0 209.334 -8.83301 302.001 -26.5
s186 -44.167 280 -79.5l163 143h54z" />
    <glyph glyph-name="T" unicode="T" horiz-adv-x="1618" 
d="M500 53v1327c-82 -4.66699 -152 -30.5 -210 -77.5s-103 -105.167 -135 -174.5s-52.333 -138 -61 -206h-53v512h1536v-512h-53c-8.66699 68 -29 136.667 -61 206s-77 127.5 -135 174.5s-128 72.833 -210 77.5v-1327h185v-53h-988v53h185z" />
    <glyph glyph-name="U" unicode="U" horiz-adv-x="1720" 
d="M983 1434v-54.001h-152v-870c0 -112 13.667 -197 41 -255s62 -95.833 104 -113.5s93.333 -26.5 154 -26.5c80 0 150.667 26.5 212 79.5s92 155.5 92 307.5v702c0 52 -8.5 91 -25.5 117s-36.833 42.333 -59.5 49s-47.667 10 -75 10h-37v54h442v-54h-24
c-27.333 0 -52.333 -3.33301 -75 -10s-42.5 -23 -59.5 -49s-25.5 -65 -25.5 -117v-698c0 -117.333 -19.333 -213.166 -58 -287.499s-88 -129 -148 -164s-122.833 -58 -188.5 -69s-137.5 -16.5 -215.5 -16.5c-154 0 -277.667 16.5 -371 49.5s-161.333 75.833 -204 128.5
s-69.5 107.5 -80.5 164.5s-16.5 123.167 -16.5 198.5v870h-152v54h922z" />
    <glyph glyph-name="V" unicode="V" horiz-adv-x="1720" 
d="M1143 522l246 674c10.667 33.333 16 62 16 86c0 65.333 -46.333 98 -139 98h-31v54h444v-54c-62 0 -108.667 -14.5 -140 -43.5s-56.333 -69.833 -75 -122.5l-442 -1214h-348l-514 1380h-119v54h934v-54h-152z" />
    <glyph glyph-name="W" unicode="W" horiz-adv-x="2642" 
d="M1143 522l127 350l-189 508h-73v54h888v-54h-151l319 -858l246 674c11.333 35.333 17 64 17 86c0 65.333 -46.667 98 -140 98h-30v54h444v-54c-62 0 -108.667 -14.5 -140 -43.5s-56.333 -69.833 -75 -122.5l-442 -1214h-349l-290 778l-283 -778h-348l-514 1380h-119v54
h877v-54h-95z" />
    <glyph glyph-name="X" unicode="X" horiz-adv-x="1847" 
d="M1141 963l182 228.999c22 30.667 33 60 33 88c0 13.333 -3 27.5 -9 42.5s-18.167 28.333 -36.5 40s-42.166 17.5 -71.499 17.5h-72v54h543v-54c-68 -2 -126.667 -19.333 -176 -52s-98.666 -80 -147.999 -142l-215 -273l549 -860h86v-53h-952v53h145l-315 496l-223 -283
c-30 -36.667 -45 -74.667 -45 -114c0 -27.333 10.167 -50.666 30.5 -69.999s53.166 -29 98.499 -29h76v-53h-560v53c35.333 4 68.333 12.167 99 24.5s61.167 29.5 91.5 51.5s55.166 42.833 74.499 62.5s38.333 41.167 57 64.5l268 342l-497 782h-93v54h953v-54h-137z" />
    <glyph glyph-name="Y" unicode="Y" horiz-adv-x="1679" 
d="M545 592l-402 788h-102v54h942v-54h-160l312 -606l202 402c22 44 33 80 33 108c0 64 -47 96 -141 96v54h409v-54c-52 0 -93.667 -14.167 -125 -42.5s-63.333 -74.833 -96 -139.5l-254 -504v-641h185v-53h-988v53h185v539z" />
    <glyph glyph-name="Z" unicode="Z" horiz-adv-x="1569" 
d="M184 907l-53.001 0.000976562v527h1356v-111l-721 -1270h78c80 0 161.5 18 244.5 54s155 91.167 216 165.5s98.5 164.5 112.5 270.5h53v-543h-1388v115l719 1265h-88c-81.333 0 -152.666 -14.667 -213.999 -44s-113 -67.333 -155 -114s-75.833 -96.834 -101.5 -150.501
s-45.167 -108.5 -58.5 -164.5z" />
    <glyph glyph-name="bracketleft" unicode="[" horiz-adv-x="901" 
d="M819 1434v-54h-205v-1798h205v-53h-655v1905h655z" />
    <glyph glyph-name="backslash" unicode="\" 
 />
    <glyph glyph-name="bracketright" unicode="]" horiz-adv-x="901" 
d="M82 -471v53h205v1798h-205v54h655v-1905h-655z" />
    <glyph glyph-name="asciicircum" unicode="^" 
 />
    <glyph glyph-name="underscore" unicode="_" 
 />
    <glyph glyph-name="grave" unicode="`" horiz-adv-x="942" 
d="M41 1434h410l286 -308h-61l-635 258v50z" />
    <glyph glyph-name="a" unicode="a" horiz-adv-x="1386" 
d="M1325 141l31.001 -31.998c-23.333 -28 -53.666 -52.333 -90.999 -73s-77 -36 -119 -46s-80.667 -15 -116 -15c-60.667 0 -112 12 -154 36s-81.333 62.667 -118 116c-130.667 -101.333 -263.334 -152 -398.001 -152c-88 0 -162.5 23.333 -223.5 70s-91.5 115 -91.5 205
c0 88 29.833 156 89.5 204s139.5 80.833 239.5 98.5s220.333 27.5 361 29.5v284c0 40.667 -6.33301 68.667 -19 84s-45.334 23 -98.001 23c-50 0 -75 -11 -75 -33c0 -6.66699 7 -20.834 21 -42.501s22 -34.834 24 -39.501c9.33301 -20.667 14 -44 14 -70
c0 -56 -22.833 -100 -68.5 -132s-100.5 -48 -164.5 -48c-68 0 -121.167 16.167 -159.5 48.5s-57.5 74.833 -57.5 127.5c0 70 41.5 127.167 124.5 171.5s222.167 66.5 417.5 66.5c221.333 0 363.333 -31.167 426 -93.5s94 -135.5 94 -219.5v-543c0 -40 16.667 -60 50 -60
c20 0 40.333 11.667 61 35zM735.001 260.002l0.000976562 264c-14 4 -40.667 6 -80 6c-43.333 0 -72.833 -13 -88.5 -39s-23.5 -68 -23.5 -126v-93c0 -46.667 9.16699 -83.5 27.5 -110.5s41.166 -40.5 68.499 -40.5c64 0 96 46.333 96 139z" />
    <glyph glyph-name="b" unicode="b" horiz-adv-x="1438" 
d="M184 1384l-123 0.000976562v50h150c112.667 0 203.167 3.16699 271.5 9.5s128.833 15.166 181.5 26.499v-587c74.667 86 175.667 129 303 129c93.333 0 170.5 -22.167 231.5 -66.5s105.833 -104.333 134.5 -180s43 -161.5 43 -257.5
c0 -97.333 -14.833 -186.333 -44.5 -267s-75.5 -145.167 -137.5 -193.5s-137.667 -72.5 -227 -72.5c-146 0 -252.667 50 -320 150h-12v-162c-130.667 24.667 -281 37 -451 37h-123v49h123v1335zM664 698.001v-422.001c0 -39.333 6.5 -79.166 19.5 -119.499
s42.5 -60.5 88.5 -60.5c33.333 0 55.666 10.833 66.999 32.5s17 49.167 17 82.5v553c0 33.333 -5.66699 60.833 -17 82.5s-33.666 32.5 -66.999 32.5c-46 0 -75.5 -20.167 -88.5 -60.5s-19.5 -80.5 -19.5 -120.5z" />
    <glyph glyph-name="c" unicode="c" horiz-adv-x="1225" 
d="M1124 287l38.9971 -31.002c-48.667 -74.667 -102.5 -132.667 -161.5 -174s-118.333 -69.5 -178 -84.5s-120.5 -22.5 -182.5 -22.5c-88 0 -167.167 11 -237.5 33s-131.333 55 -183 99s-91.167 99.333 -118.5 166s-41 142.334 -41 227.001c0 146 39.333 257 118 333
s164 124.833 256 146.5s171.667 32.5 239 32.5c100 0 187 -11.667 261 -35s130.5 -58 169.5 -104s58.5 -100.667 58.5 -164c0 -70.667 -19.667 -128 -59 -172s-90.666 -66 -153.999 -66c-38.667 0 -76.334 7.5 -113.001 22.5s-66.167 38.5 -88.5 70.5
s-33.5 72.667 -33.5 122c0 57.333 17.833 103.833 53.5 139.5s84.5 53.5 146.5 53.5c30 0 59.667 -5 89 -15c-7.33301 30.667 -28.666 53.667 -63.999 69s-77.666 23 -126.999 23c-85.333 0 -145.166 -26.833 -179.499 -80.5s-51.5 -146.167 -51.5 -277.5v-135
c0 -84 6.33301 -153.5 19 -208.5s36.834 -97.833 72.501 -128.5s85.5 -46 149.5 -46c54.667 0 109.167 19.833 163.5 59.5s100.166 88.834 137.499 147.501z" />
    <glyph glyph-name="d" unicode="d" horiz-adv-x="1438" 
d="M774 1384h-123.004v50h150c112.667 0 202.834 3.16699 270.501 9.5s128.167 15.166 181.5 26.499v-1421h123v-49h-123c-94 0 -175.5 -2.83301 -244.5 -8.5s-137.5 -15.167 -205.5 -28.5v162h-12c-34.667 -54 -81 -92.5 -139 -115.5s-118.333 -34.5 -181 -34.5
c-90 0 -165.833 24 -227.5 72s-107.5 112.5 -137.5 193.5s-45 170.167 -45 267.5c0 96 14.333 181.833 43 257.5s73.834 135.667 135.501 180s138.834 66.5 231.501 66.5c64.667 0 120.834 -10.167 168.501 -30.5s92.5 -53.166 134.5 -98.499v501zM581.996 764
l-0.000976562 -552.998c0 -33.333 5.5 -60.833 16.5 -82.5s33.5 -32.5 67.5 -32.5c45.333 0 74.666 20.167 87.999 60.5s20 80.166 20 119.499v422c0 40 -6.66699 80.167 -20 120.5s-42.666 60.5 -87.999 60.5c-23.333 0 -41.166 -5.66699 -53.499 -17
s-20.5 -25.333 -24.5 -42s-6 -35.334 -6 -56.001z" />
    <glyph glyph-name="e" unicode="e" horiz-adv-x="1327" 
d="M1227 297l39.0029 -34.999c-56.667 -78.667 -117.834 -139 -183.501 -181s-130.167 -70.167 -193.5 -84.5s-129 -21.5 -197 -21.5c-125.333 0 -236 21.667 -332 65s-169.833 104.333 -221.5 183s-77.5 168.334 -77.5 269.001c0 85.333 21.167 168 63.5 248
s109.666 145.333 201.999 196s208.166 76 347.499 76c136 0 247.667 -27.333 335 -82s149.833 -124.834 187.5 -210.501s56.5 -176.834 56.5 -273.501h-671v-57c0 -91.333 13.167 -169.5 39.5 -234.5s84.833 -97.5 175.5 -97.5c87.333 0 167.833 23.5 241.5 70.5
s136.5 103.5 188.5 169.5zM774.003 496.001v358c0 72.667 -32 109 -96 109s-96 -36.333 -96 -109v-358h192z" />
    <glyph glyph-name="f" unicode="f" horiz-adv-x="856" 
d="M61 49l123.001 -0.00292969v889h-123v49h123c-17.333 50.667 -26 99.334 -26 146.001c0 88 34 164.167 102 228.5s171.667 96.5 311 96.5c38.667 0 79.667 -5.5 123 -16.5s79.833 -30.667 109.5 -59s44.5 -66.5 44.5 -114.5c0 -55.333 -18 -98.166 -54 -128.499
s-82.333 -45.5 -139 -45.5c-52 0 -97.667 13 -137 39s-59 66 -59 120c0 33.333 7.16699 64.333 21.5 93s37.166 47 68.499 55c-15.333 5.33301 -31.666 8 -48.999 8c-52.667 0 -92.834 -16.667 -120.501 -50s-41.5 -74.666 -41.5 -123.999c0 -78 32.333 -138.833 97 -182.5
s141 -65.5 229 -65.5h122v-49h-122v-889h122v-49h-725v49z" />
    <glyph glyph-name="g" unicode="g" horiz-adv-x="1413" 
d="M393 348c-52 14 -98.167 36.333 -138.5 67s-71.666 66.667 -93.999 108s-33.5 85.333 -33.5 132c0 109.333 47.167 196.833 141.5 262.5s226.166 98.5 395.499 98.5c76.667 0 154.334 -7 233.001 -21c18.667 94.667 51.334 166.834 98.001 216.501s115 74.5 205 74.5
c51.333 0 92.833 -14.833 124.5 -44.5s47.5 -70.167 47.5 -121.5c0 -48 -14.167 -87 -42.5 -117s-64.5 -45 -108.5 -45c-53.333 0 -95 14.5 -125 43.5s-45 61.167 -45 96.5c0.666992 6 1.16699 11.333 1.5 16s0.5 11 0.5 19c0 20 -9 30 -27 30s-33.167 -17.167 -45.5 -51.5
s-21.833 -76.5 -28.5 -126.5c81.333 -16.667 149.5 -54.167 204.5 -112.5s82.5 -128.5 82.5 -210.5c0 -95.333 -39.333 -176.333 -118 -243s-221.667 -100 -429 -100c-40.667 0 -69.834 1.5 -87.501 4.5s-50.5 4.5 -98.5 4.5c-38 0 -64.667 -6.5 -80 -19.5
s-23 -27.167 -23 -42.5c0 -26.667 18.5 -46.5 55.5 -59.5s78 -21 123 -24s100.5 -5.16699 166.5 -6.5c129.333 -3.33301 221.5 -6.16602 276.5 -8.49902s110.5 -10.833 166.5 -25.5s100.167 -39.834 132.5 -75.501s48.5 -86.5 48.5 -152.5
c0 -108 -53.333 -196.5 -160 -265.5s-291 -103.5 -553 -103.5c-94.667 0 -185 3.83301 -271 11.5s-162 24.167 -228 49.5s-99 61.666 -99 108.999c0 72.667 67.667 113.667 203 123c-64 23.333 -113.5 56 -148.5 98s-52.5 86.667 -52.5 134c0 62 25.667 117.667 77 167
s135.666 86.333 252.999 111zM319 -184c-26.667 -25.333 -39.999 -52.666 -39.999 -81.999c0 -37.333 28 -70 84 -98s154.667 -42 296 -42c270.667 0 406 40.333 406 121c0 23.333 -12.333 37.666 -37 42.999s-62.334 9 -113.001 11c-138 2.66699 -249.167 7 -333.5 13
s-171.833 17.333 -262.5 34zM600.001 854v-377c0 -72 30.667 -108 92 -108s92 36 92 108v377c0 72.667 -30.667 109 -92 109s-92 -36.333 -92 -109z" />
    <glyph glyph-name="h" unicode="h" horiz-adv-x="1520" 
d="M721 0l-660.001 0.000976562v49h123v1335h-123v50h150c112.667 0 203.167 3.16699 271.5 9.5s128.833 15.166 181.5 26.499v-626c33.333 39.333 68.333 71.5 105 96.5s75.167 43.167 115.5 54.5s84.833 17 133.5 17c66.667 0 124 -18 172 -54s84.167 -84.5 108.5 -145.5
s36.5 -125.833 36.5 -194.5v-569h123v-49h-659v49h57v692c0 34 -5.66699 61.667 -17 83s-33.666 32 -66.999 32c-46 0 -75.5 -20 -88.5 -60s-19.5 -80 -19.5 -120v-627h57v-49z" />
    <glyph glyph-name="i" unicode="i" horiz-adv-x="848" 
d="M786 0h-725v49h123v889h-123v49h150c187.333 0 338.333 12.333 453 37v-975h122v-49zM225 1282c0 40.667 13.167 76.167 39.5 106.5s79.5 45.5 159.5 45.5s133.167 -15.167 159.5 -45.5s39.5 -65.833 39.5 -106.5c0 -24 -4.33301 -47 -13 -69s-28 -41.333 -58 -58
s-72.667 -25 -128 -25s-98 8.33301 -128 25s-49.333 36 -58 58s-13 45 -13 69z" />
    <glyph glyph-name="j" unicode="j" horiz-adv-x="807" 
d="M184 938l-123.003 -0.00292969v49h150c187.333 0 338.333 12.333 453 37v-1149c0 -81.333 -17.5 -149.666 -52.5 -204.999s-83.667 -96.833 -146 -124.5s-134.833 -41.5 -217.5 -41.5c-77.333 0 -143.5 15.5 -198.5 46.5s-82.5 79.167 -82.5 144.5c0 56 19 99 57 129
s87.333 45 148 45c32.667 0 63.334 -6.16699 92.001 -18.5s51.834 -30.666 69.501 -54.999s26.5 -53.166 26.5 -86.499c0 -34.667 -7.16699 -65.667 -21.5 -93s-37.166 -45.333 -68.499 -54c13.333 -5.33301 29.666 -8 48.999 -8c52.667 0 92.834 19 120.501 57
s41.5 85 41.5 141c0 77.333 -30.667 140.333 -92 189c-50.667 39.333 -119 59 -205 59v938zM224.997 1282c0 40.667 13.167 76.167 39.5 106.5s79.5 45.5 159.5 45.5s133.167 -15.167 159.5 -45.5s39.5 -65.833 39.5 -106.5c0 -24 -4.33301 -47 -13 -69s-28 -41.333 -58 -58
s-72.667 -25 -128 -25s-98 8.33301 -128 25s-49.333 36 -58 58s-13 45 -13 69z" />
    <glyph glyph-name="k" unicode="k" horiz-adv-x="1663" 
d="M184 1384l-123 0.000976562v50h150c112.667 0 203.167 3.16699 271.5 9.5s128.833 15.166 181.5 26.499v-946l333 250c28.667 23.333 50.5 42.833 65.5 58.5s22.5 32.5 22.5 50.5c0 23.333 -9.83301 38.333 -29.5 45s-46.5 10 -80.5 10h-101v49h693v-49
c-46 -3.33301 -90.833 -9.16602 -134.5 -17.499s-87 -20 -130 -35s-83.833 -32.833 -122.5 -53.5s-77 -45.334 -115 -74.001l502 -709h67v-49h-729v49h123l-295 465l-69 -51v-414h65v-49h-668v49h123v1335z" />
    <glyph glyph-name="l" unicode="l" horiz-adv-x="848" 
d="M184 1384l-123 0.000976562v50h150c112.667 0 203.167 3.16699 271.5 9.5s128.833 15.166 181.5 26.499v-1421h122v-49h-725v49h123v1335z" />
    <glyph glyph-name="m" unicode="m" horiz-adv-x="2191" 
d="M721 0h-659.999v49h123v889h-123v49h123c170 0 320.333 12.333 451 37v-180h12c60 72 121.5 118 184.5 138s125.167 30 186.5 30c48 0 99.167 -13.5 153.5 -40.5s96.5 -77.833 126.5 -152.5c14 21.333 36.667 46.5 68 75.5s74.333 55.833 129 80.5s119.667 37 195 37
c66 0 123.167 -18 171.5 -54s84.666 -84 108.999 -144s36.5 -125.333 36.5 -196v-569h123v-49h-660v49h58v701c0 76 -28 114 -84 114c-31.333 0 -55.333 -11.667 -72 -35s-27 -47.833 -31 -73.5s-6 -49.5 -6 -71.5v-635h58v-49h-594v49h57v701c0 76 -28 114 -84 114
c-46 0 -75.5 -20 -88.5 -60s-19.5 -80 -19.5 -120v-635h57v-49z" />
    <glyph glyph-name="n" unicode="n" horiz-adv-x="1520" 
d="M721 0l-660 0.000976562v49h123v889h-123v49h123c170 0 320.333 12.333 451 37v-180h12c60 72 121.5 118 184.5 138s125.167 30 186.5 30c66.667 0 124 -17.833 172 -53.5s84.167 -83.834 108.5 -144.501s36.5 -126 36.5 -196v-569h123v-49h-659v49h57v701
c0 76 -28 114 -84 114c-46 0 -75.5 -20 -88.5 -60s-19.5 -80 -19.5 -120v-635h57v-49z" />
    <glyph glyph-name="o" unicode="o" horiz-adv-x="1356" 
d="M61 494c0 72 14.832 139.669 44.499 203.002s71.834 118.5 126.501 165.5s119.5 83.667 194.5 110s158.833 39.5 251.5 39.5c93.333 0 177.833 -13.333 253.5 -40s140.5 -63.5 194.5 -110.5s95.5 -102 124.5 -165s43.5 -130.5 43.5 -202.5s-14.333 -139.333 -43 -202
s-70.167 -117.834 -124.5 -165.501s-120 -84.834 -197 -111.501s-160.833 -40 -251.5 -40c-89.333 0 -172.333 13.167 -249 39.5s-142.5 63.333 -197.5 111s-97.167 103 -126.5 166s-44 130.5 -44 202.5zM581.999 854.002l0.00195312 -721
c0 -28.667 5.66699 -53.834 17 -75.501s37.666 -32.5 78.999 -32.5s67.666 10.833 78.999 32.5s17 46.834 17 75.501v721c0 72.667 -32 109 -96 109s-96 -36.333 -96 -109z" />
    <glyph glyph-name="p" unicode="p" horiz-adv-x="1421" 
d="M770 -471l-725 0.00292969v49h123v1360h-123v49h123c169.333 0 319.333 12.333 450 37v-180h13c64 112 176 168 336 168c86 0 158.5 -22.333 217.5 -67s103 -105.334 132 -182.001s43.5 -161.667 43.5 -255c0 -52.667 -7.33301 -117.834 -22 -195.501
s-52.667 -153.334 -114 -227.001s-152.666 -110.5 -273.999 -110.5c-32.667 0 -65.334 3.16699 -98.001 9.5s-66.5 19 -101.5 38s-69.5 46.167 -103.5 81.5v-526h123v-49zM840 211.003v553c0 33.333 -5.5 60.833 -16.5 82.5s-33.5 32.5 -67.5 32.5
c-31.333 0 -55.333 -11.667 -72 -35s-27 -48 -31 -74s-6 -50 -6 -72v-422c0 -21.333 2 -45 6 -71s14.333 -50.667 31 -74s40.667 -35 72 -35c34 0 56.5 10.833 67.5 32.5s16.5 49.167 16.5 82.5z" />
    <glyph glyph-name="q" unicode="q" horiz-adv-x="1438" 
d="M651 -422l123 -0.00292969v526c-48.667 -51.333 -97.834 -85.666 -147.501 -102.999s-101.5 -26 -155.5 -26c-121.333 0 -212.666 36.833 -273.999 110.5s-99.333 149.334 -114 227.001s-22 142.834 -22 195.501c0 92.667 14.5 177.5 43.5 254.5s73 137.833 132 182.5
s131.833 67 218.5 67c64.667 0 127.5 -11.5 188.5 -34.5s110.167 -67.5 147.5 -133.5h12v180c130.667 -24.667 280.667 -37 450 -37h123v-49h-123v-1360h123v-49h-725v49zM582 763.997l-0.000976562 -552.998c0 -33.333 5.5 -60.833 16.5 -82.5s33.5 -32.5 67.5 -32.5
c45.333 0 74.666 20.167 87.999 60.5s20 80.166 20 119.499v422c0 40 -6.66699 80.167 -20 120.5s-42.666 60.5 -87.999 60.5c-23.333 0 -41.166 -5.66699 -53.499 -17s-20.5 -25.333 -24.5 -42s-6 -35.334 -6 -56.001z" />
    <glyph glyph-name="r" unicode="r" horiz-adv-x="1325" 
d="M848 0l-786.999 -0.00195312v49h123v889h-123v49h150c187.333 0 338.333 12.333 453 37c-16.667 -82.667 -25 -175.667 -25 -279v-49h12c30 94 80.5 170.167 151.5 228.5s152.5 87.5 244.5 87.5c67.333 0 125.666 -23.667 174.999 -71s74 -114 74 -200
c0 -67.333 -20.667 -124.333 -62 -171s-96.333 -70 -165 -70c-65.333 0 -121.666 18.667 -168.999 56s-71 89 -71 155c0 39.333 10.333 73.333 31 102c14 18.667 21 30.334 21 35.001c0 5.33301 -6.33301 8 -19 8c-27.333 0 -56.833 -17.333 -88.5 -52
s-57.834 -81.167 -78.501 -139.5s-31 -120.166 -31 -185.499v-430h184v-49z" />
    <glyph glyph-name="s" unicode="s" horiz-adv-x="1282" 
d="M1110 1004l0.00488281 -282.998h-49c-34.667 70 -90 125.333 -166 166c-94 50.667 -206 76 -336 76c-59.333 0 -100.5 -8.66699 -123.5 -26s-34.5 -37.333 -34.5 -60c0 -21.333 9.16699 -39.666 27.5 -54.999s40.166 -27.333 65.499 -36s60.166 -17.834 104.499 -27.501
s70.166 -15.5 77.499 -17.5c126 -29.333 224.667 -57 296 -83s130.666 -64.167 177.999 -114.5s71 -116.166 71 -197.499c0 -43.333 -10 -87 -30 -131s-51.667 -84.167 -95 -120.5s-100.333 -65.333 -171 -87s-153.667 -32.5 -249 -32.5c-178 0 -324 31 -438 93l-95 -84h-49
l-33 389h50c58.667 -111.333 139.334 -196.5 242.001 -255.5s209 -88.5 319 -88.5c83.333 0 142.666 10.833 177.999 32.5s53 44.167 53 67.5c0 32.667 -13.333 55.167 -40 67.5s-69.334 24.5 -128.001 36.5c-110.667 25.333 -201.334 48.166 -272.001 68.499
s-135.5 46.5 -194.5 78.5s-105.167 72.167 -138.5 120.5s-50 106.833 -50 175.5c0 69.333 28.167 142.666 84.5 219.999s177.5 116 363.5 116c38.667 0 80 -1.16699 124 -3.5s97.333 -9.33301 160 -21s122.334 -28.834 179.001 -51.501l70 68h49z" />
    <glyph glyph-name="t" unicode="t" horiz-adv-x="983" 
d="M184 938l-123.002 0.000976562v49c120.667 4.66699 228.834 45.667 324.501 123s165.834 171.666 210.501 282.999h68v-406h225v-49h-225v-692c0 -34 4.33301 -63.333 13 -88s28 -37 58 -37c40 0 71.5 23.5 94.5 70.5s37.167 97.833 42.5 152.5h50
c-6 -60 -20.833 -117.333 -44.5 -172s-62.5 -101.167 -116.5 -139.5s-124.667 -57.5 -212 -57.5c-112.667 0 -201.667 23 -267 69s-98 107.667 -98 185v709z" />
    <glyph glyph-name="u" unicode="u" horiz-adv-x="1520" 
d="M856 938h-57v49h84c188 0 338.667 12.333 452 37v-975h123v-49h-123c-169.333 0 -319.333 -12.333 -450 -37v180h-13c-39.333 -49.333 -90.666 -89.666 -153.999 -120.999s-135.333 -47 -216 -47c-132 0 -218 44 -258 132s-60 175.333 -60 262v569h-123v49h150
c187.333 0 338.333 12.333 453 37v-786c0 -34 5.5 -61.667 16.5 -83s33.5 -32 67.5 -32c45.333 0 74.666 20.167 87.999 60.5s20 80.166 20 119.499v635z" />
    <glyph glyph-name="v" unicode="v" horiz-adv-x="1300" 
d="M123 938h-94v49h712v-49h-108l219 -608h12l166 393c26 60.667 39 107.667 39 141c0 49.333 -39 74 -117 74v49h320v-49c-44 -8.66699 -78.667 -31 -104 -67s-55 -93.667 -89 -173l-295 -698h-297z" />
    <glyph glyph-name="w" unicode="w" horiz-adv-x="1982" 
d="M993 606l-114 332.002h-78v49h645v-49h-78l197 -586h12l158 465c4 10 6 23 6 39c0 54.667 -52 82 -156 82v49h369v-49c-48.667 -0.666992 -82.5 -9.83398 -101.5 -27.501s-38.5 -52.834 -58.5 -105.501l-295 -805h-303l-180 537l-238 -537h-327l-314 938h-108v49h665v-49
h-59l215 -627h12z" />
    <glyph glyph-name="x" unicode="x" horiz-adv-x="1470" 
d="M952 653l146 162.001c20 23.333 30 44.666 30 63.999c0 39.333 -35.333 59 -106 59h-94v49h477v-49c-92.667 -4 -176.667 -49 -252 -135l-174 -193l395 -561h53v-49h-763v49h120l-235 340l-168 -192c-22 -26.667 -33 -54 -33 -82c0 -44 35 -66 105 -66h116v-49h-526v49
c33.333 2 75.833 14.333 127.5 37s106.167 67 163.5 133l186 211l-366 508h-111v49h793v-49h-82z" />
    <glyph glyph-name="y" unicode="y" horiz-adv-x="1462" 
d="M43 987l808.999 0.000976562v-49h-125l299 -567l148 319c28.667 63.333 43 114 43 152c0 64 -48.667 96 -146 96v49h391v-49c-47.333 -5.33301 -84.5 -25.333 -111.5 -60s-63.5 -98.667 -109.5 -192l-461 -926c-37.333 -73.333 -90.5 -126.833 -159.5 -160.5
s-142.167 -50.5 -219.5 -50.5c-81.333 0 -152.166 21.167 -212.499 63.5s-90.5 102.5 -90.5 180.5c0 74 21.833 131.5 65.5 172.5s97.834 61.5 162.501 61.5c70 0 122.667 -21.333 158 -64s53 -92.334 53 -149.001c0 -58 -20.833 -103.667 -62.5 -137
s-91.834 -50 -150.501 -50c6 -18.667 29.667 -28 71 -28c96.667 0 173.167 22.5 229.5 67.5s97.5 94.167 123.5 147.5l47 94l-637 1030h-115v49z" />
    <glyph glyph-name="z" unicode="z" horiz-adv-x="1294" 
d="M150 612v375h1083v-49l-619 -889h93c147.333 0 257.833 39 331.5 117s122.167 162 145.5 252h49v-418h-1172v49l619 889h-70c-65.333 0 -127.333 -15.333 -186 -46s-107.5 -71 -146.5 -121s-65.167 -103 -78.5 -159h-49z" />
    <glyph glyph-name="braceleft" unicode="{" 
 />
    <glyph glyph-name="bar" unicode="|" 
 />
    <glyph glyph-name="braceright" unicode="}" 
 />
    <glyph glyph-name="asciitilde" unicode="~" 
 />
    <glyph glyph-name="afii10051" horiz-adv-x="2150" 
d="M500 53l-0.000976562 1327c-82 -2.66699 -151.667 -25.667 -209 -69s-102.333 -96.833 -135 -160.5s-53.334 -126.167 -62.001 -187.5h-53v471h1618v-430h-53c-14.667 76.667 -46.834 143.167 -96.501 199.5s-109.667 99.833 -180 130.5s-140.833 46 -211.5 46v-573
c135.333 58.667 284.333 88 447 88c114.667 0 211.167 -20.833 289.5 -62.5s137 -98.5 176 -170.5s58.5 -152.667 58.5 -242c0 -69.333 -12.833 -131.833 -38.5 -187.5s-63.167 -103.167 -112.5 -142.5s-110.166 -69.333 -182.499 -90s-153.166 -31 -242.499 -31
c-56 0 -109.167 4.83301 -159.5 14.5s-101.5 25.5 -153.5 47.5l21 53c28.667 -15.333 58 -23 88 -23c62 0 101.667 34.833 119 104.5s26 150.5 26 242.5c0 75.333 -4 141.333 -12 198s-25.167 103 -51.5 139s-65.166 54 -116.499 54c-19.333 0 -43.833 -4.5 -73.5 -13.5
s-57.167 -19.5 -82.5 -31.5v-754h-770v53h152z" />
    <glyph glyph-name="afii10052" horiz-adv-x="1466" 
d="M233 53v1327h-151v54h1352v-512h-54c-10 57.333 -28.833 114.333 -56.5 171s-62.334 106.334 -104.001 149.001s-90.167 76.334 -145.5 101.001s-115.666 37 -180.999 37h-41v-1327h184v-53h-954v53h151z" />
    <glyph glyph-name="afii10061" horiz-adv-x="1958" 
d="M852 791l44.998 0.00292969c58.667 0 107.667 14.167 147 42.5s61.333 89.833 66 184.5c4.66699 77.333 9 131.666 13 162.999s15.667 70.333 35 117s51.5 86 96.5 118s104.833 48 179.5 48c42.667 0 80.834 -6.16699 114.501 -18.5s62.667 -30.333 87 -54
s42.833 -52.334 55.5 -86.001s19 -70.834 19 -111.501c0 -74 -21.667 -136.167 -65 -186.5s-103.666 -75.5 -180.999 -75.5c-88 0 -153.333 28.667 -196 86c-17.333 24 -28.333 45 -33 63s-9.33398 46 -14.001 84c0 22 -6.33301 33 -19 33
c-9.33301 0 -16.666 -6 -21.999 -18s-9.16602 -28 -11.499 -48s-3.66602 -38.333 -3.99902 -55s-0.833008 -28.334 -1.5 -35.001c-1.33301 -75.333 -9 -133.666 -23 -174.999s-47.333 -75 -100 -101c184 -7.33301 322.167 -30.333 414.5 -69s152.166 -86.167 179.499 -142.5
s42.333 -127.166 45 -212.499c1.33301 -60 6.83301 -106.667 16.5 -140s30.834 -50 63.501 -50c42 0 85 25 129 75l37 -37c-77.333 -81.333 -150.5 -138.5 -219.5 -171.5s-137.167 -49.5 -204.5 -49.5c-88.667 0 -161.834 18.833 -219.501 56.5
s-100.334 84.167 -128.001 139.5s-45.667 107 -54 155s-14.5 102.333 -18.5 163c-5.33301 81.333 -13.833 139.166 -25.5 173.499s-28.667 56.333 -51 66s-56.833 14.5 -103.5 14.5h-49v-684h152v-53h-922v53h151v1327h-151v54h922v-54h-152v-589z" />
    <glyph glyph-name="afii10060" horiz-adv-x="2150" 
d="M41 1434h1618v-430h-53c-14.667 76.667 -46.834 143.167 -96.501 199.5s-109.667 99.833 -180 130.5s-140.833 46 -211.5 46v-553c58 14 129 25.833 213 35.5s153.667 14.5 209 14.5c171.333 0 283.833 -33.833 337.5 -101.5s80.5 -141.167 80.5 -220.5v-502h151v-53
h-843v53h73v611c0 46 -11.667 79 -35 99s-53.333 30 -90 30c-30 0 -62 -6.33301 -96 -19v-721h74v-53h-844v53h152v1327c-82 -2.66699 -151.667 -25.667 -209 -69s-102.333 -96.833 -135 -160.5s-53.334 -126.167 -62.001 -187.5h-53v471z" />
    <glyph glyph-name="afii10145" horiz-adv-x="2462" 
d="M426 1434l1270 -0.00292969v-54h-152v-520h246c420.667 0 631 -142 631 -426c0 -99.333 -24.167 -181.5 -72.5 -246.5s-114.5 -112.5 -198.5 -142.5s-178 -45 -282 -45h-1094v53h152v1327h-111c-30 0 -54.5 -7 -73.5 -21s-28.5 -46.333 -28.5 -97v-605
c0 -115.333 -9.33301 -216.333 -28 -303s-45.834 -158.5 -81.501 -215.5s-79.167 -99.5 -130.5 -127.5s-108.666 -42 -171.999 -42c-55.333 0 -104.666 11.833 -147.999 35.5s-76.333 56 -99 97s-34 86.5 -34 136.5c0 53.333 11.5 98.833 34.5 136.5s53.5 66.167 91.5 85.5
s79.333 29 124 29c68 0 124.333 -20.5 169 -61.5s67 -96.833 67 -167.5c0 -77.333 -20 -134.666 -60 -171.999l7 -6c54 21.333 100.5 73.833 139.5 157.5s58.5 222.834 58.5 417.501v588c0 56.667 -11.167 93.334 -33.5 110.001s-50.833 25 -85.5 25h-106v54zM1544 52.9971
l84 0.000976562c30.667 0 57 3.33301 79 10s40.667 22.667 56 48s23 64.666 23 117.999v402c0 75.333 -13.833 123.5 -41.5 144.5s-66.5 31.5 -116.5 31.5h-84v-754z" />
    <glyph glyph-name="afii10099" horiz-adv-x="1479" 
d="M1018 1180l-354.005 -0.000976562v-336c33.333 39.333 68.333 71.5 105 96.5s75.167 43.167 115.5 54.5s84.833 17 133.5 17c66.667 0 124 -18 172 -54s84.167 -84.5 108.5 -145.5s36.5 -125.833 36.5 -194.5v-743c0 -122 -37.833 -214.333 -113.5 -277
s-176.167 -94 -301.5 -94c-77.333 0 -143.5 15.5 -198.5 46.5s-82.5 79.167 -82.5 144.5c0 56 19 99 57 129s87.333 45 148 45c32.667 0 63.334 -6.16699 92.001 -18.5s51.834 -30.666 69.501 -54.999s26.5 -53.166 26.5 -86.499c0 -34.667 -7.16699 -65.667 -21.5 -93
s-37.166 -45.333 -68.499 -54c12.667 -5.33301 29 -8 49 -8c52.667 0 92.834 19 120.501 57s41.5 85 41.5 141c0 76.667 -30.667 139.667 -92 189c-50.667 39.333 -119 59 -205 59v741c0 34 -5.66699 61.667 -17 83s-33.666 32 -66.999 32c-46 0 -75.5 -20 -88.5 -60
s-19.5 -80 -19.5 -120v-627h57v-49h-660v49h123v1131h-123v49h123v155h-123v50h150c112.667 0 203.167 3.16699 271.5 9.5s128.833 15.166 181.5 26.499v-241h354v-49z" />
    <glyph glyph-name="afii10109" horiz-adv-x="1481" 
d="M664 522h34c52.667 0 87.667 20.167 105 60.5s27.666 87.166 30.999 140.499c4.66699 76.667 23.167 144 55.5 202s96.833 87 193.5 87c70 0 123.333 -21.5 160 -64.5s55 -93.833 55 -152.5c0 -60 -18.833 -106.5 -56.5 -139.5s-82.834 -49.5 -135.501 -49.5
c-89.333 0 -146 37 -170 111c-2 6 -4.16699 18 -6.5 36s-4.5 30.5 -6.5 37.5s-7.33301 10.5 -16 10.5c-11.333 0 -18 -6 -20 -18s-4 -34 -6 -66c-2.66699 -52.667 -9.16699 -95.167 -19.5 -127.5s-31.166 -60.166 -62.499 -83.499h100c106.667 0 186 -11.333 238 -34
s85.5 -51.5 100.5 -86.5s25.167 -79.5 30.5 -133.5c5.33301 -52.667 11.5 -86.667 18.5 -102s22.5 -23 46.5 -23c28.667 0 54.667 11 78 33l33 -33c-103.333 -101.333 -218 -152 -344 -152c-82.667 0 -144.667 15.833 -186 47.5s-68.166 72 -80.499 121
s-21.833 121.167 -28.5 216.5c-3.33301 49.333 -14 80.5 -32 93.5s-43 19.5 -75 19.5h-34v-424h116v-49h-719v49h123v889h-123v49h719v-49h-116v-416z" />
    <glyph glyph-name="afii10108" horiz-adv-x="1520" 
d="M1018 1180l-354.001 0.000976562v-336c33.333 39.333 68.333 71.5 105 96.5s75.167 43.167 115.5 54.5s84.833 17 133.5 17c66.667 0 124 -18 172 -54s84.167 -84.5 108.5 -145.5s36.5 -125.833 36.5 -194.5v-569h123v-49h-659v49h57v692c0 34 -5.66699 61.667 -17 83
s-33.666 32 -66.999 32c-46 0 -75.5 -20 -88.5 -60s-19.5 -80 -19.5 -120v-627h57v-49h-660v49h123v1131h-123v49h123v155h-123v50h150c112.667 0 203.167 3.16699 271.5 9.5s128.833 15.166 181.5 26.499v-241h354v-49z" />
    <glyph glyph-name="nonbreakingspace" unicode="&#xa0;" horiz-adv-x="1434" 
 />
    <glyph glyph-name="afii10062" unicode="&#xa1;" horiz-adv-x="1679" 
d="M184 1380h-143.002v54h975v-54h-127l309 -540l229 411c12.667 24 19 46.667 19 68c0 26 -10.5 42.667 -31.5 50s-52.167 11 -93.5 11h-37v54h395v-54c-36.667 0 -66.667 -6.66699 -90 -20s-40.666 -28 -51.999 -44s-23.333 -35.667 -36 -59l-590 -1056
c-85.333 -154.667 -213.666 -232 -384.999 -232c-144 0 -247.167 29.333 -309.5 88s-93.5 125.667 -93.5 201c0 44.667 10.5 86.5 31.5 125.5s51.5 70.5 91.5 94.5s86.333 36 139 36c53.333 0 99 -11.833 137 -35.5s66.333 -54.667 85 -93s28 -79.5 28 -123.5
c0 -42.667 -11.333 -84.667 -34 -126s-55.667 -70.333 -99 -87c18 -14.667 42.333 -22 73 -22c107.333 0 198.333 62 273 186zM1118 1569c126.667 0 213.331 9.33203 259.998 27.999c-26.667 0.666992 -49 8.5 -67 23.5s-27 32.5 -27 52.5c0 23.333 13.167 43.833 39.5 61.5
s71.833 26.5 136.5 26.5c58.667 0 101.667 -9.83301 129 -29.5s41 -43.167 41 -70.5c0 -33.333 -17.167 -60.333 -51.5 -81s-77.666 -35.5 -129.999 -44.5s-103.5 -14.5 -153.5 -16.5s-109 -3 -177 -3c-66.667 0 -124.834 1 -174.501 3s-101.167 7.66699 -154.5 17
s-97.166 24.333 -131.499 45s-51.5 47.334 -51.5 80.001c0 27.333 13.667 50.833 41 70.5s70.333 29.5 129 29.5c65.333 0 111 -8.83301 137 -26.5s39 -38.167 39 -61.5c0 -20 -9 -37.5 -27 -52.5s-40.333 -22.833 -67 -23.5c46.667 -18.667 133.334 -28 260.001 -28z" />
    <glyph glyph-name="afii10110" unicode="&#xa2;" horiz-adv-x="1462" 
d="M43 987l808.999 0.000976562v-49h-125l299 -567l148 319c28.667 63.333 43 114 43 152c0 64 -48.667 96 -146 96v49h391v-49c-47.333 -5.33301 -84.5 -25.333 -111.5 -60s-63.5 -98.667 -109.5 -192l-461 -926c-37.333 -73.333 -90.5 -126.833 -159.5 -160.5
s-142.167 -50.5 -219.5 -50.5c-81.333 0 -152.166 21.167 -212.499 63.5s-90.5 102.5 -90.5 180.5c0 74 21.833 131.5 65.5 172.5s97.834 61.5 162.501 61.5c70 0 122.667 -21.333 158 -64s53 -92.334 53 -149.001c0 -58 -20.833 -103.667 -62.5 -137
s-91.834 -50 -150.501 -50c6 -18.667 29.667 -28 71 -28c96.667 0 173.167 22.5 229.5 67.5s97.5 94.167 123.5 147.5l47 94l-637 1030h-115v49zM933.999 1108c137.333 0 229.338 31.3311 276.005 93.998c-43.333 0 -79.333 9.16699 -108 27.5s-43 46.166 -43 83.499
c0 40 13.167 74.167 39.5 102.5s66.5 42.5 120.5 42.5c47.333 0 82.666 -14.667 105.999 -44s35 -63.666 35 -102.999c0 -44.667 -17.5 -86.334 -52.5 -125.001s-85.333 -69.5 -151 -92.5s-139.834 -34.5 -222.501 -34.5s-156.834 11.5 -222.501 34.5s-116 53.833 -151 92.5
s-52.5 80.334 -52.5 125.001c0 38.667 11.667 72.834 35 102.501s58.666 44.5 105.999 44.5c55.333 0 95.833 -14.167 121.5 -42.5s38.5 -62.5 38.5 -102.5c0 -37.333 -14.5 -65.166 -43.5 -83.499s-65.167 -27.5 -108.5 -27.5c47.333 -62.667 139.666 -94 276.999 -94z" />
    <glyph glyph-name="afii10057" unicode="&#xa3;" horiz-adv-x="1364" 
d="M532 1380h-204v54h975v-54h-152v-919c0 -131.333 -31.333 -233.5 -94 -306.5s-137.334 -122.167 -224.001 -147.5s-174 -38 -262 -38c-91.333 0 -178.166 13.5 -260.499 40.5s-149.166 67.833 -200.499 122.5s-77 120 -77 196c0 84.667 26.167 148.167 78.5 190.5
s112.166 63.5 179.499 63.5c44.667 0 85.834 -9.5 123.501 -28.5s67.167 -46.167 88.5 -81.5s32 -76 32 -122c0 -73.333 -24.333 -128.5 -73 -165.5s-108.334 -55.5 -179.001 -55.5c-12 0 -30.667 1.33301 -56 4c16.667 -22 42.334 -39.5 77.001 -52.5
s69.334 -19.5 104.001 -19.5c56 0 106.833 12 152.5 36s82.167 59.333 109.5 106s41 102 41 166c0 40 -6.33301 79.667 -19 119s-32.334 73.833 -59.001 103.5s-60.334 52.167 -101.001 67.5v721z" />
    <glyph glyph-name="currency" unicode="&#xa4;" 
 />
    <glyph glyph-name="afii10050" unicode="&#xa5;" horiz-adv-x="1343" 
d="M233 53v1327h-151v54h688c74 0 145.5 12.667 214.5 38s127.333 62.5 175 111.5s80.167 108.167 97.5 177.5h54v-381h-459v-1327h184v-53h-954v53h151z" />
    <glyph glyph-name="brokenbar" unicode="&#xa6;" horiz-adv-x="737" 
d="M369 588c-48 0 -90.333 8.33301 -127 25s-65.667 41.5 -87 74.5s-32 71.5 -32 115.5c0 66.667 23 119.167 69 157.5s105 57.5 177 57.5c48 0 90.167 -8.33301 126.5 -25s65.166 -41.5 86.499 -74.5s32 -71.5 32 -115.5s-10.667 -82.5 -32 -115.5
s-50.166 -57.833 -86.499 -74.5s-78.5 -25 -126.5 -25zM369 -31c-48 0 -90.334 8.33496 -127.001 25.002s-65.667 41.5 -87 74.5s-32 71.5 -32 115.5c0 68 23 120.833 69 158.5s105 56.5 177 56.5c47.333 0 89.5 -8.33301 126.5 -25s66 -41.334 87 -74.001
s31.5 -71.334 31.5 -116.001c0 -44 -10.667 -82.5 -32 -115.5s-50.166 -57.833 -86.499 -74.5s-78.5 -25 -126.5 -25z" />
    <glyph glyph-name="section" unicode="&#xa7;" horiz-adv-x="1516" 
d="M389 784c-68 41.333 -118.835 86.498 -152.502 135.498s-50.5 107.167 -50.5 174.5c0 72.667 20.333 137 61 193s104.834 99.5 192.501 130.5s199.167 46.5 334.5 46.5c230.667 0 384.667 -25.667 462 -77s116 -106.666 116 -165.999c0 -45.333 -17 -86.166 -51 -122.499
s-91 -54.5 -171 -54.5c-85.333 0 -148.166 19.167 -188.499 57.5s-60.5 81.5 -60.5 129.5c0 40.667 15.667 73.5 47 98.5s67.333 39.167 108 42.5c-48 26 -108 39 -180 39c-80 0 -143.667 -8.33301 -191 -25s-79.5 -36.667 -96.5 -60s-25.5 -47 -25.5 -71
c0 -40 14.833 -73.833 44.5 -101.5s71.5 -52.5 125.5 -74.5l422 -170c50 -20.667 93 -42.5 129 -65.5s66.5 -54.167 91.5 -93.5s37.5 -86.666 37.5 -141.999c0 -86 -26.5 -157.5 -79.5 -214.5s-112.5 -100.833 -178.5 -131.5c35.333 -14 70.5 -35.333 105.5 -64
s64.667 -66.667 89 -114s36.5 -103.333 36.5 -168c0 -93.333 -26 -171.333 -78 -234s-122.833 -109 -212.5 -139s-190.167 -45 -301.5 -45c-146.667 0 -266.167 13.5 -358.5 40.5s-157.333 61 -195 102s-56.5 84.5 -56.5 130.5c0 56 24.167 103 72.5 141
s114.833 57 199.5 57c89.333 0 155 -20.5 197 -61.5s63 -86.5 63 -136.5c0 -35.333 -15 -68.5 -45 -99.5s-74.333 -50.5 -133 -58.5c20.667 -20.667 44.667 -36.167 72 -46.5s65.666 -15.5 114.999 -15.5c110.667 0 188.5 19.667 233.5 59s67.5 84.666 67.5 135.999
c0 55.333 -21.167 101.333 -63.5 138s-105.833 72.667 -190.5 108l-404 164c-61.333 26 -114.166 62 -158.499 108s-66.5 106.667 -66.5 182c0 81.333 27.5 150.5 82.5 207.5s116.167 100.5 183.5 130.5zM468.998 529.998l598 -241c56 28.667 84 64 84 106
c0 32.667 -10.833 58.334 -32.5 77.001s-44.167 32.667 -67.5 42l-598 242c-56 -30 -84 -65.667 -84 -107c0 -52.667 33.333 -92.334 100 -119.001z" />
    <glyph glyph-name="afii10023" unicode="&#xa8;" horiz-adv-x="1638" 
d="M238 53l-0.00292969 1327h-152v54h1389v-512h-54c-44 305.333 -220 458 -528 458h-37v-628h29c94.667 0 164 30.333 208 91s66 132 66 214h53v-664h-53c0 82 -22 153.333 -66 214s-113.333 91 -208 91h-29v-645c107.333 0 198.333 14.667 273 44
s134.334 67.833 179.001 115.5s79.334 101.667 104.001 162s41.334 119.833 50.001 178.5h54v-553h-1434v53h156zM480.997 1720h82c53.333 0 97.5 -6.66699 132.5 -20s52.5 -44 52.5 -92c0 -48.667 -18 -79.667 -54 -93s-79.667 -20 -131 -20h-82
c-50.667 0 -94 6.66699 -130 20s-54 44.333 -54 93c0 48 17.5 78.667 52.5 92s78.833 20 131.5 20zM1075 1720h82c53.333 0 97.333 -6.66699 132 -20s52 -44 52 -92c0 -48.667 -17.833 -79.667 -53.5 -93s-79.167 -20 -130.5 -20h-82c-50.667 0 -94 6.66699 -130 20
s-54 44.333 -54 93c0 48 17.5 78.667 52.5 92s78.833 20 131.5 20z" />
    <glyph glyph-name="copyright" unicode="&#xa9;" 
 />
    <glyph glyph-name="afii10053" unicode="&#xaa;" horiz-adv-x="1536" 
d="M1425 1495l23.002 -532.003h-53c-15.333 70.667 -43.333 138 -84 202s-91 115.5 -151 154.5s-124.333 58.5 -193 58.5c-98.667 0 -162.334 -32.5 -191.001 -97.5s-43 -136.167 -43 -213.5v-289h477v-53h-477v-322c0 -92.667 21.667 -167.667 65 -225s108.333 -86 195 -86
c68 0 127.667 14.167 179 42.5s94 65.166 128 110.499s60.667 93.5 80 144.5s33.666 99.5 42.999 145.5l52 -13c-10.667 -61.333 -28.334 -122.666 -53.001 -183.999s-60.167 -120 -106.5 -176s-108 -102.167 -185 -138.5s-169.167 -54.5 -276.5 -54.5
c-152 0 -286.667 34.333 -404 103s-208 160.334 -272 275.001s-96 238 -96 370c0 110 20.333 211.333 61 304s97.334 172.334 170.001 239.001s155 117.334 247 152.001s190 52 294 52c131.333 0 249.333 -31.333 354 -94l164 125h53z" />
    <glyph glyph-name="guillemotleft" unicode="&#xab;" horiz-adv-x="1270" 
d="M430 164l-328 368l328 369h246l-287 -369l287 -368h-246zM922 164l-328 368l328 369h245l-286 -369l286 -368h-245z" />
    <glyph glyph-name="logicalnot" unicode="&#xac;" 
 />
    <glyph glyph-name="registered" unicode="&#xae;" 
 />
    <glyph glyph-name="afii10056" unicode="&#xaf;" horiz-adv-x="1085" 
d="M233 53v1327h-151v54h922v-54h-152v-1327h152v-53h-922v53h151zM236 1720h81c53.333 0 97.5 -6.66699 132.5 -20s52.5 -44 52.5 -92c0 -48.667 -18 -79.667 -54 -93s-79.667 -20 -131 -20h-81c-51.333 0 -95 6.66699 -131 20s-54 44.333 -54 93c0 48 17.5 78.667 52.5 92
s79.167 20 132.5 20zM768 1720h82c53.333 0 97.333 -6.66699 132 -20s52 -44 52 -92c0 -48.667 -17.833 -79.667 -53.5 -93s-79.167 -20 -130.5 -20h-82c-51.333 0 -94.833 6.66699 -130.5 20s-53.5 44.333 -53.5 93c0 48 17.333 78.667 52 92s78.667 20 132 20z" />
    <glyph glyph-name="degree" unicode="&#xb0;" horiz-adv-x="725" 
d="M123 1223c0 47.333 11.167 89.332 33.5 125.999s52 64.667 89 84s75.833 29 116.5 29c42 0 81.333 -9.66699 118 -29s66.167 -47.333 88.5 -84s33.5 -78.667 33.5 -126c0 -42 -9.66699 -81.333 -29 -118s-47.333 -66.167 -84 -88.5s-79 -33.5 -127 -33.5
c-64 0 -119.833 21.833 -167.5 65.5s-71.5 101.834 -71.5 174.501zM246 1223c0 -35.333 11.5 -63.667 34.5 -85s50.167 -32 81.5 -32c35.333 0 63.666 11.5 84.999 34.5s32 50.5 32 82.5s-10.667 59.333 -32 82s-49.666 34 -84.999 34c-34.667 0 -62.667 -11.333 -84 -34
s-32 -50 -32 -82z" />
    <glyph glyph-name="plusminus" unicode="&#xb1;" 
 />
    <glyph glyph-name="afii10055" unicode="&#xb2;" horiz-adv-x="1163" 
d="M272 53v1325h-151v56h921v-56h-151v-1325h147v-53h-913v53h147z" />
    <glyph glyph-name="afii10103" unicode="&#xb3;" horiz-adv-x="848" 
d="M786 0h-725v49h123v889h-123v49h150c187.333 0 338.333 12.333 453 37v-975h122v-49zM225 1282c0 40.667 13.167 76.167 39.5 106.5s79.5 45.5 159.5 45.5s133.167 -15.167 159.5 -45.5s39.5 -65.833 39.5 -106.5c0 -24 -4.33301 -47 -13 -69s-28 -41.333 -58 -58
s-72.667 -25 -128 -25s-98 8.33301 -128 25s-49.333 36 -58 58s-13 45 -13 69z" />
    <glyph glyph-name="afii10098" unicode="&#xb4;" horiz-adv-x="1071" 
d="M664 938v-889h122v-49h-725v49h123v889h-123v49h578c114 0 198 31.667 252 95s88 135.333 102 216h49v-360h-378z" />
    <glyph glyph-name="mu" unicode="&#xb5;" horiz-adv-x="1567" 
d="M1364 1024v-857.998c0 -40 16.333 -60 49 -60c19.333 0 40 11.667 62 35l30 -32c-75.333 -89.333 -183.666 -134 -324.999 -134c-62.667 0 -117.167 14.167 -163.5 42.5s-86.166 69.5 -119.499 123.5c-52 -110.667 -126.333 -166 -223 -166
c-72.667 0 -131.334 30.333 -176.001 91h-27c49.333 -82.667 74 -176.334 74 -281.001c0 -49.333 -11.667 -90 -35 -122s-53.833 -55.5 -91.5 -70.5s-76.167 -22.5 -115.5 -22.5c-62.667 0 -118.667 19.667 -168 59s-74 98 -74 176c0 58 5.66699 110.5 17 157.5
s28.333 104.5 51 172.5c35.333 102 58.166 179.5 68.499 232.5s15.5 108.833 15.5 167.5v452c114 0 207 2.83301 279 8.5s138.667 15.167 200 28.5v-786c0 -34 5.5 -61.667 16.5 -83s33.5 -32 67.5 -32c46.667 0 76.5 20.167 89.5 60.5s19.5 80.166 19.5 119.499v684
c212 0 371.667 12.333 479 37z" />
    <glyph glyph-name="paragraph" unicode="&#xb6;" horiz-adv-x="1352" 
d="M1270 1434l0.00390625 -54.0039h-205v-1480c0 -157.333 -48.167 -263.666 -144.5 -318.999s-199.833 -83 -310.5 -83c-125.333 0 -222.5 22 -291.5 66s-103.5 103.333 -103.5 178c0 38.667 7.83301 76.334 23.5 113.001s40.167 66.667 73.5 90s74.666 35 123.999 35
c66 0 117.333 -20.167 154 -60.5s55 -87.833 55 -142.5c0 -46 -11.667 -85.5 -35 -118.5s-54 -53.5 -92 -61.5c25.333 -22 59.666 -33 102.999 -33c64 0 106.167 23 126.5 69s30.5 94 30.5 144v694c-166.667 0 -302 23 -406 69s-178.333 104.833 -223 176.5
s-67 146.834 -67 225.501c0 58.667 10.5 116.167 31.5 172.5s57.667 108.833 110 157.5s126.666 87.834 222.999 117.501s215.166 44.5 356.499 44.5h467zM840.004 1380l0.000976562 -1601c0 -47.333 -5 -87.833 -15 -121.5s-32.333 -64.167 -67 -91.5
c79.333 16.667 140.166 55.334 182.499 116.001s63.5 133.334 63.5 218.001v1480h-164z" />
    <glyph glyph-name="afii10071" unicode="&#xb8;" horiz-adv-x="1327" 
d="M1227 297l39.0029 -34.999c-56.667 -78.667 -117.834 -139 -183.501 -181s-130.167 -70.167 -193.5 -84.5s-129 -21.5 -197 -21.5c-125.333 0 -236 21.667 -332 65s-169.833 104.333 -221.5 183s-77.5 168.334 -77.5 269.001c0 85.333 21.167 168 63.5 248
s109.666 145.333 201.999 196s208.166 76 347.499 76c136 0 247.667 -27.333 335 -82s149.833 -124.834 187.5 -210.501s56.5 -176.834 56.5 -273.501h-671v-57c0 -91.333 13.167 -169.5 39.5 -234.5s84.833 -97.5 175.5 -97.5c87.333 0 167.833 23.5 241.5 70.5
s136.5 103.5 188.5 169.5zM774.003 496.001v358c0 72.667 -32 109 -96 109s-96 -36.333 -96 -109v-358h192zM184.003 1282c0 40.667 13.167 76.167 39.5 106.5s79.5 45.5 159.5 45.5s133.167 -15.167 159.5 -45.5s39.5 -65.833 39.5 -106.5c0 -24 -4.33301 -47 -13 -69
s-28 -41.333 -58 -58s-72.667 -25 -128 -25s-98 8.33301 -128 25s-49.333 36 -58 58s-13 45 -13 69zM745.003 1282c0 40.667 13.167 76.167 39.5 106.5s79.5 45.5 159.5 45.5s133.167 -15.167 159.5 -45.5s39.5 -65.833 39.5 -106.5c0 -24 -4.33301 -47 -13 -69
s-28 -41.333 -58 -58s-72.667 -25 -128 -25s-98 8.33301 -128 25s-49.333 36 -58 58s-13 45 -13 69z" />
    <glyph glyph-name="afii61352" unicode="&#xb9;" horiz-adv-x="2621" 
d="M1524 578l0.00390625 606.003c0 186.667 95.333 280 286 280c45.333 0 87.666 -9 126.999 -27s70.666 -44 93.999 -78s35 -74.667 35 -122c0 -44.667 -9 -82.334 -27 -113.001s-41.5 -54 -70.5 -70s-59.833 -24 -92.5 -24c-52.667 0 -99 15.5 -139 46.5
s-60 75.5 -60 133.5c0 27.333 6.66699 57.666 20 90.999s42.333 56.333 87 69c-24 12.667 -46.667 19 -68 19c-36.667 0 -67.667 -16.833 -93 -50.5s-38 -84.5 -38 -152.5v-1186h-383l-536 1036v-786c0 -68 -20 -131.833 -60 -191.5s-122.667 -89.5 -248 -89.5
c-49.333 0 -95.5 9.5 -138.5 28.5s-76.667 46.167 -101 81.5s-36.5 76 -36.5 122c0 64.667 20 118 60 160s93.667 63 161 63c41.333 0 77.666 -7.66699 108.999 -23s55.833 -36.333 73.5 -63s26.5 -58 26.5 -94c0 -27.333 -4 -53 -12 -77s-20.167 -44.833 -36.5 -62.5
s-35.5 -29.834 -57.5 -36.501c21.333 -12.667 43.666 -19 66.999 -19c29.333 0 58.5 12.833 87.5 38.5s43.5 79.167 43.5 160.5v907l-43 84c-45.333 90 -118.333 135 -219 135v60h737zM1720 0.00292969v82h779v-82h-779zM2109 963.003
c89.333 0 166.666 -18.9961 232 -56.9961c65.333 -38 114.833 -88.167 148.5 -150.5s50.5 -126.5 50.5 -192.5c0 -66.667 -16.833 -130.834 -50.5 -192.501s-83.167 -111.5 -148.5 -149.5s-142.666 -57 -231.999 -57c-131.333 0 -235.833 40.167 -313.5 120.5
s-116.5 173.166 -116.5 278.499c0 48.667 9.66699 97.667 29 147s47.166 92.666 83.499 129.999s81.5 67.166 135.5 89.499s114.667 33.5 182 33.5zM2191 315.007v496c0 68 -27.333 102 -82 102c-54 0 -81 -34 -81 -102v-496c0 -68 27 -102 81 -102c54.667 0 82 34 82 102z
" />
    <glyph glyph-name="afii10101" unicode="&#xba;" horiz-adv-x="1204" 
d="M1081 1004l0.000976562 -355.001h-49c-20 87.333 -48.5 154.166 -85.5 200.499s-74 76.833 -111 91.5s-71.167 22 -102.5 22c-57.333 0 -96.833 -21.333 -118.5 -64s-32.5 -115 -32.5 -217v-141h317v-49h-317v-29c0 -46.667 1.83301 -90.5 5.5 -131.5s13.5 -81 29.5 -120
s40.833 -70.667 74.5 -95s77.5 -36.5 131.5 -36.5c54.667 0 109.167 19.833 163.5 59.5s100.166 88.834 137.499 147.501l39 -31c-48.667 -74.667 -102.5 -132.667 -161.5 -174s-118.333 -69.5 -178 -84.5s-120.5 -22.5 -182.5 -22.5c-88 0 -167.167 11 -237.5 33
s-131.333 55 -183 99s-91.167 99.333 -118.5 166s-41 142.334 -41 227.001c0 108 26.5 200.5 79.5 277.5s124.833 135.333 215.5 175s189.667 59.5 297 59.5c128 0 231.333 -25.333 310 -76l69 68h49z" />
    <glyph glyph-name="guillemotright" unicode="&#xbb;" horiz-adv-x="1270" 
d="M840 901l327 -369l-327 -368h-246l287 368l-287 369h246zM348 901l328 -369l-328 -368h-246l287 368l-287 369h246z" />
    <glyph glyph-name="afii10105" unicode="&#xbc;" horiz-adv-x="807" 
d="M184 938l-123.003 -0.00292969v49h150c187.333 0 338.333 12.333 453 37v-1149c0 -81.333 -17.5 -149.666 -52.5 -204.999s-83.667 -96.833 -146 -124.5s-134.833 -41.5 -217.5 -41.5c-77.333 0 -143.5 15.5 -198.5 46.5s-82.5 79.167 -82.5 144.5c0 56 19 99 57 129
s87.333 45 148 45c32.667 0 63.334 -6.16699 92.001 -18.5s51.834 -30.666 69.501 -54.999s26.5 -53.166 26.5 -86.499c0 -34.667 -7.16699 -65.667 -21.5 -93s-37.166 -45.333 -68.499 -54c13.333 -5.33301 29.666 -8 48.999 -8c52.667 0 92.834 19 120.501 57
s41.5 85 41.5 141c0 77.333 -30.667 140.333 -92 189c-50.667 39.333 -119 59 -205 59v938zM224.997 1282c0 40.667 13.167 76.167 39.5 106.5s79.5 45.5 159.5 45.5s133.167 -15.167 159.5 -45.5s39.5 -65.833 39.5 -106.5c0 -24 -4.33301 -47 -13 -69s-28 -41.333 -58 -58
s-72.667 -25 -128 -25s-98 8.33301 -128 25s-49.333 36 -58 58s-13 45 -13 69z" />
    <glyph glyph-name="afii10054" unicode="&#xbd;" horiz-adv-x="1700" 
d="M1481 1501l26.0029 -456.998h-53c-32.667 56.667 -75.334 108 -128.001 154s-111.334 85 -176.001 117s-133 56 -205 72s-146 24 -222 24c-98 0 -164.167 -14 -198.5 -42s-51.5 -61 -51.5 -99c0 -31.333 9.5 -57.833 28.5 -79.5s44.167 -39.334 75.5 -53.001
s68.666 -25.667 111.999 -36l136 -32.5c114 -25.333 211.167 -49.5 291.5 -72.5s159.833 -55.833 238.5 -98.5s142.167 -98.667 190.5 -168s72.5 -155.666 72.5 -258.999c0 -98 -23.833 -184.833 -71.5 -260.5s-117.667 -134.834 -210 -177.501s-202.5 -64 -330.5 -64
c-158.667 0 -294.834 13.667 -408.501 41s-209.834 58 -288.501 92l-143 -143h-53v492h53c152.667 -285.333 426.334 -428 821.001 -428c92 0 162.167 19.333 210.5 58s72.5 86 72.5 142c0 48 -17.333 87.167 -52 117.5s-75.667 54 -123 71s-112 36.167 -194 57.5
c-158 41.333 -270.167 71.666 -336.5 90.999s-139.333 49.333 -219 90s-143.5 92.167 -191.5 154.5s-72 137.5 -72 225.5c0 85.333 23.167 160.833 69.5 226.5s114.833 116.667 205.5 153s199 54.5 325 54.5c108.667 0 209.334 -8.83301 302.001 -26.5
s186 -44.167 280 -79.5l163 143h54z" />
    <glyph glyph-name="afii10102" unicode="&#xbe;" horiz-adv-x="1282" 
d="M1110 1004l0.00488281 -282.998h-49c-34.667 70 -90 125.333 -166 166c-94 50.667 -206 76 -336 76c-59.333 0 -100.5 -8.66699 -123.5 -26s-34.5 -37.333 -34.5 -60c0 -21.333 9.16699 -39.666 27.5 -54.999s40.166 -27.333 65.499 -36s60.166 -17.834 104.499 -27.501
s70.166 -15.5 77.499 -17.5c126 -29.333 224.667 -57 296 -83s130.666 -64.167 177.999 -114.5s71 -116.166 71 -197.499c0 -43.333 -10 -87 -30 -131s-51.667 -84.167 -95 -120.5s-100.333 -65.333 -171 -87s-153.667 -32.5 -249 -32.5c-178 0 -324 31 -438 93l-95 -84h-49
l-33 389h50c58.667 -111.333 139.334 -196.5 242.001 -255.5s209 -88.5 319 -88.5c83.333 0 142.666 10.833 177.999 32.5s53 44.167 53 67.5c0 32.667 -13.333 55.167 -40 67.5s-69.334 24.5 -128.001 36.5c-110.667 25.333 -201.334 48.166 -272.001 68.499
s-135.5 46.5 -194.5 78.5s-105.167 72.167 -138.5 120.5s-50 106.833 -50 175.5c0 69.333 28.167 142.666 84.5 219.999s177.5 116 363.5 116c38.667 0 80 -1.16699 124 -3.5s97.333 -9.33301 160 -21s122.334 -28.834 179.001 -51.501l70 68h49z" />
    <glyph glyph-name="afii10104" unicode="&#xbf;" horiz-adv-x="918" 
d="M821 0h-725v49h123v889h-123v49h150c188 0 338.667 12.333 452 37v-975h123v-49zM29 1282c0 101.333 66 152 198 152c132.667 0 199 -50.667 199 -152s-66.333 -152 -199 -152c-132 0 -198 50.667 -198 152zM492 1282c0 101.333 66 152 198 152
c80 0 133.167 -15.167 159.5 -45.5s39.5 -65.833 39.5 -106.5c0 -24 -4.33301 -47 -13 -69s-28 -41.333 -58 -58s-72.667 -25 -128 -25c-132 0 -198 50.667 -198 152z" />
    <glyph glyph-name="afii10017" unicode="&#xc0;" horiz-adv-x="1683" 
d="M733 487l-387 0.000976562l-98 -274c-11.333 -30.667 -17 -59.334 -17 -86.001c0 -22.667 7.5 -40.667 22.5 -54s34.167 -20 57.5 -20h78v-53h-389v53c56 2 96.833 17.667 122.5 47s46.167 65 61.5 107l437 1227h417l506 -1381h107v-53h-922v53h164zM367 541.001h346
l-176 479z" />
    <glyph glyph-name="afii10017" unicode="&#x410;" horiz-adv-x="1683" 
d="M733 487l-387 0.000976562l-98 -274c-11.333 -30.667 -17 -59.334 -17 -86.001c0 -22.667 7.5 -40.667 22.5 -54s34.167 -20 57.5 -20h78v-53h-389v53c56 2 96.833 17.667 122.5 47s46.167 65 61.5 107l437 1227h417l506 -1381h107v-53h-922v53h164zM367 541.001h346
l-176 479z" />
    <glyph glyph-name="afii10018" unicode="&#xc1;" horiz-adv-x="1790" 
d="M233 1380l-151.005 0.00195312v54h1474v-471h-53c-21.333 84.667 -62.166 158.667 -122.499 222s-133.5 111.666 -219.5 144.999s-175.333 50 -268 50h-41v-528h221c148.667 0 269.334 -17.833 362.001 -53.5s159.334 -78.667 200.001 -129s66.5 -98.666 77.5 -144.999
s16.5 -89.5 16.5 -129.5c0 -85.333 -20.167 -154.833 -60.5 -208.5s-93.666 -93.834 -159.999 -120.501s-136.166 -44.334 -209.499 -53.001s-155.333 -13 -246 -13h-971v53h151v1327zM851.995 53.002l84 0.000976562c30.667 0 57 3.33301 79 10s40.667 22.667 56 48
s23 64.666 23 117.999v394c0 75.333 -13.833 123.5 -41.5 144.5s-66.5 31.5 -116.5 31.5h-84v-746z" />
    <glyph glyph-name="afii10018" unicode="&#x411;" horiz-adv-x="1790" 
d="M233 1380l-151.005 0.00195312v54h1474v-471h-53c-21.333 84.667 -62.166 158.667 -122.499 222s-133.5 111.666 -219.5 144.999s-175.333 50 -268 50h-41v-528h221c148.667 0 269.334 -17.833 362.001 -53.5s159.334 -78.667 200.001 -129s66.5 -98.666 77.5 -144.999
s16.5 -89.5 16.5 -129.5c0 -85.333 -20.167 -154.833 -60.5 -208.5s-93.666 -93.834 -159.999 -120.501s-136.166 -44.334 -209.499 -53.001s-155.333 -13 -246 -13h-971v53h151v1327zM851.995 53.002l84 0.000976562c30.667 0 57 3.33301 79 10s40.667 22.667 56 48
s23 64.666 23 117.999v394c0 75.333 -13.833 123.5 -41.5 144.5s-66.5 31.5 -116.5 31.5h-84v-746z" />
    <glyph glyph-name="afii10019" unicode="&#xc2;" horiz-adv-x="1790" 
d="M233 53l0.000976562 1327h-151v54h1120c68.667 0 140 -9.33301 214 -28s137.833 -53.167 191.5 -103.5s80.5 -118.5 80.5 -204.5c0 -123.333 -48.833 -209.333 -146.5 -258s-208.834 -76 -333.501 -82v-21c347.333 -21.333 521 -153.666 521 -396.999
c0 -130.667 -53 -220 -159 -268s-235.333 -72 -388 -72h-1100v53h151zM852.001 773.999l84 0.000976562c30.667 0 57 3.33301 79 10s40.667 22.667 56 48s23 64.666 23 117.999v254c0 75.333 -13.833 123.5 -41.5 144.5s-66.5 31.5 -116.5 31.5h-84v-606zM852.001 53
l84 0.000976562c30.667 0 57 3.33301 79 10s40.667 22.667 56 48s23 64.666 23 117.999v316c0 75.333 -13.833 123.5 -41.5 144.5s-66.5 31.5 -116.5 31.5h-84v-668z" />
    <glyph glyph-name="afii10019" unicode="&#x412;" horiz-adv-x="1790" 
d="M233 53l0.000976562 1327h-151v54h1120c68.667 0 140 -9.33301 214 -28s137.833 -53.167 191.5 -103.5s80.5 -118.5 80.5 -204.5c0 -123.333 -48.833 -209.333 -146.5 -258s-208.834 -76 -333.501 -82v-21c347.333 -21.333 521 -153.666 521 -396.999
c0 -130.667 -53 -220 -159 -268s-235.333 -72 -388 -72h-1100v53h151zM852.001 773.999l84 0.000976562c30.667 0 57 3.33301 79 10s40.667 22.667 56 48s23 64.666 23 117.999v254c0 75.333 -13.833 123.5 -41.5 144.5s-66.5 31.5 -116.5 31.5h-84v-606zM852.001 53
l84 0.000976562c30.667 0 57 3.33301 79 10s40.667 22.667 56 48s23 64.666 23 117.999v316c0 75.333 -13.833 123.5 -41.5 144.5s-66.5 31.5 -116.5 31.5h-84v-668z" />
    <glyph glyph-name="afii10020" unicode="&#xc3;" horiz-adv-x="1466" 
d="M233 53v1327h-151v54h1352v-512h-54c-10 57.333 -28.833 114.333 -56.5 171s-62.334 106.334 -104.001 149.001s-90.167 76.334 -145.5 101.001s-115.666 37 -180.999 37h-41v-1327h184v-53h-954v53h151z" />
    <glyph glyph-name="afii10020" unicode="&#x413;" horiz-adv-x="1466" 
d="M233 53v1327h-151v54h1352v-512h-54c-10 57.333 -28.833 114.333 -56.5 171s-62.334 106.334 -104.001 149.001s-90.167 76.334 -145.5 101.001s-115.666 37 -180.999 37h-41v-1327h184v-53h-954v53h151z" />
    <glyph glyph-name="afii10021" unicode="&#xc4;" horiz-adv-x="1475" 
d="M154 1434l1239 0.00195312v-54h-152v-1327h193v-483h-54c-2 50.667 -11.167 101.5 -27.5 152.5s-39.833 97.167 -70.5 138.5s-71 74.833 -121 100.5s-109.333 38.5 -178 38.5h-532c-67.333 0 -126.166 -12.833 -176.499 -38.5s-91.333 -59.667 -123 -102
s-55.5 -88.5 -71.5 -138.5s-25 -100.333 -27 -151h-53v483h31c107.333 0 187.333 62.167 240 186.5s79 320.166 79 587.499v418c0 57.333 -11.333 94.166 -34 110.499s-51 24.5 -85 24.5h-77v54zM622.999 1380h-109.001c-30 0 -54.5 -7 -73.5 -21s-28.5 -46.333 -28.5 -97
v-435c0 -142.667 -5.16699 -259.5 -15.5 -350.5s-29.666 -170.667 -57.999 -239s-70.833 -129.833 -127.5 -184.5h412v1327z" />
    <glyph glyph-name="afii10021" unicode="&#x414;" horiz-adv-x="1475" 
d="M154 1434l1239 0.00195312v-54h-152v-1327h193v-483h-54c-2 50.667 -11.167 101.5 -27.5 152.5s-39.833 97.167 -70.5 138.5s-71 74.833 -121 100.5s-109.333 38.5 -178 38.5h-532c-67.333 0 -126.166 -12.833 -176.499 -38.5s-91.333 -59.667 -123 -102
s-55.5 -88.5 -71.5 -138.5s-25 -100.333 -27 -151h-53v483h31c107.333 0 187.333 62.167 240 186.5s79 320.166 79 587.499v418c0 57.333 -11.333 94.166 -34 110.499s-51 24.5 -85 24.5h-77v54zM622.999 1380h-109.001c-30 0 -54.5 -7 -73.5 -21s-28.5 -46.333 -28.5 -97
v-435c0 -142.667 -5.16699 -259.5 -15.5 -350.5s-29.666 -170.667 -57.999 -239s-70.833 -129.833 -127.5 -184.5h412v1327z" />
    <glyph glyph-name="afii10022" unicode="&#xc5;" horiz-adv-x="1638" 
d="M238 53l-0.00292969 1327h-152v54h1389v-512h-54c-44 305.333 -220 458 -528 458h-37v-628h29c94.667 0 164 30.333 208 91s66 132 66 214h53v-664h-53c0 82 -22 153.333 -66 214s-113.333 91 -208 91h-29v-645c107.333 0 198.333 14.667 273 44
s134.334 67.833 179.001 115.5s79.334 101.667 104.001 162s41.334 119.833 50.001 178.5h54v-553h-1434v53h156z" />
    <glyph glyph-name="afii10022" unicode="&#x415;" horiz-adv-x="1638" 
d="M238 53l-0.00292969 1327h-152v54h1389v-512h-54c-44 305.333 -220 458 -528 458h-37v-628h29c94.667 0 164 30.333 208 91s66 132 66 214h53v-664h-53c0 82 -22 153.333 -66 214s-113.333 91 -208 91h-29v-645c107.333 0 198.333 14.667 273 44
s134.334 67.833 179.001 115.5s79.334 101.667 104.001 162s41.334 119.833 50.001 178.5h54v-553h-1434v53h156z" />
    <glyph glyph-name="afii10024" unicode="&#xc6;" horiz-adv-x="2789" 
d="M1085 53l0.00292969 684.005h-28c-46.667 0 -81.167 -4.83301 -103.5 -14.5s-39.333 -31.667 -51 -66s-20.167 -92.166 -25.5 -173.499c-3.33301 -75.333 -14 -149.333 -32 -222s-57.667 -139.5 -119 -200.5s-151 -91.5 -269 -91.5c-142 0 -283.333 73.667 -424 221
l37 37c44 -50 87 -75 129 -75c22.667 0 39.5 8.66699 50.5 26s17.833 36.166 20.5 56.499s5.66699 56.166 9 107.499c2.66699 85.333 17.667 156.166 45 212.499s87.166 103.833 179.499 142.5s230.5 61.667 414.5 69c-52 26 -84.833 59.333 -98.5 100
s-21.834 99.334 -24.501 176.001c0 6 -0.333008 19.167 -1 39.5s-2.33398 39.333 -5.00098 57s-6.5 32 -11.5 43s-12.167 16.5 -21.5 16.5c-10.667 0 -17.834 -15.167 -21.501 -45.5s-5.5 -45.833 -5.5 -46.5c-10 -48.667 -35.167 -89.834 -75.5 -123.501
s-93.5 -50.5 -159.5 -50.5c-76.667 0 -136.834 25.333 -180.501 76s-65.5 112.667 -65.5 186c0 54.667 11.167 102.167 33.5 142.5s54.666 71.666 96.999 93.999s90.833 33.5 145.5 33.5c75.333 0 135.5 -16 180.5 -48s77.333 -71.667 97 -119s32 -92.5 37 -135.5
s8.16699 -90.833 9.5 -143.5c4.66699 -94 26.667 -155.333 66 -184s88.333 -43 147 -43h24v589h-151v54h921v-54h-151v-589h25c58 0 106.833 14.167 146.5 42.5s61.834 89.833 66.501 184.5c4 80 11.167 148.5 21.5 205.5s39 111.333 86 163s118.833 77.5 215.5 77.5
c42.667 0 80.834 -6.16699 114.5 -18.5c33.667 -12.333 62.834 -30.333 87.5 -54c24.667 -23.667 43.334 -52.334 56 -86.001c12.667 -33.667 19 -70.834 19 -111.501c0 -74 -21.667 -136.167 -65 -186.5s-103.666 -75.5 -181 -75.5c-66 0 -119.167 16.667 -159.5 50
s-65.833 74.666 -76.5 123.999c-1.33301 6 -2.66602 17.333 -3.99902 34s-3.5 30.5 -6.5 41.5s-8.16699 16.5 -15.5 16.5c-9.33301 0 -16.666 -6 -21.999 -18s-9.16602 -28 -11.499 -48s-3.66602 -38.333 -3.99902 -55s-0.833008 -28.334 -1.5 -35.001
c-1.33301 -75.333 -9 -133.666 -23 -174.999s-47.333 -75 -100 -101c184 -7.33301 322.167 -30.333 414.5 -69s152.166 -86.167 179.5 -142.5c27.333 -56.333 42.333 -127.166 45 -212.499c1.33301 -60 6.83301 -106.667 16.5 -140s30.834 -50 63.5 -50
c40.667 0 83.667 25 129 75l37 -37c-77.333 -81.333 -150.5 -138.5 -219.5 -171.5s-137.167 -49.5 -204.5 -49.5c-88.667 0 -161.834 18.833 -219.501 56.5s-100.334 84.167 -128.001 139.5s-45.667 107 -54 155s-14.5 102.333 -18.5 163
c-5.33301 81.333 -13.833 139 -25.5 173s-28.5 56 -50.5 66s-56.667 15 -104 15h-29v-684h151v-53h-921v53h151z" />
    <glyph glyph-name="afii10024" unicode="&#x416;" horiz-adv-x="2789" 
d="M1085 53l0.00292969 684.005h-28c-46.667 0 -81.167 -4.83301 -103.5 -14.5s-39.333 -31.667 -51 -66s-20.167 -92.166 -25.5 -173.499c-3.33301 -75.333 -14 -149.333 -32 -222s-57.667 -139.5 -119 -200.5s-151 -91.5 -269 -91.5c-142 0 -283.333 73.667 -424 221
l37 37c44 -50 87 -75 129 -75c22.667 0 39.5 8.66699 50.5 26s17.833 36.166 20.5 56.499s5.66699 56.166 9 107.499c2.66699 85.333 17.667 156.166 45 212.499s87.166 103.833 179.499 142.5s230.5 61.667 414.5 69c-52 26 -84.833 59.333 -98.5 100
s-21.834 99.334 -24.501 176.001c0 6 -0.333008 19.167 -1 39.5s-2.33398 39.333 -5.00098 57s-6.5 32 -11.5 43s-12.167 16.5 -21.5 16.5c-10.667 0 -17.834 -15.167 -21.501 -45.5s-5.5 -45.833 -5.5 -46.5c-10 -48.667 -35.167 -89.834 -75.5 -123.501
s-93.5 -50.5 -159.5 -50.5c-76.667 0 -136.834 25.333 -180.501 76s-65.5 112.667 -65.5 186c0 54.667 11.167 102.167 33.5 142.5s54.666 71.666 96.999 93.999s90.833 33.5 145.5 33.5c75.333 0 135.5 -16 180.5 -48s77.333 -71.667 97 -119s32 -92.5 37 -135.5
s8.16699 -90.833 9.5 -143.5c4.66699 -94 26.667 -155.333 66 -184s88.333 -43 147 -43h24v589h-151v54h921v-54h-151v-589h25c58 0 106.833 14.167 146.5 42.5s61.834 89.833 66.501 184.5c4 80 11.167 148.5 21.5 205.5s39 111.333 86 163s118.833 77.5 215.5 77.5
c42.667 0 80.834 -6.16699 114.5 -18.5c33.667 -12.333 62.834 -30.333 87.5 -54c24.667 -23.667 43.334 -52.334 56 -86.001c12.667 -33.667 19 -70.834 19 -111.501c0 -74 -21.667 -136.167 -65 -186.5s-103.666 -75.5 -181 -75.5c-66 0 -119.167 16.667 -159.5 50
s-65.833 74.666 -76.5 123.999c-1.33301 6 -2.66602 17.333 -3.99902 34s-3.5 30.5 -6.5 41.5s-8.16699 16.5 -15.5 16.5c-9.33301 0 -16.666 -6 -21.999 -18s-9.16602 -28 -11.499 -48s-3.66602 -38.333 -3.99902 -55s-0.833008 -28.334 -1.5 -35.001
c-1.33301 -75.333 -9 -133.666 -23 -174.999s-47.333 -75 -100 -101c184 -7.33301 322.167 -30.333 414.5 -69s152.166 -86.167 179.5 -142.5c27.333 -56.333 42.333 -127.166 45 -212.499c1.33301 -60 6.83301 -106.667 16.5 -140s30.834 -50 63.5 -50
c40.667 0 83.667 25 129 75l37 -37c-77.333 -81.333 -150.5 -138.5 -219.5 -171.5s-137.167 -49.5 -204.5 -49.5c-88.667 0 -161.834 18.833 -219.501 56.5s-100.334 84.167 -128.001 139.5s-45.667 107 -54 155s-14.5 102.333 -18.5 163
c-5.33301 81.333 -13.833 139 -25.5 173s-28.5 56 -50.5 66s-56.667 15 -104 15h-29v-684h151v-53h-921v53h151z" />
    <glyph glyph-name="afii10025" unicode="&#xc7;" horiz-adv-x="1444" 
d="M377 778l213.004 -0.000976562c30.667 0 57 3.33301 79 10s40.667 22.667 56 48s23 64.666 23 117.999v299c0 41.333 -12.833 73.5 -38.5 96.5s-59.5 34.5 -101.5 34.5c-66.667 0 -128.834 -20.667 -186.501 -62s-106 -95.833 -145 -163.5s-65.5 -139.834 -79.5 -216.501
h-54v533h54l159 -113c53.333 32.667 112.666 57.834 177.999 75.501s140 26.5 224 26.5c118 0 215.167 -11.667 291.5 -35s135.833 -53.5 178.5 -90.5s72.167 -75.833 88.5 -116.5s24.5 -82 24.5 -124c0 -82.667 -30.833 -158.334 -92.5 -227.001
s-183.5 -106.334 -365.5 -113.001v-21c98 -5.33301 180.667 -20.833 248 -46.5s119 -57 155 -94s61 -77 75 -120s21 -88.5 21 -136.5c0 -98.667 -37.333 -175.5 -112 -230.5s-161.334 -92.167 -260.001 -111.5s-192.334 -29 -281.001 -29
c-121.333 0 -226.833 8.83301 -316.5 26.5s-161.5 41.834 -215.5 72.501s-93.5 65.834 -118.5 105.501s-37.5 82.834 -37.5 129.501c0 48 8.83301 93.333 26.5 136s46 77.834 85 105.501s88.5 41.5 148.5 41.5c82 0 144.5 -22.333 187.5 -67s64.5 -96 64.5 -154
c0 -166.667 -81.333 -250 -244 -250c36 -58.667 114.667 -88 236 -88c65.333 0 115.5 12.5 150.5 37.5s52.5 85.5 52.5 181.5v303c0 75.333 -13.833 123.5 -41.5 144.5s-66.5 31.5 -116.5 31.5h-213v53z" />
    <glyph glyph-name="afii10025" unicode="&#x417;" horiz-adv-x="1444" 
d="M377 778l213.004 -0.000976562c30.667 0 57 3.33301 79 10s40.667 22.667 56 48s23 64.666 23 117.999v299c0 41.333 -12.833 73.5 -38.5 96.5s-59.5 34.5 -101.5 34.5c-66.667 0 -128.834 -20.667 -186.501 -62s-106 -95.833 -145 -163.5s-65.5 -139.834 -79.5 -216.501
h-54v533h54l159 -113c53.333 32.667 112.666 57.834 177.999 75.501s140 26.5 224 26.5c118 0 215.167 -11.667 291.5 -35s135.833 -53.5 178.5 -90.5s72.167 -75.833 88.5 -116.5s24.5 -82 24.5 -124c0 -82.667 -30.833 -158.334 -92.5 -227.001
s-183.5 -106.334 -365.5 -113.001v-21c98 -5.33301 180.667 -20.833 248 -46.5s119 -57 155 -94s61 -77 75 -120s21 -88.5 21 -136.5c0 -98.667 -37.333 -175.5 -112 -230.5s-161.334 -92.167 -260.001 -111.5s-192.334 -29 -281.001 -29
c-121.333 0 -226.833 8.83301 -316.5 26.5s-161.5 41.834 -215.5 72.501s-93.5 65.834 -118.5 105.501s-37.5 82.834 -37.5 129.501c0 48 8.83301 93.333 26.5 136s46 77.834 85 105.501s88.5 41.5 148.5 41.5c82 0 144.5 -22.333 187.5 -67s64.5 -96 64.5 -154
c0 -166.667 -81.333 -250 -244 -250c36 -58.667 114.667 -88 236 -88c65.333 0 115.5 12.5 150.5 37.5s52.5 85.5 52.5 181.5v303c0 75.333 -13.833 123.5 -41.5 144.5s-66.5 31.5 -116.5 31.5h-213v53z" />
    <glyph glyph-name="afii10026" unicode="&#xc8;" horiz-adv-x="1946" 
d="M233 53v1327h-151v54h844v-54h-74v-946h8l234 848v98h-74v54h844v-54h-152v-1327h152v-53h-844v53h74v1004h-9l-233 -848v-156h74v-53h-844v53h151z" />
    <glyph glyph-name="afii10026" unicode="&#x418;" horiz-adv-x="1946" 
d="M233 53v1327h-151v54h844v-54h-74v-946h8l234 848v98h-74v54h844v-54h-152v-1327h152v-53h-844v53h74v1004h-9l-233 -848v-156h74v-53h-844v53h151z" />
    <glyph glyph-name="afii10027" unicode="&#xc9;" horiz-adv-x="1946" 
d="M233 53v1327h-151v54h844v-54h-74v-946h8l234 848v98h-74v54h844v-54h-152v-1327h152v-53h-844v53h74v1004h-9l-233 -848v-156h74v-53h-844v53h151zM973 1569c126.667 0 213.332 9.33008 259.999 27.9971c-26.667 0.666992 -49 8.5 -67 23.5s-27 32.5 -27 52.5
c0 23.333 13 43.833 39 61.5s71.667 26.5 137 26.5c58.667 0 101.667 -9.83301 129 -29.5s41 -43.167 41 -70.5c0 -33.333 -17 -60.166 -51 -80.499s-77.5 -35.166 -130.5 -44.499s-104.667 -15 -155 -17s-108.833 -3 -175.5 -3c-67.333 0 -125.833 1 -175.5 3
s-101.167 7.66699 -154.5 17s-97 24.333 -131 45s-51 47.334 -51 80.001c0 27.333 13.667 50.833 41 70.5s70.333 29.5 129 29.5c66 0 111.833 -8.83301 137.5 -26.5s38.5 -38.167 38.5 -61.5c0 -20 -9 -37.5 -27 -52.5s-40.333 -22.833 -67 -23.5
c46.667 -18.667 133.334 -28 260.001 -28z" />
    <glyph glyph-name="afii10027" unicode="&#x419;" horiz-adv-x="1946" 
d="M233 53v1327h-151v54h844v-54h-74v-946h8l234 848v98h-74v54h844v-54h-152v-1327h152v-53h-844v53h74v1004h-9l-233 -848v-156h74v-53h-844v53h151zM973 1569c126.667 0 213.332 9.33008 259.999 27.9971c-26.667 0.666992 -49 8.5 -67 23.5s-27 32.5 -27 52.5
c0 23.333 13 43.833 39 61.5s71.667 26.5 137 26.5c58.667 0 101.667 -9.83301 129 -29.5s41 -43.167 41 -70.5c0 -33.333 -17 -60.166 -51 -80.499s-77.5 -35.166 -130.5 -44.499s-104.667 -15 -155 -17s-108.833 -3 -175.5 -3c-67.333 0 -125.833 1 -175.5 3
s-101.167 7.66699 -154.5 17s-97 24.333 -131 45s-51 47.334 -51 80.001c0 27.333 13.667 50.833 41 70.5s70.333 29.5 129 29.5c66 0 111.833 -8.83301 137.5 -26.5s38.5 -38.167 38.5 -61.5c0 -20 -9 -37.5 -27 -52.5s-40.333 -22.833 -67 -23.5
c46.667 -18.667 133.334 -28 260.001 -28z" />
    <glyph glyph-name="afii10028" unicode="&#xca;" horiz-adv-x="1958" 
d="M852 791l44.998 0.00292969c58.667 0 107.667 14.167 147 42.5s61.333 89.833 66 184.5c4.66699 77.333 9 131.666 13 162.999s15.667 70.333 35 117s51.5 86 96.5 118s104.833 48 179.5 48c42.667 0 80.834 -6.16699 114.501 -18.5s62.667 -30.333 87 -54
s42.833 -52.334 55.5 -86.001s19 -70.834 19 -111.501c0 -74 -21.667 -136.167 -65 -186.5s-103.666 -75.5 -180.999 -75.5c-88 0 -153.333 28.667 -196 86c-17.333 24 -28.333 45 -33 63s-9.33398 46 -14.001 84c0 22 -6.33301 33 -19 33
c-9.33301 0 -16.666 -6 -21.999 -18s-9.16602 -28 -11.499 -48s-3.66602 -38.333 -3.99902 -55s-0.833008 -28.334 -1.5 -35.001c-1.33301 -75.333 -9 -133.666 -23 -174.999s-47.333 -75 -100 -101c184 -7.33301 322.167 -30.333 414.5 -69s152.166 -86.167 179.499 -142.5
s42.333 -127.166 45 -212.499c1.33301 -60 6.83301 -106.667 16.5 -140s30.834 -50 63.501 -50c42 0 85 25 129 75l37 -37c-77.333 -81.333 -150.5 -138.5 -219.5 -171.5s-137.167 -49.5 -204.5 -49.5c-88.667 0 -161.834 18.833 -219.501 56.5
s-100.334 84.167 -128.001 139.5s-45.667 107 -54 155s-14.5 102.333 -18.5 163c-5.33301 81.333 -13.833 139.166 -25.5 173.499s-28.667 56.333 -51 66s-56.833 14.5 -103.5 14.5h-49v-684h152v-53h-922v53h151v1327h-151v54h922v-54h-152v-589z" />
    <glyph glyph-name="afii10028" unicode="&#x41a;" horiz-adv-x="1958" 
d="M852 791l44.998 0.00292969c58.667 0 107.667 14.167 147 42.5s61.333 89.833 66 184.5c4.66699 77.333 9 131.666 13 162.999s15.667 70.333 35 117s51.5 86 96.5 118s104.833 48 179.5 48c42.667 0 80.834 -6.16699 114.501 -18.5s62.667 -30.333 87 -54
s42.833 -52.334 55.5 -86.001s19 -70.834 19 -111.501c0 -74 -21.667 -136.167 -65 -186.5s-103.666 -75.5 -180.999 -75.5c-88 0 -153.333 28.667 -196 86c-17.333 24 -28.333 45 -33 63s-9.33398 46 -14.001 84c0 22 -6.33301 33 -19 33
c-9.33301 0 -16.666 -6 -21.999 -18s-9.16602 -28 -11.499 -48s-3.66602 -38.333 -3.99902 -55s-0.833008 -28.334 -1.5 -35.001c-1.33301 -75.333 -9 -133.666 -23 -174.999s-47.333 -75 -100 -101c184 -7.33301 322.167 -30.333 414.5 -69s152.166 -86.167 179.499 -142.5
s42.333 -127.166 45 -212.499c1.33301 -60 6.83301 -106.667 16.5 -140s30.834 -50 63.501 -50c42 0 85 25 129 75l37 -37c-77.333 -81.333 -150.5 -138.5 -219.5 -171.5s-137.167 -49.5 -204.5 -49.5c-88.667 0 -161.834 18.833 -219.501 56.5
s-100.334 84.167 -128.001 139.5s-45.667 107 -54 155s-14.5 102.333 -18.5 163c-5.33301 81.333 -13.833 139.166 -25.5 173.499s-28.667 56.333 -51 66s-56.833 14.5 -103.5 14.5h-49v-684h152v-53h-922v53h151v1327h-151v54h922v-54h-152v-589z" />
    <glyph glyph-name="afii10029" unicode="&#xcb;" horiz-adv-x="1782" 
d="M426 1434l1270 -0.00292969v-54h-152v-1327h156v-53h-926v53h152v1327h-111c-30 0 -54.5 -7 -73.5 -21s-28.5 -46.333 -28.5 -97v-605c0 -115.333 -9.33301 -216.333 -28 -303s-45.834 -158.5 -81.501 -215.5s-79.167 -99.5 -130.5 -127.5s-108.666 -42 -171.999 -42
c-55.333 0 -104.666 11.833 -147.999 35.5s-76.333 56 -99 97s-34 86.5 -34 136.5c0 53.333 11.5 98.833 34.5 136.5s53.5 66.167 91.5 85.5s79.333 29 124 29c68 0 124.333 -20.5 169 -61.5s67 -96.833 67 -167.5c0 -77.333 -20 -134.666 -60 -171.999l7 -6
c54 21.333 100.5 73.833 139.5 157.5s58.5 222.834 58.5 417.501v588c0 56.667 -11.167 93.334 -33.5 110.001s-50.833 25 -85.5 25h-106v54z" />
    <glyph glyph-name="afii10029" unicode="&#x41b;" horiz-adv-x="1782" 
d="M426 1434l1270 -0.00292969v-54h-152v-1327h156v-53h-926v53h152v1327h-111c-30 0 -54.5 -7 -73.5 -21s-28.5 -46.333 -28.5 -97v-605c0 -115.333 -9.33301 -216.333 -28 -303s-45.834 -158.5 -81.501 -215.5s-79.167 -99.5 -130.5 -127.5s-108.666 -42 -171.999 -42
c-55.333 0 -104.666 11.833 -147.999 35.5s-76.333 56 -99 97s-34 86.5 -34 136.5c0 53.333 11.5 98.833 34.5 136.5s53.5 66.167 91.5 85.5s79.333 29 124 29c68 0 124.333 -20.5 169 -61.5s67 -96.833 67 -167.5c0 -77.333 -20 -134.666 -60 -171.999l7 -6
c54 21.333 100.5 73.833 139.5 157.5s58.5 222.834 58.5 417.501v588c0 56.667 -11.167 93.334 -33.5 110.001s-50.833 25 -85.5 25h-106v54z" />
    <glyph glyph-name="afii10030" unicode="&#xcc;" horiz-adv-x="2122" 
d="M737 0l-434 1270h-8v-1041c0 -74.667 15.5 -122.667 46.5 -144s68.833 -32 113.5 -32h37v-53h-410v53c60.667 0 101 18.333 121 55s30 77 30 121v1151h-151v54h772l199 -584h8l205 584h774v-54h-152v-1327h152v-53h-922v53h152v1211h-8l-439 -1264h-86z" />
    <glyph glyph-name="afii10030" unicode="&#x41c;" horiz-adv-x="2122" 
d="M737 0l-434 1270h-8v-1041c0 -74.667 15.5 -122.667 46.5 -144s68.833 -32 113.5 -32h37v-53h-410v53c60.667 0 101 18.333 121 55s30 77 30 121v1151h-151v54h772l199 -584h8l205 584h774v-54h-152v-1327h152v-53h-922v53h152v1211h-8l-439 -1264h-86z" />
    <glyph glyph-name="afii10031" unicode="&#xcd;" horiz-adv-x="1946" 
d="M852 758h242v622h-74v54h844v-54h-152v-1327h152v-53h-844v53h74v652h-242v-652h74v-53h-844v53h151v1327h-151v54h844v-54h-74v-622z" />
    <glyph glyph-name="afii10031" unicode="&#x41d;" horiz-adv-x="1946" 
d="M852 758h242v622h-74v54h844v-54h-152v-1327h152v-53h-844v53h74v652h-242v-652h74v-53h-844v53h151v1327h-151v54h844v-54h-74v-622z" />
    <glyph glyph-name="afii10032" unicode="&#xce;" horiz-adv-x="1708" 
d="M82 717c0 135.333 32.165 260.167 96.498 374.5s155.333 205 273 272s251.834 100.5 402.501 100.5s284.834 -33.5 402.501 -100.5s208.667 -157.667 273 -272s96.5 -239.166 96.5 -374.499c0 -101.333 -18 -197 -54 -287s-88 -169.5 -156 -238.5
s-150.167 -123.333 -246.5 -163s-201.5 -59.5 -315.5 -59.5c-113.333 0 -218 19.667 -314 59s-178 93.166 -246 161.499s-120.333 148 -157 239s-55 187.167 -55 288.5zM732.998 1282v-1130c0 -28.667 7.33301 -57.334 22 -86.001s47.667 -43 99 -43s84.333 14 99 42
s22 57 22 87v1130c0 30 -7.33301 59 -22 87s-47.667 42 -99 42s-84.333 -14.333 -99 -43s-22 -57.334 -22 -86.001z" />
    <glyph glyph-name="afii10032" unicode="&#x41e;" horiz-adv-x="1708" 
d="M82 717c0 135.333 32.165 260.167 96.498 374.5s155.333 205 273 272s251.834 100.5 402.501 100.5s284.834 -33.5 402.501 -100.5s208.667 -157.667 273 -272s96.5 -239.166 96.5 -374.499c0 -101.333 -18 -197 -54 -287s-88 -169.5 -156 -238.5
s-150.167 -123.333 -246.5 -163s-201.5 -59.5 -315.5 -59.5c-113.333 0 -218 19.667 -314 59s-178 93.166 -246 161.499s-120.333 148 -157 239s-55 187.167 -55 288.5zM732.998 1282v-1130c0 -28.667 7.33301 -57.334 22 -86.001s47.667 -43 99 -43s84.333 14 99 42
s22 57 22 87v1130c0 30 -7.33301 59 -22 87s-47.667 42 -99 42s-84.333 -14.333 -99 -43s-22 -57.334 -22 -86.001z" />
    <glyph glyph-name="afii10033" unicode="&#xcf;" horiz-adv-x="1925" 
d="M852 1380v-1327h74v-53h-844v53h151v1327h-151v54h1761v-54h-151v-1327h151v-53h-844v53h74v1327h-221z" />
    <glyph glyph-name="afii10033" unicode="&#x41f;" horiz-adv-x="1925" 
d="M852 1380v-1327h74v-53h-844v53h151v1327h-151v54h1761v-54h-151v-1327h151v-53h-844v53h74v1327h-221z" />
    <glyph glyph-name="afii10034" unicode="&#xd0;" horiz-adv-x="1769" 
d="M233 53v1327h-151v54h1016c164.667 0 311 -27.5 439 -82.5s192 -170.833 192 -347.5c0 -96 -21.333 -173.5 -64 -232.5s-96.5 -102.5 -161.5 -130.5s-132.167 -46.333 -201.5 -55s-137.333 -13 -204 -13h-246v-520h152v-53h-922v53h151zM852 1380v-752.999h84
c30.667 0 57 3.33301 79 10s40.667 22.667 56 48s23 64.666 23 117.999v401c0 75.333 -13.833 123.5 -41.5 144.5s-66.5 31.5 -116.5 31.5h-84z" />
    <glyph glyph-name="afii10034" unicode="&#x420;" horiz-adv-x="1769" 
d="M233 53v1327h-151v54h1016c164.667 0 311 -27.5 439 -82.5s192 -170.833 192 -347.5c0 -96 -21.333 -173.5 -64 -232.5s-96.5 -102.5 -161.5 -130.5s-132.167 -46.333 -201.5 -55s-137.333 -13 -204 -13h-246v-520h152v-53h-922v53h151zM852 1380v-752.999h84
c30.667 0 57 3.33301 79 10s40.667 22.667 56 48s23 64.666 23 117.999v401c0 75.333 -13.833 123.5 -41.5 144.5s-66.5 31.5 -116.5 31.5h-84z" />
    <glyph glyph-name="afii10035" unicode="&#xd1;" horiz-adv-x="1536" 
d="M1425 1495l23.002 -532.003h-53c-15.333 70.667 -43.333 138 -84 202s-91 115.5 -151 154.5s-124.333 58.5 -193 58.5c-98.667 0 -162.334 -32.5 -191.001 -97.5s-43 -136.167 -43 -213.5v-664c0 -92.667 21.667 -167.667 65 -225s108.333 -86 195 -86
c68 0 127.667 14.167 179 42.5s94 65.166 128 110.499s60.667 93.5 80 144.5s33.666 99.5 42.999 145.5l52 -13c-10.667 -61.333 -28.334 -122.666 -53.001 -183.999s-60.167 -120 -106.5 -176s-108 -102.167 -185 -138.5s-169.167 -54.5 -276.5 -54.5
c-152 0 -286.667 34.333 -404 103s-208 160.334 -272 275.001s-96 238 -96 370c0 110 20.333 211.333 61 304s97.334 172.334 170.001 239.001s155 117.334 247 152.001s190 52 294 52c131.333 0 249.333 -31.333 354 -94l164 125h53z" />
    <glyph glyph-name="afii10035" unicode="&#x421;" horiz-adv-x="1536" 
d="M1425 1495l23.002 -532.003h-53c-15.333 70.667 -43.333 138 -84 202s-91 115.5 -151 154.5s-124.333 58.5 -193 58.5c-98.667 0 -162.334 -32.5 -191.001 -97.5s-43 -136.167 -43 -213.5v-664c0 -92.667 21.667 -167.667 65 -225s108.333 -86 195 -86
c68 0 127.667 14.167 179 42.5s94 65.166 128 110.499s60.667 93.5 80 144.5s33.666 99.5 42.999 145.5l52 -13c-10.667 -61.333 -28.334 -122.666 -53.001 -183.999s-60.167 -120 -106.5 -176s-108 -102.167 -185 -138.5s-169.167 -54.5 -276.5 -54.5
c-152 0 -286.667 34.333 -404 103s-208 160.334 -272 275.001s-96 238 -96 370c0 110 20.333 211.333 61 304s97.334 172.334 170.001 239.001s155 117.334 247 152.001s190 52 294 52c131.333 0 249.333 -31.333 354 -94l164 125h53z" />
    <glyph glyph-name="afii10036" unicode="&#xd2;" horiz-adv-x="1618" 
d="M500 53v1327c-82 -4.66699 -152 -30.5 -210 -77.5s-103 -105.167 -135 -174.5s-52.333 -138 -61 -206h-53v512h1536v-512h-53c-8.66699 68 -29 136.667 -61 206s-77 127.5 -135 174.5s-128 72.833 -210 77.5v-1327h185v-53h-988v53h185z" />
    <glyph glyph-name="afii10036" unicode="&#x422;" horiz-adv-x="1618" 
d="M500 53v1327c-82 -4.66699 -152 -30.5 -210 -77.5s-103 -105.167 -135 -174.5s-52.333 -138 -61 -206h-53v512h1536v-512h-53c-8.66699 68 -29 136.667 -61 206s-77 127.5 -135 174.5s-128 72.833 -210 77.5v-1327h185v-53h-988v53h185z" />
    <glyph glyph-name="afii10037" unicode="&#xd3;" horiz-adv-x="1679" 
d="M184 1380h-143.002v54h975v-54h-127l309 -540l229 411c12.667 24 19 46.667 19 68c0 26 -10.5 42.667 -31.5 50s-52.167 11 -93.5 11h-37v54h395v-54c-36.667 0 -66.667 -6.66699 -90 -20s-40.666 -28 -51.999 -44s-23.333 -35.667 -36 -59l-590 -1056
c-85.333 -154.667 -213.666 -232 -384.999 -232c-144 0 -247.167 29.333 -309.5 88s-93.5 125.667 -93.5 201c0 44.667 10.5 86.5 31.5 125.5s51.5 70.5 91.5 94.5s86.333 36 139 36c53.333 0 99 -11.833 137 -35.5s66.333 -54.667 85 -93s28 -79.5 28 -123.5
c0 -42.667 -11.333 -84.667 -34 -126s-55.667 -70.333 -99 -87c18 -14.667 42.333 -22 73 -22c107.333 0 198.333 62 273 186z" />
    <glyph glyph-name="afii10037" unicode="&#x423;" horiz-adv-x="1679" 
d="M184 1380h-143.002v54h975v-54h-127l309 -540l229 411c12.667 24 19 46.667 19 68c0 26 -10.5 42.667 -31.5 50s-52.167 11 -93.5 11h-37v54h395v-54c-36.667 0 -66.667 -6.66699 -90 -20s-40.666 -28 -51.999 -44s-23.333 -35.667 -36 -59l-590 -1056
c-85.333 -154.667 -213.666 -232 -384.999 -232c-144 0 -247.167 29.333 -309.5 88s-93.5 125.667 -93.5 201c0 44.667 10.5 86.5 31.5 125.5s51.5 70.5 91.5 94.5s86.333 36 139 36c53.333 0 99 -11.833 137 -35.5s66.333 -54.667 85 -93s28 -79.5 28 -123.5
c0 -42.667 -11.333 -84.667 -34 -126s-55.667 -70.333 -99 -87c18 -14.667 42.333 -22 73 -22c107.333 0 198.333 62 273 186z" />
    <glyph glyph-name="afii10038" unicode="&#xd4;" horiz-adv-x="2437" 
d="M909 53v152.001h-161c-176.667 0 -316 25.167 -418 75.5s-172.333 114.166 -211 191.499s-58 162.333 -58 255c0 93.333 19.333 178.666 58 255.999s109 141 211 191s241.333 75 418 75h161v131h-151v54h921v-54h-151v-131h162c176 0 315.167 -25.167 417.5 -75.5
s172.666 -114 211 -191c38.333 -77 57.5 -162.167 57.5 -255.5c0 -92.667 -19.167 -177.667 -57.5 -255s-108.666 -141.166 -211 -191.499c-102.333 -50.333 -241.5 -75.5 -417.5 -75.5h-162v-152h151v-53h-921v53h151zM909 1196l-63 -0.00195312
c-30.667 0 -57 -3.33301 -79 -10s-40.667 -22.667 -56 -48s-23 -64.666 -23 -117.999v-586c0 -53.333 7.66699 -92.666 23 -117.999s34 -41.333 56 -48s48.333 -10 79 -10h63v938zM1528 1196v-937.999h63c30.667 0 57 3.33301 79 10s40.667 22.667 56 48
s23 64.666 23 117.999v586c0 75.333 -13.833 123.5 -41.5 144.5s-66.5 31.5 -116.5 31.5h-63z" />
    <glyph glyph-name="afii10038" unicode="&#x424;" horiz-adv-x="2437" 
d="M909 53v152.001h-161c-176.667 0 -316 25.167 -418 75.5s-172.333 114.166 -211 191.499s-58 162.333 -58 255c0 93.333 19.333 178.666 58 255.999s109 141 211 191s241.333 75 418 75h161v131h-151v54h921v-54h-151v-131h162c176 0 315.167 -25.167 417.5 -75.5
s172.666 -114 211 -191c38.333 -77 57.5 -162.167 57.5 -255.5c0 -92.667 -19.167 -177.667 -57.5 -255s-108.666 -141.166 -211 -191.499c-102.333 -50.333 -241.5 -75.5 -417.5 -75.5h-162v-152h151v-53h-921v53h151zM909 1196l-63 -0.00195312
c-30.667 0 -57 -3.33301 -79 -10s-40.667 -22.667 -56 -48s-23 -64.666 -23 -117.999v-586c0 -53.333 7.66699 -92.666 23 -117.999s34 -41.333 56 -48s48.333 -10 79 -10h63v938zM1528 1196v-937.999h63c30.667 0 57 3.33301 79 10s40.667 22.667 56 48
s23 64.666 23 117.999v586c0 75.333 -13.833 123.5 -41.5 144.5s-66.5 31.5 -116.5 31.5h-63z" />
    <glyph glyph-name="afii10039" unicode="&#xd5;" horiz-adv-x="1847" 
d="M1141 963l182 228.999c22 30.667 33 60 33 88c0 13.333 -3 27.5 -9 42.5s-18.167 28.333 -36.5 40s-42.166 17.5 -71.499 17.5h-72v54h543v-54c-68 -2 -126.667 -19.333 -176 -52s-98.666 -80 -147.999 -142l-215 -273l549 -860h86v-53h-952v53h145l-315 496l-223 -283
c-30 -36.667 -45 -74.667 -45 -114c0 -27.333 10.167 -50.666 30.5 -69.999s53.166 -29 98.499 -29h76v-53h-560v53c35.333 4 68.333 12.167 99 24.5s61.167 29.5 91.5 51.5s55.166 42.833 74.499 62.5s38.333 41.167 57 64.5l268 342l-497 782h-93v54h953v-54h-137z" />
    <glyph glyph-name="afii10039" unicode="&#x425;" horiz-adv-x="1847" 
d="M1141 963l182 228.999c22 30.667 33 60 33 88c0 13.333 -3 27.5 -9 42.5s-18.167 28.333 -36.5 40s-42.166 17.5 -71.499 17.5h-72v54h543v-54c-68 -2 -126.667 -19.333 -176 -52s-98.666 -80 -147.999 -142l-215 -273l549 -860h86v-53h-952v53h145l-315 496l-223 -283
c-30 -36.667 -45 -74.667 -45 -114c0 -27.333 10.167 -50.666 30.5 -69.999s53.166 -29 98.499 -29h76v-53h-560v53c35.333 4 68.333 12.167 99 24.5s61.167 29.5 91.5 51.5s55.166 42.833 74.499 62.5s38.333 41.167 57 64.5l268 342l-497 782h-93v54h953v-54h-137z" />
    <glyph glyph-name="afii10040" unicode="&#xd6;" horiz-adv-x="1925" 
d="M1073 53l-0.000976562 1327h-74v54h844v-54h-151v-1327h192v-483h-53c-2 50.667 -10.667 100.834 -26 150.501s-38.666 95.834 -69.999 138.501s-72.333 76.834 -123 102.501s-110 38.5 -178 38.5h-1352v53h151v1327h-151v54h844v-54h-74v-1327h221z" />
    <glyph glyph-name="afii10040" unicode="&#x426;" horiz-adv-x="1925" 
d="M1073 53l-0.000976562 1327h-74v54h844v-54h-151v-1327h192v-483h-53c-2 50.667 -10.667 100.834 -26 150.501s-38.666 95.834 -69.999 138.501s-72.333 76.834 -123 102.501s-110 38.5 -178 38.5h-1352v53h151v1327h-151v54h844v-54h-74v-1327h221z" />
    <glyph glyph-name="afii10041" unicode="&#xd7;" horiz-adv-x="1884" 
d="M1032 53l-0.00292969 553c-45.333 -10.667 -93.166 -19.667 -143.499 -27s-99.666 -12.833 -147.999 -16.5s-91.833 -5.5 -130.5 -5.5c-171.333 0 -283.666 33.833 -336.999 101.5s-80 141.167 -80 220.5v501h-152v54h844v-54h-74v-610c0 -46 11.667 -79 35 -99
s53.333 -30 90 -30c32.667 0 64.667 6 96 18v721h-74v54h844v-54h-151v-1327h151v-53h-975v53h205z" />
    <glyph glyph-name="afii10041" unicode="&#x427;" horiz-adv-x="1884" 
d="M1032 53l-0.00292969 553c-45.333 -10.667 -93.166 -19.667 -143.499 -27s-99.666 -12.833 -147.999 -16.5s-91.833 -5.5 -130.5 -5.5c-171.333 0 -283.666 33.833 -336.999 101.5s-80 141.167 -80 220.5v501h-152v54h844v-54h-74v-610c0 -46 11.667 -79 35 -99
s53.333 -30 90 -30c32.667 0 64.667 6 96 18v721h-74v54h844v-54h-151v-1327h151v-53h-975v53h205z" />
    <glyph glyph-name="afii10042" unicode="&#xd8;" horiz-adv-x="2765" 
d="M1073 53v1327h-74v54h766v-54h-73v-1327h221v1327h-74v54h844v-54h-152v-1327h152v-53h-2601v53h151v1327h-151v54h844v-54h-74v-1327h221z" />
    <glyph glyph-name="afii10042" unicode="&#x428;" horiz-adv-x="2765" 
d="M1073 53v1327h-74v54h766v-54h-73v-1327h221v1327h-74v54h844v-54h-152v-1327h152v-53h-2601v53h151v1327h-151v54h844v-54h-74v-1327h221z" />
    <glyph glyph-name="afii10043" unicode="&#xd9;" horiz-adv-x="2765" 
d="M1073 53v1327h-74v54h766v-54h-73v-1327h221v1327h-74v54h844v-54h-152v-1327h193v-483h-53c-2 51.333 -10.833 101.833 -26.5 151.5s-39.334 95.667 -71 138c-31.667 42.333 -72.5 76.333 -122.5 102s-109.333 38.5 -178 38.5h-2191v53h151v1327h-151v54h844v-54h-74
v-1327h221z" />
    <glyph glyph-name="afii10043" unicode="&#x429;" horiz-adv-x="2765" 
d="M1073 53v1327h-74v54h766v-54h-73v-1327h221v1327h-74v54h844v-54h-152v-1327h193v-483h-53c-2 51.333 -10.833 101.833 -26.5 151.5s-39.334 95.667 -71 138c-31.667 42.333 -72.5 76.333 -122.5 102s-109.333 38.5 -178 38.5h-2191v53h151v1327h-151v54h844v-54h-74
v-1327h221z" />
    <glyph glyph-name="afii10044" unicode="&#xda;" horiz-adv-x="2036" 
d="M500 53v1327c-82 -4.66699 -152 -30.5 -210 -77.5s-103 -105.167 -135 -174.5s-52.333 -138 -61 -206h-53v512h1229v-54h-152v-520h246c420.667 0 631 -142 631 -426c0 -99.333 -24.167 -181.5 -72.5 -246.5s-114.5 -112.5 -198.5 -142.5s-178 -45 -282 -45h-1094v53h152
zM1118 53l84 0.000976562c30.667 0 57 3.33301 79 10s40.667 22.667 56 48s23 64.666 23 117.999v402c0 75.333 -13.833 123.5 -41.5 144.5s-66.5 31.5 -116.5 31.5h-84v-754z" />
    <glyph glyph-name="afii10044" unicode="&#x42a;" horiz-adv-x="2036" 
d="M500 53v1327c-82 -4.66699 -152 -30.5 -210 -77.5s-103 -105.167 -135 -174.5s-52.333 -138 -61 -206h-53v512h1229v-54h-152v-520h246c420.667 0 631 -142 631 -426c0 -99.333 -24.167 -181.5 -72.5 -246.5s-114.5 -112.5 -198.5 -142.5s-178 -45 -282 -45h-1094v53h152
zM1118 53l84 0.000976562c30.667 0 57 3.33301 79 10s40.667 22.667 56 48s23 64.666 23 117.999v402c0 75.333 -13.833 123.5 -41.5 144.5s-66.5 31.5 -116.5 31.5h-84v-754z" />
    <glyph glyph-name="afii10045" unicode="&#xdb;" horiz-adv-x="2703" 
d="M233 53v1327h-151v54h922v-54h-152v-520h246c420.667 0 631 -142 631 -426c0 -99.333 -24.167 -181.5 -72.5 -246.5s-114.5 -112.5 -198.5 -142.5s-178 -45 -282 -45h-1094v53h151zM852 53l84 0.000976562c30.667 0 57 3.33301 79 10s40.667 22.667 56 48
s23 64.666 23 117.999v402c0 75.333 -13.833 123.5 -41.5 144.5s-66.5 31.5 -116.5 31.5h-84v-754zM1851 53.001v1327h-151v54h921v-54h-151v-1327h151v-53h-921v53h151z" />
    <glyph glyph-name="afii10045" unicode="&#x42b;" horiz-adv-x="2703" 
d="M233 53v1327h-151v54h922v-54h-152v-520h246c420.667 0 631 -142 631 -426c0 -99.333 -24.167 -181.5 -72.5 -246.5s-114.5 -112.5 -198.5 -142.5s-178 -45 -282 -45h-1094v53h151zM852 53l84 0.000976562c30.667 0 57 3.33301 79 10s40.667 22.667 56 48
s23 64.666 23 117.999v402c0 75.333 -13.833 123.5 -41.5 144.5s-66.5 31.5 -116.5 31.5h-84v-754zM1851 53.001v1327h-151v54h921v-54h-151v-1327h151v-53h-921v53h151z" />
    <glyph glyph-name="afii10046" unicode="&#xdc;" horiz-adv-x="1769" 
d="M233 53v1327h-151v54h922v-54h-152v-520h246c420.667 0 631 -142 631 -426c0 -99.333 -24.167 -181.5 -72.5 -246.5s-114.5 -112.5 -198.5 -142.5s-178 -45 -282 -45h-1094v53h151zM852 53l84 0.000976562c30.667 0 57 3.33301 79 10s40.667 22.667 56 48
s23 64.666 23 117.999v402c0 75.333 -13.833 123.5 -41.5 144.5s-66.5 31.5 -116.5 31.5h-84v-754z" />
    <glyph glyph-name="afii10046" unicode="&#x42c;" horiz-adv-x="1769" 
d="M233 53v1327h-151v54h922v-54h-152v-520h246c420.667 0 631 -142 631 -426c0 -99.333 -24.167 -181.5 -72.5 -246.5s-114.5 -112.5 -198.5 -142.5s-178 -45 -282 -45h-1094v53h151zM852 53l84 0.000976562c30.667 0 57 3.33301 79 10s40.667 22.667 56 48
s23 64.666 23 117.999v402c0 75.333 -13.833 123.5 -41.5 144.5s-66.5 31.5 -116.5 31.5h-84v-754z" />
    <glyph glyph-name="afii10047" unicode="&#xdd;" horiz-adv-x="1585" 
d="M852 819v248.004c0 207.333 -78 311 -234 311c-69.333 0 -134 -19.667 -194 -59s-110.167 -90.833 -150.5 -154.5s-68.166 -130.834 -83.499 -201.501h-53l23 512h53l143 -113c57.333 36 118.5 62 183.5 78s128.833 24 191.5 24c104 0 202.333 -17.667 295 -53
s175 -85.833 247 -151.5s128.333 -144.667 169 -237s61 -194.166 61 -305.499c0 -86.667 -14.667 -173.834 -44 -261.501s-75.833 -168.167 -139.5 -241.5s-148.5 -132.5 -254.5 -177.5s-231 -67.5 -375 -67.5c-128 0 -234.667 12.167 -320 36.5
s-152.166 56.166 -200.499 95.499s-81.833 80 -100.5 122s-28 82.333 -28 121c0 80 23.833 145.667 71.5 197s112.5 77 194.5 77c25.333 0 56.666 -4.33301 93.999 -13s73.666 -30.334 108.999 -65.001s53 -86.334 53 -155.001c0 -76 -22.333 -136.667 -67 -182
s-107 -68 -187 -68c34 -72 112.667 -108 236 -108c92 0 160.667 21.333 206 64s73.5 90.5 84.5 143.5s16.5 112.167 16.5 177.5v354h-477v53h477z" />
    <glyph glyph-name="afii10047" unicode="&#x42d;" horiz-adv-x="1585" 
d="M852 819v248.004c0 207.333 -78 311 -234 311c-69.333 0 -134 -19.667 -194 -59s-110.167 -90.833 -150.5 -154.5s-68.166 -130.834 -83.499 -201.501h-53l23 512h53l143 -113c57.333 36 118.5 62 183.5 78s128.833 24 191.5 24c104 0 202.333 -17.667 295 -53
s175 -85.833 247 -151.5s128.333 -144.667 169 -237s61 -194.166 61 -305.499c0 -86.667 -14.667 -173.834 -44 -261.501s-75.833 -168.167 -139.5 -241.5s-148.5 -132.5 -254.5 -177.5s-231 -67.5 -375 -67.5c-128 0 -234.667 12.167 -320 36.5
s-152.166 56.166 -200.499 95.499s-81.833 80 -100.5 122s-28 82.333 -28 121c0 80 23.833 145.667 71.5 197s112.5 77 194.5 77c25.333 0 56.666 -4.33301 93.999 -13s73.666 -30.334 108.999 -65.001s53 -86.334 53 -155.001c0 -76 -22.333 -136.667 -67 -182
s-107 -68 -187 -68c34 -72 112.667 -108 236 -108c92 0 160.667 21.333 206 64s73.5 90.5 84.5 143.5s16.5 112.167 16.5 177.5v354h-477v53h477z" />
    <glyph glyph-name="afii10048" unicode="&#xde;" horiz-adv-x="2621" 
d="M852 758l145 0.000976562c6 104.667 29.833 201 71.5 289s98.167 163.333 169.5 226s152 110.167 242 142.5s185.667 48.5 287 48.5c116 0 221.667 -19.5 317 -58.5s176.833 -92.833 244.5 -161.5s119.834 -148.334 156.5 -239.001c36.667 -90.667 55 -186.667 55 -288
s-18.5 -197.666 -55.5 -288.999s-89.167 -170.833 -156.5 -238.5s-149.166 -121.334 -245.499 -161.001s-201.5 -59.5 -315.5 -59.5c-114.667 0 -219.334 19.167 -314.001 57.5s-176 92 -244 161s-119.833 147.5 -155.5 235.5s-55.167 182 -58.5 282h-143v-652h152v-53h-922
v53h151v1327h-151v54h922v-54h-152v-622zM1647 1282v-1130c0 -28.667 7.33301 -57.334 22 -86.001s47.334 -43 98.001 -43c51.333 0 84.333 14 99 42s22 57 22 87v1130c0 30 -7.33301 59 -22 87s-47.667 42 -99 42c-50.667 0 -83.334 -14.333 -98.001 -43
s-22 -57.334 -22 -86.001z" />
    <glyph glyph-name="afii10048" unicode="&#x42e;" horiz-adv-x="2621" 
d="M852 758l145 0.000976562c6 104.667 29.833 201 71.5 289s98.167 163.333 169.5 226s152 110.167 242 142.5s185.667 48.5 287 48.5c116 0 221.667 -19.5 317 -58.5s176.833 -92.833 244.5 -161.5s119.834 -148.334 156.5 -239.001c36.667 -90.667 55 -186.667 55 -288
s-18.5 -197.666 -55.5 -288.999s-89.167 -170.833 -156.5 -238.5s-149.166 -121.334 -245.499 -161.001s-201.5 -59.5 -315.5 -59.5c-114.667 0 -219.334 19.167 -314.001 57.5s-176 92 -244 161s-119.833 147.5 -155.5 235.5s-55.167 182 -58.5 282h-143v-652h152v-53h-922
v53h151v1327h-151v54h922v-54h-152v-622zM1647 1282v-1130c0 -28.667 7.33301 -57.334 22 -86.001s47.334 -43 98.001 -43c51.333 0 84.333 14 99 42s22 57 22 87v1130c0 30 -7.33301 59 -22 87s-47.667 42 -99 42c-50.667 0 -83.334 -14.333 -98.001 -43
s-22 -57.334 -22 -86.001z" />
    <glyph glyph-name="afii10049" unicode="&#xdf;" horiz-adv-x="1970" 
d="M1118 725l-83.9971 0.00390625c-30.667 0 -57 -3.33301 -79 -10s-40.5 -22.667 -55.5 -48s-22.5 -64.666 -22.5 -117.999v-164c0 -108 -25.5 -204.333 -76.5 -289s-158.833 -127 -323.5 -127c-84.667 0 -162 18.5 -232 55.5s-140.667 92.167 -212 165.5l37 37
c44 -50 87 -75 129 -75c36 0 58.667 16.833 68 50.5s14.666 79.5 15.999 137.5c1.33301 61.333 11.166 119.166 29.499 173.499s60.166 103.166 125.499 146.499s162.333 69.666 291 78.999v21c-137.333 3.33301 -242.333 24.666 -315 63.999s-119.5 82.833 -140.5 130.5
s-31.5 95.5 -31.5 143.5c0 86.667 24 154.667 72 204s115.667 83.666 203 102.999s196.333 29 327 29h1044v-54h-151v-1327h151v-53h-921v53h151v672zM1118 778.004v601.998h-84c-30.667 0 -57 -3.33301 -79 -10s-40.5 -22.667 -55.5 -48s-22.5 -64.666 -22.5 -117.999v-250
c0 -53.333 7.5 -92.666 22.5 -117.999s33.5 -41.333 55.5 -48s48.333 -10 79 -10h84z" />
    <glyph glyph-name="afii10049" unicode="&#x42f;" horiz-adv-x="1970" 
d="M1118 725l-83.9971 0.00390625c-30.667 0 -57 -3.33301 -79 -10s-40.5 -22.667 -55.5 -48s-22.5 -64.666 -22.5 -117.999v-164c0 -108 -25.5 -204.333 -76.5 -289s-158.833 -127 -323.5 -127c-84.667 0 -162 18.5 -232 55.5s-140.667 92.167 -212 165.5l37 37
c44 -50 87 -75 129 -75c36 0 58.667 16.833 68 50.5s14.666 79.5 15.999 137.5c1.33301 61.333 11.166 119.166 29.499 173.499s60.166 103.166 125.499 146.499s162.333 69.666 291 78.999v21c-137.333 3.33301 -242.333 24.666 -315 63.999s-119.5 82.833 -140.5 130.5
s-31.5 95.5 -31.5 143.5c0 86.667 24 154.667 72 204s115.667 83.666 203 102.999s196.333 29 327 29h1044v-54h-151v-1327h151v-53h-921v53h151v672zM1118 778.004v601.998h-84c-30.667 0 -57 -3.33301 -79 -10s-40.5 -22.667 -55.5 -48s-22.5 -64.666 -22.5 -117.999v-250
c0 -53.333 7.5 -92.666 22.5 -117.999s33.5 -41.333 55.5 -48s48.333 -10 79 -10h84z" />
    <glyph glyph-name="afii10065" unicode="&#xe0;" horiz-adv-x="1386" 
d="M1325 141l31.001 -31.998c-23.333 -28 -53.666 -52.333 -90.999 -73s-77 -36 -119 -46s-80.667 -15 -116 -15c-60.667 0 -112 12 -154 36s-81.333 62.667 -118 116c-130.667 -101.333 -263.334 -152 -398.001 -152c-88 0 -162.5 23.333 -223.5 70s-91.5 115 -91.5 205
c0 88 29.833 156 89.5 204s139.5 80.833 239.5 98.5s220.333 27.5 361 29.5v284c0 40.667 -6.33301 68.667 -19 84s-45.334 23 -98.001 23c-50 0 -75 -11 -75 -33c0 -6.66699 7 -20.834 21 -42.501s22 -34.834 24 -39.501c9.33301 -20.667 14 -44 14 -70
c0 -56 -22.833 -100 -68.5 -132s-100.5 -48 -164.5 -48c-68 0 -121.167 16.167 -159.5 48.5s-57.5 74.833 -57.5 127.5c0 70 41.5 127.167 124.5 171.5s222.167 66.5 417.5 66.5c221.333 0 363.333 -31.167 426 -93.5s94 -135.5 94 -219.5v-543c0 -40 16.667 -60 50 -60
c20 0 40.333 11.667 61 35zM735.001 260.002l0.000976562 264c-14 4 -40.667 6 -80 6c-43.333 0 -72.833 -13 -88.5 -39s-23.5 -68 -23.5 -126v-93c0 -46.667 9.16699 -83.5 27.5 -110.5s41.166 -40.5 68.499 -40.5c64 0 96 46.333 96 139z" />
    <glyph glyph-name="afii10065" unicode="&#x430;" horiz-adv-x="1386" 
d="M1325 141l31.001 -31.998c-23.333 -28 -53.666 -52.333 -90.999 -73s-77 -36 -119 -46s-80.667 -15 -116 -15c-60.667 0 -112 12 -154 36s-81.333 62.667 -118 116c-130.667 -101.333 -263.334 -152 -398.001 -152c-88 0 -162.5 23.333 -223.5 70s-91.5 115 -91.5 205
c0 88 29.833 156 89.5 204s139.5 80.833 239.5 98.5s220.333 27.5 361 29.5v284c0 40.667 -6.33301 68.667 -19 84s-45.334 23 -98.001 23c-50 0 -75 -11 -75 -33c0 -6.66699 7 -20.834 21 -42.501s22 -34.834 24 -39.501c9.33301 -20.667 14 -44 14 -70
c0 -56 -22.833 -100 -68.5 -132s-100.5 -48 -164.5 -48c-68 0 -121.167 16.167 -159.5 48.5s-57.5 74.833 -57.5 127.5c0 70 41.5 127.167 124.5 171.5s222.167 66.5 417.5 66.5c221.333 0 363.333 -31.167 426 -93.5s94 -135.5 94 -219.5v-543c0 -40 16.667 -60 50 -60
c20 0 40.333 11.667 61 35zM735.001 260.002l0.000976562 264c-14 4 -40.667 6 -80 6c-43.333 0 -72.833 -13 -88.5 -39s-23.5 -68 -23.5 -126v-93c0 -46.667 9.16699 -83.5 27.5 -110.5s41.166 -40.5 68.499 -40.5c64 0 96 46.333 96 139z" />
    <glyph glyph-name="afii10066" unicode="&#xe1;" horiz-adv-x="1356" 
d="M1157 1499l34.999 -18.0059c-39.333 -109.333 -82.333 -187.166 -129 -233.499s-98.667 -74.666 -156 -84.999s-147.333 -16.166 -270 -17.499c-60.667 0 -119.334 -4.16699 -176.001 -12.5s-110.334 -25.666 -161.001 -51.999s-92.5 -67.5 -125.5 -123.5
s-49.5 -129.333 -49.5 -220h29c41.333 74 94.833 131.667 160.5 173s129.5 68.666 191.5 81.999s119.333 20 172 20c120.667 0 227.834 -22.5 321.501 -67.5s166.167 -107.167 217.5 -186.5s77 -167.333 77 -264c0 -70 -14.667 -136.667 -44 -200
s-70.5 -118.666 -123.5 -165.999s-118.167 -84.666 -195.5 -111.999s-161.666 -41 -252.999 -41c-72.667 0 -144.334 10.5 -215.001 31.5s-136.667 58 -198 111s-110.666 127.333 -147.999 223s-56 214.834 -56 357.501c0 168.667 24.833 303.667 74.5 405
s112.834 175.5 189.501 222.5s154.5 76.833 233.5 89.5s167.167 19 264.5 19h56h170c50.667 0 86.667 21.667 108 65zM581.999 853.994l0.00195312 -721c0 -28.667 5.66699 -53.834 17 -75.501s37.666 -32.5 78.999 -32.5s67.666 10.833 78.999 32.5s17 46.834 17 75.501
v721c0 72.667 -32 109 -96 109s-96 -36.333 -96 -109z" />
    <glyph glyph-name="afii10066" unicode="&#x431;" horiz-adv-x="1356" 
d="M1157 1499l34.999 -18.0059c-39.333 -109.333 -82.333 -187.166 -129 -233.499s-98.667 -74.666 -156 -84.999s-147.333 -16.166 -270 -17.499c-60.667 0 -119.334 -4.16699 -176.001 -12.5s-110.334 -25.666 -161.001 -51.999s-92.5 -67.5 -125.5 -123.5
s-49.5 -129.333 -49.5 -220h29c41.333 74 94.833 131.667 160.5 173s129.5 68.666 191.5 81.999s119.333 20 172 20c120.667 0 227.834 -22.5 321.501 -67.5s166.167 -107.167 217.5 -186.5s77 -167.333 77 -264c0 -70 -14.667 -136.667 -44 -200
s-70.5 -118.666 -123.5 -165.999s-118.167 -84.666 -195.5 -111.999s-161.666 -41 -252.999 -41c-72.667 0 -144.334 10.5 -215.001 31.5s-136.667 58 -198 111s-110.666 127.333 -147.999 223s-56 214.834 -56 357.501c0 168.667 24.833 303.667 74.5 405
s112.834 175.5 189.501 222.5s154.5 76.833 233.5 89.5s167.167 19 264.5 19h56h170c50.667 0 86.667 21.667 108 65zM581.999 853.994l0.00195312 -721c0 -28.667 5.66699 -53.834 17 -75.501s37.666 -32.5 78.999 -32.5s67.666 10.833 78.999 32.5s17 46.834 17 75.501
v721c0 72.667 -32 109 -96 109s-96 -36.333 -96 -109z" />
    <glyph glyph-name="afii10067" unicode="&#xe2;" horiz-adv-x="1438" 
d="M186 938l-124.999 0.000976562v49h887c78.667 0 146.667 -5.16699 204 -15.5s105.333 -31.5 144 -63.5s58 -78.667 58 -140c0 -66.667 -32 -122 -96 -166s-166 -67.333 -306 -70v-20c169.333 0 283 -25.333 341 -76s87 -109.334 87 -176.001
c0 -52.667 -18.667 -98.667 -56 -138s-88.833 -69.5 -154.5 -90.5s-138.834 -31.5 -219.501 -31.5h-889v49h125v889zM666.001 483.001v-434.001h39c48 0 85.833 7.83301 113.5 23.5s41.5 50.834 41.5 105.501v180c0 54 -13.833 88.333 -41.5 103s-65.5 22 -113.5 22h-39z
M666.001 938v-406h39c48 0 85.833 7.66699 113.5 23s41.5 49.333 41.5 102v156c0 54 -13.833 88.333 -41.5 103s-65.5 22 -113.5 22h-39z" />
    <glyph glyph-name="afii10067" unicode="&#x432;" horiz-adv-x="1438" 
d="M186 938l-124.999 0.000976562v49h887c78.667 0 146.667 -5.16699 204 -15.5s105.333 -31.5 144 -63.5s58 -78.667 58 -140c0 -66.667 -32 -122 -96 -166s-166 -67.333 -306 -70v-20c169.333 0 283 -25.333 341 -76s87 -109.334 87 -176.001
c0 -52.667 -18.667 -98.667 -56 -138s-88.833 -69.5 -154.5 -90.5s-138.834 -31.5 -219.501 -31.5h-889v49h125v889zM666.001 483.001v-434.001h39c48 0 85.833 7.83301 113.5 23.5s41.5 50.834 41.5 105.501v180c0 54 -13.833 88.333 -41.5 103s-65.5 22 -113.5 22h-39z
M666.001 938v-406h39c48 0 85.833 7.66699 113.5 23s41.5 49.333 41.5 102v156c0 54 -13.833 88.333 -41.5 103s-65.5 22 -113.5 22h-39z" />
    <glyph glyph-name="afii10068" unicode="&#xe3;" horiz-adv-x="1163" 
d="M664 938l-0.00195312 -889h122v-49h-725v49h123v889h-123v49h1074v-360h-50c-5.33301 34.667 -14.5 68.334 -27.5 101.001s-32.667 65.167 -59 97.5s-62.166 59.166 -107.499 80.499s-98.666 32 -159.999 32h-67z" />
    <glyph glyph-name="afii10068" unicode="&#x433;" horiz-adv-x="1163" 
d="M664 938l-0.00195312 -889h122v-49h-725v49h123v889h-123v49h1074v-360h-50c-5.33301 34.667 -14.5 68.334 -27.5 101.001s-32.667 65.167 -59 97.5s-62.166 59.166 -107.499 80.499s-98.666 32 -159.999 32h-67z" />
    <glyph glyph-name="afii10069" unicode="&#xe4;" horiz-adv-x="1327" 
d="M162 987l1048 -0.00195312v-49h-116v-889h200v-438h-53c0 91.333 -12.667 163.833 -38 217.5s-56.833 92.334 -94.5 116.001s-75.167 38.834 -112.5 45.501s-78.666 10 -123.999 10h-450c-59.333 -0 -115 -7.16699 -167 -21.5s-98.667 -50.5 -140 -108.5
s-62 -144.333 -62 -259h-53v438h66c44 0 79 6.66699 105 20s49.667 47 71 101s39 144 53 270s23 292 27 498h-160v49zM239.999 48.998l374.002 0.00195312v889h-241c-4.66699 -199.333 -12.334 -357.333 -23.001 -474s-24.834 -205.334 -42.501 -266.001
s-40.167 -110.334 -67.5 -149.001z" />
    <glyph glyph-name="afii10069" unicode="&#x434;" horiz-adv-x="1327" 
d="M162 987l1048 -0.00195312v-49h-116v-889h200v-438h-53c0 91.333 -12.667 163.833 -38 217.5s-56.833 92.334 -94.5 116.001s-75.167 38.834 -112.5 45.501s-78.666 10 -123.999 10h-450c-59.333 -0 -115 -7.16699 -167 -21.5s-98.667 -50.5 -140 -108.5
s-62 -144.333 -62 -259h-53v438h66c44 0 79 6.66699 105 20s49.667 47 71 101s39 144 53 270s23 292 27 498h-160v49zM239.999 48.998l374.002 0.00195312v889h-241c-4.66699 -199.333 -12.334 -357.333 -23.001 -474s-24.834 -205.334 -42.501 -266.001
s-40.167 -110.334 -67.5 -149.001z" />
    <glyph glyph-name="afii10070" unicode="&#xe5;" horiz-adv-x="1327" 
d="M1227 297l39.0029 -34.999c-56.667 -78.667 -117.834 -139 -183.501 -181s-130.167 -70.167 -193.5 -84.5s-129 -21.5 -197 -21.5c-125.333 0 -236 21.667 -332 65s-169.833 104.333 -221.5 183s-77.5 168.334 -77.5 269.001c0 85.333 21.167 168 63.5 248
s109.666 145.333 201.999 196s208.166 76 347.499 76c136 0 247.667 -27.333 335 -82s149.833 -124.834 187.5 -210.501s56.5 -176.834 56.5 -273.501h-671v-57c0 -91.333 13.167 -169.5 39.5 -234.5s84.833 -97.5 175.5 -97.5c87.333 0 167.833 23.5 241.5 70.5
s136.5 103.5 188.5 169.5zM774.003 496.001v358c0 72.667 -32 109 -96 109s-96 -36.333 -96 -109v-358h192z" />
    <glyph glyph-name="afii10070" unicode="&#x435;" horiz-adv-x="1327" 
d="M1227 297l39.0029 -34.999c-56.667 -78.667 -117.834 -139 -183.501 -181s-130.167 -70.167 -193.5 -84.5s-129 -21.5 -197 -21.5c-125.333 0 -236 21.667 -332 65s-169.833 104.333 -221.5 183s-77.5 168.334 -77.5 269.001c0 85.333 21.167 168 63.5 248
s109.666 145.333 201.999 196s208.166 76 347.499 76c136 0 247.667 -27.333 335 -82s149.833 -124.834 187.5 -210.501s56.5 -176.834 56.5 -273.501h-671v-57c0 -91.333 13.167 -169.5 39.5 -234.5s84.833 -97.5 175.5 -97.5c87.333 0 167.833 23.5 241.5 70.5
s136.5 103.5 188.5 169.5zM774.003 496.001v358c0 72.667 -32 109 -96 109s-96 -36.333 -96 -109v-358h192z" />
    <glyph glyph-name="afii10072" unicode="&#xe6;" horiz-adv-x="2118" 
d="M1298 522l34.9961 0.000976562c52.667 0 87.5 19.833 104.5 59.5s27.167 86.834 30.5 141.501c6.66699 80 25.834 148.167 57.501 204.5s95.834 84.5 192.501 84.5c70 0 123.333 -21.5 160 -64.5s55 -93.833 55 -152.5c0 -60 -18.833 -106.5 -56.5 -139.5
s-82.834 -49.5 -135.501 -49.5c-89.333 0 -146 37 -170 111c-3.33301 12.667 -5.66602 26.334 -6.99902 41.001s-3.33301 25.5 -6 32.5s-8 10.5 -16 10.5c-11.333 0 -18 -6 -20 -18s-4 -34 -6 -66c-2 -50 -8.33301 -91.833 -19 -125.5s-31.667 -62.167 -63 -85.5h100
c81.333 0 147 -7 197 -21s86.667 -32.333 110 -55s38.833 -47.834 46.5 -75.501s12.834 -61.167 15.501 -100.5c4.66699 -49.333 10.5 -82.833 17.5 -100.5s22.833 -26.5 47.5 -26.5c22.667 0 48.667 11 78 33l33 -33c-50.667 -50 -104 -87.833 -160 -113.5
s-117.333 -38.5 -184 -38.5c-82.667 0 -144.667 16 -186 48s-68.166 73.333 -80.499 124s-21.833 121.667 -28.5 213c-3.33301 49.333 -14 80.5 -32 93.5s-43 19.5 -75 19.5h-35v-424h117v-49h-713v49h117v424h-35c-32 0 -56.833 -6.5 -74.5 -19.5
s-28.167 -44.167 -31.5 -93.5c-6.66699 -95.333 -16.167 -167.5 -28.5 -216.5s-39.166 -89.333 -80.499 -121s-103.333 -47.5 -186 -47.5c-66 0 -127.167 13 -183.5 39s-109.833 63.667 -160.5 113l33 33c23.333 -22 49.333 -33 78 -33c24 0 39.5 7.66699 46.5 23
s13.167 49.333 18.5 102c4 42.667 9.83301 77.334 17.5 104.001s22.834 51.334 45.501 74.001s59 41 109 55s115.667 21 197 21h100c-31.333 23.333 -51.833 50.666 -61.5 81.999s-16.5 74.333 -20.5 129c-2 32 -4 54 -6 66s-9 18 -21 18c-10 0 -16.5 -12 -19.5 -36
s-5.83301 -40 -8.5 -48c-14.667 -46 -39.334 -76 -74.001 -90s-66.667 -21 -96 -21c-34 0 -65.667 7.16699 -95 21.5s-53 35.833 -71 64.5s-27 63 -27 103c0 37.333 8 72.666 24 105.999s40 60.166 72 80.499s71.667 30.5 119 30.5c97.333 0 162.166 -28.667 194.499 -86
s50.833 -125 55.5 -203c3.33301 -54.667 13.5 -101.834 30.5 -141.501s51.833 -59.5 104.5 -59.5h35v416h-117v49h713v-49h-117v-416z" />
    <glyph glyph-name="afii10072" unicode="&#x436;" horiz-adv-x="2118" 
d="M1298 522l34.9961 0.000976562c52.667 0 87.5 19.833 104.5 59.5s27.167 86.834 30.5 141.501c6.66699 80 25.834 148.167 57.501 204.5s95.834 84.5 192.501 84.5c70 0 123.333 -21.5 160 -64.5s55 -93.833 55 -152.5c0 -60 -18.833 -106.5 -56.5 -139.5
s-82.834 -49.5 -135.501 -49.5c-89.333 0 -146 37 -170 111c-3.33301 12.667 -5.66602 26.334 -6.99902 41.001s-3.33301 25.5 -6 32.5s-8 10.5 -16 10.5c-11.333 0 -18 -6 -20 -18s-4 -34 -6 -66c-2 -50 -8.33301 -91.833 -19 -125.5s-31.667 -62.167 -63 -85.5h100
c81.333 0 147 -7 197 -21s86.667 -32.333 110 -55s38.833 -47.834 46.5 -75.501s12.834 -61.167 15.501 -100.5c4.66699 -49.333 10.5 -82.833 17.5 -100.5s22.833 -26.5 47.5 -26.5c22.667 0 48.667 11 78 33l33 -33c-50.667 -50 -104 -87.833 -160 -113.5
s-117.333 -38.5 -184 -38.5c-82.667 0 -144.667 16 -186 48s-68.166 73.333 -80.499 124s-21.833 121.667 -28.5 213c-3.33301 49.333 -14 80.5 -32 93.5s-43 19.5 -75 19.5h-35v-424h117v-49h-713v49h117v424h-35c-32 0 -56.833 -6.5 -74.5 -19.5
s-28.167 -44.167 -31.5 -93.5c-6.66699 -95.333 -16.167 -167.5 -28.5 -216.5s-39.166 -89.333 -80.499 -121s-103.333 -47.5 -186 -47.5c-66 0 -127.167 13 -183.5 39s-109.833 63.667 -160.5 113l33 33c23.333 -22 49.333 -33 78 -33c24 0 39.5 7.66699 46.5 23
s13.167 49.333 18.5 102c4 42.667 9.83301 77.334 17.5 104.001s22.834 51.334 45.501 74.001s59 41 109 55s115.667 21 197 21h100c-31.333 23.333 -51.833 50.666 -61.5 81.999s-16.5 74.333 -20.5 129c-2 32 -4 54 -6 66s-9 18 -21 18c-10 0 -16.5 -12 -19.5 -36
s-5.83301 -40 -8.5 -48c-14.667 -46 -39.334 -76 -74.001 -90s-66.667 -21 -96 -21c-34 0 -65.667 7.16699 -95 21.5s-53 35.833 -71 64.5s-27 63 -27 103c0 37.333 8 72.666 24 105.999s40 60.166 72 80.499s71.667 30.5 119 30.5c97.333 0 162.166 -28.667 194.499 -86
s50.833 -125 55.5 -203c3.33301 -54.667 13.5 -101.834 30.5 -141.501s51.833 -59.5 104.5 -59.5h35v416h-117v49h713v-49h-117v-416z" />
    <glyph glyph-name="afii10073" unicode="&#xe7;" horiz-adv-x="1202" 
d="M168 649l0.00195312 354.998h49l70 -68c96.667 50.667 223.667 76 381 76c101.333 0 183.833 -11.667 247.5 -35s109.667 -53.166 138 -89.499s42.5 -74.166 42.5 -113.499c0 -58.667 -18.167 -105.5 -54.5 -140.5s-79.5 -59.5 -129.5 -73.5s-96.667 -21 -140 -21v-21
c92 0 176.5 -17.333 253.5 -52s115.5 -103.334 115.5 -206.001c0 -59.333 -16.5 -108.166 -49.5 -146.499s-76.333 -67.166 -130 -86.499s-113 -32.833 -178 -40.5s-135.167 -11.5 -210.5 -11.5c-186.667 0 -319.334 27.667 -398.001 83s-118 118.666 -118 189.999
c0 41.333 8.5 77.666 25.5 108.999s41.167 55.5 72.5 72.5s67.666 25.5 108.999 25.5c60.667 0 109.334 -19.333 146.001 -58s55 -89 55 -151c0 -47.333 -17.5 -86.666 -52.5 -117.999s-77.5 -48 -127.5 -50c34 -35.333 79.667 -53 137 -53
c85.333 0 139.833 22.667 163.5 68s35.5 97 35.5 155v108c0 62.667 -12.167 102.667 -36.5 120s-58.833 26 -103.5 26h-86v49h86c48 0 82.5 9 103.5 27s31.5 59.333 31.5 124v117c0 86 -44.333 129 -133 129c-38.667 0 -76.334 -12.667 -113.001 -38
s-68.667 -60.5 -96 -105.5s-46.333 -96.833 -57 -155.5h-49z" />
    <glyph glyph-name="afii10073" unicode="&#x437;" horiz-adv-x="1202" 
d="M168 649l0.00195312 354.998h49l70 -68c96.667 50.667 223.667 76 381 76c101.333 0 183.833 -11.667 247.5 -35s109.667 -53.166 138 -89.499s42.5 -74.166 42.5 -113.499c0 -58.667 -18.167 -105.5 -54.5 -140.5s-79.5 -59.5 -129.5 -73.5s-96.667 -21 -140 -21v-21
c92 0 176.5 -17.333 253.5 -52s115.5 -103.334 115.5 -206.001c0 -59.333 -16.5 -108.166 -49.5 -146.499s-76.333 -67.166 -130 -86.499s-113 -32.833 -178 -40.5s-135.167 -11.5 -210.5 -11.5c-186.667 0 -319.334 27.667 -398.001 83s-118 118.666 -118 189.999
c0 41.333 8.5 77.666 25.5 108.999s41.167 55.5 72.5 72.5s67.666 25.5 108.999 25.5c60.667 0 109.334 -19.333 146.001 -58s55 -89 55 -151c0 -47.333 -17.5 -86.666 -52.5 -117.999s-77.5 -48 -127.5 -50c34 -35.333 79.667 -53 137 -53
c85.333 0 139.833 22.667 163.5 68s35.5 97 35.5 155v108c0 62.667 -12.167 102.667 -36.5 120s-58.833 26 -103.5 26h-86v49h86c48 0 82.5 9 103.5 27s31.5 59.333 31.5 124v117c0 86 -44.333 129 -133 129c-38.667 0 -76.334 -12.667 -113.001 -38
s-68.667 -60.5 -96 -105.5s-46.333 -96.833 -57 -155.5h-49z" />
    <glyph glyph-name="afii10074" unicode="&#xe8;" horiz-adv-x="1516" 
d="M670 322h8l176 489v127h-66v49h662v-49h-117v-889h117v-49h-662v49h66v627h-10l-174 -490v-137h57v-49h-661v49h124v889h-124v49h661v-49h-57v-616z" />
    <glyph glyph-name="afii10074" unicode="&#x438;" horiz-adv-x="1516" 
d="M670 322h8l176 489v127h-66v49h662v-49h-117v-889h117v-49h-662v49h66v627h-10l-174 -490v-137h57v-49h-661v49h124v889h-124v49h661v-49h-57v-616z" />
    <glyph glyph-name="afii10075" unicode="&#xe9;" horiz-adv-x="1511" 
d="M666 322h8l176 489v127h-66v49h662v-49h-117v-889h117v-49h-662v49h66v627h-10l-174 -490v-137h57v-49h-662v49h125v889h-125v49h662v-49h-57v-616zM754 1108c137.333 0 229.336 31.3311 276.003 93.998c-43.333 0 -79.333 9.16699 -108 27.5s-43 46.166 -43 83.499
c0 40 12.833 74.167 38.5 102.5s65.834 42.5 120.501 42.5c48 0 83.667 -14.667 107 -44s35 -63.666 35 -102.999c0 -44.667 -17.5 -86.334 -52.5 -125.001s-85.333 -69.5 -151 -92.5s-139.834 -34.5 -222.501 -34.5s-156.834 11.5 -222.501 34.5s-116 53.833 -151 92.5
s-52.5 80.334 -52.5 125.001c0 38.667 11.667 72.834 35 102.501s58.666 44.5 105.999 44.5c55.333 0 95.833 -14.167 121.5 -42.5s38.5 -62.5 38.5 -102.5c0 -37.333 -14.5 -65.166 -43.5 -83.499s-65.167 -27.5 -108.5 -27.5c47.333 -62.667 139.666 -94 276.999 -94z" />
    <glyph glyph-name="afii10075" unicode="&#x439;" horiz-adv-x="1511" 
d="M666 322h8l176 489v127h-66v49h662v-49h-117v-889h117v-49h-662v49h66v627h-10l-174 -490v-137h57v-49h-662v49h125v889h-125v49h662v-49h-57v-616zM754 1108c137.333 0 229.336 31.3311 276.003 93.998c-43.333 0 -79.333 9.16699 -108 27.5s-43 46.166 -43 83.499
c0 40 12.833 74.167 38.5 102.5s65.834 42.5 120.501 42.5c48 0 83.667 -14.667 107 -44s35 -63.666 35 -102.999c0 -44.667 -17.5 -86.334 -52.5 -125.001s-85.333 -69.5 -151 -92.5s-139.834 -34.5 -222.501 -34.5s-156.834 11.5 -222.501 34.5s-116 53.833 -151 92.5
s-52.5 80.334 -52.5 125.001c0 38.667 11.667 72.834 35 102.501s58.666 44.5 105.999 44.5c55.333 0 95.833 -14.167 121.5 -42.5s38.5 -62.5 38.5 -102.5c0 -37.333 -14.5 -65.166 -43.5 -83.499s-65.167 -27.5 -108.5 -27.5c47.333 -62.667 139.666 -94 276.999 -94z" />
    <glyph glyph-name="afii10076" unicode="&#xea;" horiz-adv-x="1481" 
d="M664 522h34c52.667 0 87.667 20.167 105 60.5s27.666 87.166 30.999 140.499c4.66699 76.667 23.167 144 55.5 202s96.833 87 193.5 87c70 0 123.333 -21.5 160 -64.5s55 -93.833 55 -152.5c0 -60 -18.833 -106.5 -56.5 -139.5s-82.834 -49.5 -135.501 -49.5
c-89.333 0 -146 37 -170 111c-2 6 -4.16699 18 -6.5 36s-4.5 30.5 -6.5 37.5s-7.33301 10.5 -16 10.5c-11.333 0 -18 -6 -20 -18s-4 -34 -6 -66c-2.66699 -52.667 -9.16699 -95.167 -19.5 -127.5s-31.166 -60.166 -62.499 -83.499h100c106.667 0 186 -11.333 238 -34
s85.5 -51.5 100.5 -86.5s25.167 -79.5 30.5 -133.5c5.33301 -52.667 11.5 -86.667 18.5 -102s22.5 -23 46.5 -23c28.667 0 54.667 11 78 33l33 -33c-103.333 -101.333 -218 -152 -344 -152c-82.667 0 -144.667 15.833 -186 47.5s-68.166 72 -80.499 121
s-21.833 121.167 -28.5 216.5c-3.33301 49.333 -14 80.5 -32 93.5s-43 19.5 -75 19.5h-34v-424h116v-49h-719v49h123v889h-123v49h719v-49h-116v-416z" />
    <glyph glyph-name="afii10076" unicode="&#x43a;" horiz-adv-x="1481" 
d="M664 522h34c52.667 0 87.667 20.167 105 60.5s27.666 87.166 30.999 140.499c4.66699 76.667 23.167 144 55.5 202s96.833 87 193.5 87c70 0 123.333 -21.5 160 -64.5s55 -93.833 55 -152.5c0 -60 -18.833 -106.5 -56.5 -139.5s-82.834 -49.5 -135.501 -49.5
c-89.333 0 -146 37 -170 111c-2 6 -4.16699 18 -6.5 36s-4.5 30.5 -6.5 37.5s-7.33301 10.5 -16 10.5c-11.333 0 -18 -6 -20 -18s-4 -34 -6 -66c-2.66699 -52.667 -9.16699 -95.167 -19.5 -127.5s-31.166 -60.166 -62.499 -83.499h100c106.667 0 186 -11.333 238 -34
s85.5 -51.5 100.5 -86.5s25.167 -79.5 30.5 -133.5c5.33301 -52.667 11.5 -86.667 18.5 -102s22.5 -23 46.5 -23c28.667 0 54.667 11 78 33l33 -33c-103.333 -101.333 -218 -152 -344 -152c-82.667 0 -144.667 15.833 -186 47.5s-68.166 72 -80.499 121
s-21.833 121.167 -28.5 216.5c-3.33301 49.333 -14 80.5 -32 93.5s-43 19.5 -75 19.5h-34v-424h116v-49h-719v49h123v889h-123v49h719v-49h-116v-416z" />
    <glyph glyph-name="afii10077" unicode="&#xeb;" horiz-adv-x="1421" 
d="M1243 938l-0.000976562 -888.999h117v-49h-721v49h125v889h-172l-10 -608c-2 -57.333 -7.33301 -109 -16 -155s-32.5 -90.833 -71.5 -134.5s-98.833 -65.5 -179.5 -65.5c-51.333 0 -99 9.66699 -143 29s-78.833 47.166 -104.5 83.499s-38.5 78.166 -38.5 125.499
c0 64.667 22.333 115.334 67 152.001s95.334 55 152.001 55c56 0 102.333 -18.667 139 -56s55 -87 55 -149c0 -23.333 -4 -45 -12 -65c-14 -38.667 -38.667 -67.667 -74 -87c-12 -6 -18 -12.667 -18 -20c0 -8 7.33301 -12 22 -12c56 0 98.333 29.167 127 87.5
s43.667 128.833 45 211.5l11 608h-166v49h983v-49h-117z" />
    <glyph glyph-name="afii10077" unicode="&#x43b;" horiz-adv-x="1421" 
d="M1243 938l-0.000976562 -888.999h117v-49h-721v49h125v889h-172l-10 -608c-2 -57.333 -7.33301 -109 -16 -155s-32.5 -90.833 -71.5 -134.5s-98.833 -65.5 -179.5 -65.5c-51.333 0 -99 9.66699 -143 29s-78.833 47.166 -104.5 83.499s-38.5 78.166 -38.5 125.499
c0 64.667 22.333 115.334 67 152.001s95.334 55 152.001 55c56 0 102.333 -18.667 139 -56s55 -87 55 -149c0 -23.333 -4 -45 -12 -65c-14 -38.667 -38.667 -67.667 -74 -87c-12 -6 -18 -12.667 -18 -20c0 -8 7.33301 -12 22 -12c56 0 98.333 29.167 127 87.5
s43.667 128.833 45 211.5l11 608h-166v49h983v-49h-117z" />
    <glyph glyph-name="afii10078" unicode="&#xec;" horiz-adv-x="1722" 
d="M606 0l-350 860h-8v-649c0 -60.667 9.33301 -102.834 28 -126.501s46.667 -35.5 84 -35.5h37v-49h-342v49h27c38 0 66.333 11.833 85 35.5s28 65.834 28 126.501v727h-117v49h600l178 -469h10l183 469h618v-49h-117v-889h117v-49h-721v49h125v811h-10l-340 -860h-115z
" />
    <glyph glyph-name="afii10078" unicode="&#x43c;" horiz-adv-x="1722" 
d="M606 0l-350 860h-8v-649c0 -60.667 9.33301 -102.834 28 -126.501s46.667 -35.5 84 -35.5h37v-49h-342v49h27c38 0 66.333 11.833 85 35.5s28 65.834 28 126.501v727h-117v49h600l178 -469h10l183 469h618v-49h-117v-889h117v-49h-721v49h125v811h-10l-340 -860h-115z
" />
    <glyph glyph-name="afii10079" unicode="&#xed;" horiz-adv-x="1532" 
d="M664 479v-430h57v-49h-660v49h123v889h-123v49h660v-49h-57v-410h204v410h-57v49h659v-49h-122v-889h122v-49h-659v49h57v430h-204z" />
    <glyph glyph-name="afii10079" unicode="&#x43d;" horiz-adv-x="1532" 
d="M664 479v-430h57v-49h-660v49h123v889h-123v49h660v-49h-57v-410h204v410h-57v49h659v-49h-122v-889h122v-49h-659v49h57v430h-204z" />
    <glyph glyph-name="afii10080" unicode="&#xee;" horiz-adv-x="1356" 
d="M61 494c0 72 14.832 139.669 44.499 203.002s71.834 118.5 126.501 165.5s119.5 83.667 194.5 110s158.833 39.5 251.5 39.5c93.333 0 177.833 -13.333 253.5 -40s140.5 -63.5 194.5 -110.5s95.5 -102 124.5 -165s43.5 -130.5 43.5 -202.5s-14.333 -139.333 -43 -202
s-70.167 -117.834 -124.5 -165.501s-120 -84.834 -197 -111.501s-160.833 -40 -251.5 -40c-89.333 0 -172.333 13.167 -249 39.5s-142.5 63.333 -197.5 111s-97.167 103 -126.5 166s-44 130.5 -44 202.5zM581.999 854.002l0.00195312 -721
c0 -28.667 5.66699 -53.834 17 -75.501s37.666 -32.5 78.999 -32.5s67.666 10.833 78.999 32.5s17 46.834 17 75.501v721c0 72.667 -32 109 -96 109s-96 -36.333 -96 -109z" />
    <glyph glyph-name="afii10080" unicode="&#x43e;" horiz-adv-x="1356" 
d="M61 494c0 72 14.832 139.669 44.499 203.002s71.834 118.5 126.501 165.5s119.5 83.667 194.5 110s158.833 39.5 251.5 39.5c93.333 0 177.833 -13.333 253.5 -40s140.5 -63.5 194.5 -110.5s95.5 -102 124.5 -165s43.5 -130.5 43.5 -202.5s-14.333 -139.333 -43 -202
s-70.167 -117.834 -124.5 -165.501s-120 -84.834 -197 -111.501s-160.833 -40 -251.5 -40c-89.333 0 -172.333 13.167 -249 39.5s-142.5 63.333 -197.5 111s-97.167 103 -126.5 166s-44 130.5 -44 202.5zM581.999 854.002l0.00195312 -721
c0 -28.667 5.66699 -53.834 17 -75.501s37.666 -32.5 78.999 -32.5s67.666 10.833 78.999 32.5s17 46.834 17 75.501v721c0 72.667 -32 109 -96 109s-96 -36.333 -96 -109z" />
    <glyph glyph-name="afii10081" unicode="&#xef;" horiz-adv-x="1497" 
d="M1323 49h117v-49h-662v49h66v889h-185v-889h58v-49h-660v49h123v889h-123v49h1383v-49h-117v-889z" />
    <glyph glyph-name="afii10081" unicode="&#x43f;" horiz-adv-x="1497" 
d="M1323 49h117v-49h-662v49h66v889h-185v-889h58v-49h-660v49h123v889h-123v49h1383v-49h-117v-889z" />
    <glyph glyph-name="afii10082" unicode="&#xf0;" horiz-adv-x="1421" 
d="M770 -471l-725 0.00292969v49h123v1360h-123v49h123c169.333 0 319.333 12.333 450 37v-180h13c64 112 176 168 336 168c86 0 158.5 -22.333 217.5 -67s103 -105.334 132 -182.001s43.5 -161.667 43.5 -255c0 -52.667 -7.33301 -117.834 -22 -195.501
s-52.667 -153.334 -114 -227.001s-152.666 -110.5 -273.999 -110.5c-32.667 0 -65.334 3.16699 -98.001 9.5s-66.5 19 -101.5 38s-69.5 46.167 -103.5 81.5v-526h123v-49zM840 211.003v553c0 33.333 -5.5 60.833 -16.5 82.5s-33.5 32.5 -67.5 32.5
c-31.333 0 -55.333 -11.667 -72 -35s-27 -48 -31 -74s-6 -50 -6 -72v-422c0 -21.333 2 -45 6 -71s14.333 -50.667 31 -74s40.667 -35 72 -35c34 0 56.5 10.833 67.5 32.5s16.5 49.167 16.5 82.5z" />
    <glyph glyph-name="afii10082" unicode="&#x440;" horiz-adv-x="1421" 
d="M770 -471l-725 0.00292969v49h123v1360h-123v49h123c169.333 0 319.333 12.333 450 37v-180h13c64 112 176 168 336 168c86 0 158.5 -22.333 217.5 -67s103 -105.334 132 -182.001s43.5 -161.667 43.5 -255c0 -52.667 -7.33301 -117.834 -22 -195.501
s-52.667 -153.334 -114 -227.001s-152.666 -110.5 -273.999 -110.5c-32.667 0 -65.334 3.16699 -98.001 9.5s-66.5 19 -101.5 38s-69.5 46.167 -103.5 81.5v-526h123v-49zM840 211.003v553c0 33.333 -5.5 60.833 -16.5 82.5s-33.5 32.5 -67.5 32.5
c-31.333 0 -55.333 -11.667 -72 -35s-27 -48 -31 -74s-6 -50 -6 -72v-422c0 -21.333 2 -45 6 -71s14.333 -50.667 31 -74s40.667 -35 72 -35c34 0 56.5 10.833 67.5 32.5s16.5 49.167 16.5 82.5z" />
    <glyph glyph-name="afii10083" unicode="&#xf1;" horiz-adv-x="1225" 
d="M1124 287l38.9971 -31.002c-48.667 -74.667 -102.5 -132.667 -161.5 -174s-118.333 -69.5 -178 -84.5s-120.5 -22.5 -182.5 -22.5c-88 0 -167.167 11 -237.5 33s-131.333 55 -183 99s-91.167 99.333 -118.5 166s-41 142.334 -41 227.001c0 146 39.333 257 118 333
s164 124.833 256 146.5s171.667 32.5 239 32.5c100 0 187 -11.667 261 -35s130.5 -58 169.5 -104s58.5 -100.667 58.5 -164c0 -70.667 -19.667 -128 -59 -172s-90.666 -66 -153.999 -66c-38.667 0 -76.334 7.5 -113.001 22.5s-66.167 38.5 -88.5 70.5
s-33.5 72.667 -33.5 122c0 57.333 17.833 103.833 53.5 139.5s84.5 53.5 146.5 53.5c30 0 59.667 -5 89 -15c-7.33301 30.667 -28.666 53.667 -63.999 69s-77.666 23 -126.999 23c-85.333 0 -145.166 -26.833 -179.499 -80.5s-51.5 -146.167 -51.5 -277.5v-135
c0 -84 6.33301 -153.5 19 -208.5s36.834 -97.833 72.501 -128.5s85.5 -46 149.5 -46c54.667 0 109.167 19.833 163.5 59.5s100.166 88.834 137.499 147.501z" />
    <glyph glyph-name="afii10083" unicode="&#x441;" horiz-adv-x="1225" 
d="M1124 287l38.9971 -31.002c-48.667 -74.667 -102.5 -132.667 -161.5 -174s-118.333 -69.5 -178 -84.5s-120.5 -22.5 -182.5 -22.5c-88 0 -167.167 11 -237.5 33s-131.333 55 -183 99s-91.167 99.333 -118.5 166s-41 142.334 -41 227.001c0 146 39.333 257 118 333
s164 124.833 256 146.5s171.667 32.5 239 32.5c100 0 187 -11.667 261 -35s130.5 -58 169.5 -104s58.5 -100.667 58.5 -164c0 -70.667 -19.667 -128 -59 -172s-90.666 -66 -153.999 -66c-38.667 0 -76.334 7.5 -113.001 22.5s-66.167 38.5 -88.5 70.5
s-33.5 72.667 -33.5 122c0 57.333 17.833 103.833 53.5 139.5s84.5 53.5 146.5 53.5c30 0 59.667 -5 89 -15c-7.33301 30.667 -28.666 53.667 -63.999 69s-77.666 23 -126.999 23c-85.333 0 -145.166 -26.833 -179.499 -80.5s-51.5 -146.167 -51.5 -277.5v-135
c0 -84 6.33301 -153.5 19 -208.5s36.834 -97.833 72.501 -128.5s85.5 -46 149.5 -46c54.667 0 109.167 19.833 163.5 59.5s100.166 88.834 137.499 147.501z" />
    <glyph glyph-name="afii10084" unicode="&#xf2;" horiz-adv-x="1331" 
d="M426 49v903c-53.333 -2.66699 -103.5 -18.834 -150.5 -48.501s-86.5 -68.5 -118.5 -116.5s-52.333 -100 -61 -156h-43v356h1225v-356h-43c-8.66699 56 -29 108 -61 156s-71.5 86.833 -118.5 116.5s-97.167 45.834 -150.5 48.501v-903h117v-49h-721v49h125z" />
    <glyph glyph-name="afii10084" unicode="&#x442;" horiz-adv-x="1331" 
d="M426 49v903c-53.333 -2.66699 -103.5 -18.834 -150.5 -48.501s-86.5 -68.5 -118.5 -116.5s-52.333 -100 -61 -156h-43v356h1225v-356h-43c-8.66699 56 -29 108 -61 156s-71.5 86.833 -118.5 116.5s-97.167 45.834 -150.5 48.501v-903h117v-49h-721v49h125z" />
    <glyph glyph-name="afii10085" unicode="&#xf3;" horiz-adv-x="1462" 
d="M43 987l808.999 0.000976562v-49h-125l299 -567l148 319c28.667 63.333 43 114 43 152c0 64 -48.667 96 -146 96v49h391v-49c-47.333 -5.33301 -84.5 -25.333 -111.5 -60s-63.5 -98.667 -109.5 -192l-461 -926c-37.333 -73.333 -90.5 -126.833 -159.5 -160.5
s-142.167 -50.5 -219.5 -50.5c-81.333 0 -152.166 21.167 -212.499 63.5s-90.5 102.5 -90.5 180.5c0 74 21.833 131.5 65.5 172.5s97.834 61.5 162.501 61.5c70 0 122.667 -21.333 158 -64s53 -92.334 53 -149.001c0 -58 -20.833 -103.667 -62.5 -137
s-91.834 -50 -150.501 -50c6 -18.667 29.667 -28 71 -28c96.667 0 173.167 22.5 229.5 67.5s97.5 94.167 123.5 147.5l47 94l-637 1030h-115v49z" />
    <glyph glyph-name="afii10085" unicode="&#x443;" horiz-adv-x="1462" 
d="M43 987l808.999 0.000976562v-49h-125l299 -567l148 319c28.667 63.333 43 114 43 152c0 64 -48.667 96 -146 96v49h391v-49c-47.333 -5.33301 -84.5 -25.333 -111.5 -60s-63.5 -98.667 -109.5 -192l-461 -926c-37.333 -73.333 -90.5 -126.833 -159.5 -160.5
s-142.167 -50.5 -219.5 -50.5c-81.333 0 -152.166 21.167 -212.499 63.5s-90.5 102.5 -90.5 180.5c0 74 21.833 131.5 65.5 172.5s97.834 61.5 162.501 61.5c70 0 122.667 -21.333 158 -64s53 -92.334 53 -149.001c0 -58 -20.833 -103.667 -62.5 -137
s-91.834 -50 -150.501 -50c6 -18.667 29.667 -28 71 -28c96.667 0 173.167 22.5 229.5 67.5s97.5 94.167 123.5 147.5l47 94l-637 1030h-115v49z" />
    <glyph glyph-name="afii10086" unicode="&#xf4;" horiz-adv-x="1970" 
d="M745 1384l-122.002 0.000976562v50h149c112.667 0 203 3.16699 271 9.5s128.667 15.166 182 26.499v-587c36.667 54 80.834 89 132.501 105s96.167 24 133.5 24c55.333 0 108.666 -11.5 159.999 -34.5s96 -55.833 134 -98.5s68.167 -94.667 90.5 -156
s33.5 -129.666 33.5 -204.999c0 -99.333 -17.833 -190.833 -53.5 -274.5s-85 -149.334 -148 -197.001s-132.5 -71.5 -208.5 -71.5c-109.333 0 -200.666 39 -273.999 117v-514h123v-49h-725v49h122v514c-73.333 -78 -164.666 -117 -273.999 -117
c-76 0 -145.333 23.833 -208 71.5s-112 113.167 -148 196.5s-54 175 -54 275s19 187.333 57 262s89.167 132 153.5 172s133.5 60 207.5 60c38 0 82.667 -8 134 -24s95.333 -51 132 -105v501zM568.998 764.001v-545c0 -33.333 5.83301 -60.833 17.5 -82.5
s33.834 -32.5 66.501 -32.5c36.667 0 64 17.167 82 51.5s27 77.5 27 129.5v413c0 35.333 -3.83301 66.333 -11.5 93s-19.5 48 -35.5 64s-36.667 24 -62 24c-32.667 0 -54.834 -10.833 -66.501 -32.5s-17.5 -49.167 -17.5 -82.5zM1401 219.001v545
c0 33.333 -5.66699 60.833 -17 82.5s-33.666 32.5 -66.999 32.5c-36.667 0 -64 -17.167 -82 -51.5s-27 -77.5 -27 -129.5v-413c0 -35.333 3.83301 -66.333 11.5 -93s19.5 -48 35.5 -64s36.667 -24 62 -24c33.333 0 55.666 10.833 66.999 32.5s17 49.167 17 82.5z" />
    <glyph glyph-name="afii10086" unicode="&#x444;" horiz-adv-x="1970" 
d="M745 1384l-122.002 0.000976562v50h149c112.667 0 203 3.16699 271 9.5s128.667 15.166 182 26.499v-587c36.667 54 80.834 89 132.501 105s96.167 24 133.5 24c55.333 0 108.666 -11.5 159.999 -34.5s96 -55.833 134 -98.5s68.167 -94.667 90.5 -156
s33.5 -129.666 33.5 -204.999c0 -99.333 -17.833 -190.833 -53.5 -274.5s-85 -149.334 -148 -197.001s-132.5 -71.5 -208.5 -71.5c-109.333 0 -200.666 39 -273.999 117v-514h123v-49h-725v49h122v514c-73.333 -78 -164.666 -117 -273.999 -117
c-76 0 -145.333 23.833 -208 71.5s-112 113.167 -148 196.5s-54 175 -54 275s19 187.333 57 262s89.167 132 153.5 172s133.5 60 207.5 60c38 0 82.667 -8 134 -24s95.333 -51 132 -105v501zM568.998 764.001v-545c0 -33.333 5.83301 -60.833 17.5 -82.5
s33.834 -32.5 66.501 -32.5c36.667 0 64 17.167 82 51.5s27 77.5 27 129.5v413c0 35.333 -3.83301 66.333 -11.5 93s-19.5 48 -35.5 64s-36.667 24 -62 24c-32.667 0 -54.834 -10.833 -66.501 -32.5s-17.5 -49.167 -17.5 -82.5zM1401 219.001v545
c0 33.333 -5.66699 60.833 -17 82.5s-33.666 32.5 -66.999 32.5c-36.667 0 -64 -17.167 -82 -51.5s-27 -77.5 -27 -129.5v-413c0 -35.333 3.83301 -66.333 11.5 -93s19.5 -48 35.5 -64s36.667 -24 62 -24c33.333 0 55.666 10.833 66.999 32.5s17 49.167 17 82.5z" />
    <glyph glyph-name="afii10087" unicode="&#xf5;" horiz-adv-x="1470" 
d="M952 653l146 162.001c20 23.333 30 44.666 30 63.999c0 39.333 -35.333 59 -106 59h-94v49h477v-49c-92.667 -4 -176.667 -49 -252 -135l-174 -193l395 -561h53v-49h-763v49h120l-235 340l-168 -192c-22 -26.667 -33 -54 -33 -82c0 -44 35 -66 105 -66h116v-49h-526v49
c33.333 2 75.833 14.333 127.5 37s106.167 67 163.5 133l186 211l-366 508h-111v49h793v-49h-82z" />
    <glyph glyph-name="afii10087" unicode="&#x445;" horiz-adv-x="1470" 
d="M952 653l146 162.001c20 23.333 30 44.666 30 63.999c0 39.333 -35.333 59 -106 59h-94v49h477v-49c-92.667 -4 -176.667 -49 -252 -135l-174 -193l395 -561h53v-49h-763v49h120l-235 340l-168 -192c-22 -26.667 -33 -54 -33 -82c0 -44 35 -66 105 -66h116v-49h-526v49
c33.333 2 75.833 14.333 127.5 37s106.167 67 163.5 133l186 211l-366 508h-111v49h793v-49h-82z" />
    <glyph glyph-name="afii10088" unicode="&#xf6;" horiz-adv-x="1552" 
d="M180 938l-119 0.000976562v49h662v-49h-64v-889h185v889h-58v49h662v-49h-125v-889h201v-438h-54c0 116 -20.5 202.667 -61.5 260s-87.5 93.166 -139.5 107.499s-107.667 21.5 -167 21.5h-1041v49h119v889z" />
    <glyph glyph-name="afii10088" unicode="&#x446;" horiz-adv-x="1552" 
d="M180 938l-119 0.000976562v49h662v-49h-64v-889h185v889h-58v49h662v-49h-125v-889h201v-438h-54c0 116 -20.5 202.667 -61.5 260s-87.5 93.166 -139.5 107.499s-107.667 21.5 -167 21.5h-1041v49h119v889z" />
    <glyph glyph-name="afii10089" unicode="&#xf7;" horiz-adv-x="1493" 
d="M829 508v430.001h-57v49h660v-49h-123v-889h123v-49h-725v49h122v402c-60 -15.333 -122.833 -28.5 -188.5 -39.5s-122.167 -16.5 -169.5 -16.5c-125.333 0 -207.5 28.667 -246.5 86s-58.5 123.666 -58.5 198.999v258h-123v49h659v-49h-57v-363c0 -61.333 28 -92 84 -92
c30.667 0 64 8.33301 100 25z" />
    <glyph glyph-name="afii10089" unicode="&#x447;" horiz-adv-x="1493" 
d="M829 508v430.001h-57v49h660v-49h-123v-889h123v-49h-725v49h122v402c-60 -15.333 -122.833 -28.5 -188.5 -39.5s-122.167 -16.5 -169.5 -16.5c-125.333 0 -207.5 28.667 -246.5 86s-58.5 123.666 -58.5 198.999v258h-123v49h659v-49h-57v-363c0 -61.333 28 -92 84 -92
c30.667 0 64 8.33301 100 25z" />
    <glyph glyph-name="afii10090" unicode="&#xf8;" horiz-adv-x="2175" 
d="M664 49h184v889h-57v49h593v-49h-57v-889h184v889h-57v49h660v-49h-123v-889h123v-49h-2053v49h123v889h-123v49h660v-49h-57v-889z" />
    <glyph glyph-name="afii10090" unicode="&#x448;" horiz-adv-x="2175" 
d="M664 49h184v889h-57v49h593v-49h-57v-889h184v889h-57v49h660v-49h-123v-889h123v-49h-2053v49h123v889h-123v49h660v-49h-57v-889z" />
    <glyph glyph-name="afii10091" unicode="&#xf9;" horiz-adv-x="2220" 
d="M664 49l183.999 -0.00195312v889h-57v49h593v-49h-57v-889h184v889h-57v49h660v-49h-123v-889h200v-438h-53c0 91.333 -12.667 163.833 -38 217.5s-56.833 92.334 -94.5 116.001s-75.167 38.834 -112.5 45.501s-78.666 10 -123.999 10h-1708v49h123v889h-123v49h660v-49
h-57v-889z" />
    <glyph glyph-name="afii10091" unicode="&#x449;" horiz-adv-x="2220" 
d="M664 49l183.999 -0.00195312v889h-57v49h593v-49h-57v-889h184v889h-57v49h660v-49h-123v-889h200v-438h-53c0 91.333 -12.667 163.833 -38 217.5s-56.833 92.334 -94.5 116.001s-75.167 38.834 -112.5 45.501s-78.666 10 -123.999 10h-1708v49h123v889h-123v49h660v-49
h-57v-889z" />
    <glyph glyph-name="afii10092" unicode="&#xfa;" horiz-adv-x="1698" 
d="M942 598l258.001 0.000976562c82 0 155.667 -6.83301 221 -20.5s121 -42.334 167 -86.001s69 -105.834 69 -186.501c0 -34 -5.83301 -68.167 -17.5 -102.5s-33.334 -67.166 -65.001 -98.499s-75.667 -56.5 -132 -75.5s-127.5 -28.5 -213.5 -28.5h-889v49h123v889
c-48 0 -93 -6.66699 -135 -20s-79.833 -33 -113.5 -59s-61.667 -58 -84 -96s-38.5 -83.333 -48.5 -136h-49l12 360h1020v-49h-123v-340zM942.001 549.001v-500h39c48.667 0 86.834 7.33301 114.501 22s41.5 49 41.5 103v250c0 54 -13.833 88.333 -41.5 103
s-65.834 22 -114.501 22h-39z" />
    <glyph glyph-name="afii10092" unicode="&#x44a;" horiz-adv-x="1698" 
d="M942 598l258.001 0.000976562c82 0 155.667 -6.83301 221 -20.5s121 -42.334 167 -86.001s69 -105.834 69 -186.501c0 -34 -5.83301 -68.167 -17.5 -102.5s-33.334 -67.166 -65.001 -98.499s-75.667 -56.5 -132 -75.5s-127.5 -28.5 -213.5 -28.5h-889v49h123v889
c-48 0 -93 -6.66699 -135 -20s-79.833 -33 -113.5 -59s-61.667 -58 -84 -96s-38.5 -83.333 -48.5 -136h-49l12 360h1020v-49h-123v-340zM942.001 549.001v-500h39c48.667 0 86.834 7.33301 114.501 22s41.5 49 41.5 103v250c0 54 -13.833 88.333 -41.5 103
s-65.834 22 -114.501 22h-39z" />
    <glyph glyph-name="afii10093" unicode="&#xfb;" horiz-adv-x="2171" 
d="M664 598h258c130.667 0 239.334 -19.5 326.001 -58.5s130 -117.167 130 -234.5c0 -34 -5.83301 -68.167 -17.5 -102.5s-33 -67 -64 -98s-74.833 -56.167 -131.5 -75.5s-128.334 -29 -215.001 -29h-889v49h123v889h-123v49h725v-49h-122v-340zM664 549v-500h38
c48.667 0 86.834 7.33301 114.501 22s41.5 49 41.5 103v250c0 54 -13.833 88.333 -41.5 103s-65.834 22 -114.501 22h-38zM1987 49h122v-49h-725v49h123v889h-123v49h725v-49h-122v-889z" />
    <glyph glyph-name="afii10093" unicode="&#x44b;" horiz-adv-x="2171" 
d="M664 598h258c130.667 0 239.334 -19.5 326.001 -58.5s130 -117.167 130 -234.5c0 -34 -5.83301 -68.167 -17.5 -102.5s-33 -67 -64 -98s-74.833 -56.167 -131.5 -75.5s-128.334 -29 -215.001 -29h-889v49h123v889h-123v49h725v-49h-122v-340zM664 549v-500h38
c48.667 0 86.834 7.33301 114.501 22s41.5 49 41.5 103v250c0 54 -13.833 88.333 -41.5 103s-65.834 22 -114.501 22h-38zM1987 49h122v-49h-725v49h123v889h-123v49h725v-49h-122v-889z" />
    <glyph glyph-name="afii10094" unicode="&#xfc;" horiz-adv-x="1419" 
d="M664 598h258c130.667 0 239.334 -19.5 326.001 -58.5s130 -117.167 130 -234.5c0 -34 -5.83301 -68.167 -17.5 -102.5s-33 -67 -64 -98s-74.833 -56.167 -131.5 -75.5s-128.334 -29 -215.001 -29h-889v49h123v889h-123v49h725v-49h-122v-340zM664 549v-500h38
c48.667 0 86.834 7.33301 114.501 22s41.5 49 41.5 103v250c0 54 -13.833 88.333 -41.5 103s-65.834 22 -114.501 22h-38z" />
    <glyph glyph-name="afii10094" unicode="&#x44c;" horiz-adv-x="1419" 
d="M664 598h258c130.667 0 239.334 -19.5 326.001 -58.5s130 -117.167 130 -234.5c0 -34 -5.83301 -68.167 -17.5 -102.5s-33 -67 -64 -98s-74.833 -56.167 -131.5 -75.5s-128.334 -29 -215.001 -29h-889v49h123v889h-123v49h725v-49h-122v-340zM664 549v-500h38
c48.667 0 86.834 7.33301 114.501 22s41.5 49 41.5 103v250c0 54 -13.833 88.333 -41.5 103s-65.834 22 -114.501 22h-38z" />
    <glyph glyph-name="afii10095" unicode="&#xfd;" horiz-adv-x="1233" 
d="M334 532l0.000976562 49.999h317v100c0 102 -10.833 174.333 -32.5 217s-61.167 64 -118.5 64c-31.333 0 -65.5 -7.33301 -102.5 -22s-74 -45.167 -111 -91.5s-65.5 -113.166 -85.5 -200.499h-49v355h49l69 -68c76.667 50.667 180 76 310 76
c91.333 0 174 -13.333 248 -40s136.167 -63.334 186.5 -110.001s89 -100 116 -160s40.5 -123.333 40.5 -190c0 -97.333 -26.667 -187.166 -80 -269.499s-128.833 -147.5 -226.5 -195.5s-210.5 -72 -338.5 -72c-110 0 -201.5 13.833 -274.5 41.5s-126.333 63.5 -160 107.5
s-50.5 90.667 -50.5 140c0 53.333 19.167 98.5 57.5 135.5s92.166 55.5 161.499 55.5c50 0 89.667 -9.66699 119 -29s50 -43.166 62 -71.499s18 -57.833 18 -88.5c0 -47.333 -12.333 -85.333 -37 -114s-54 -50 -88 -64c20 -42 63 -63 129 -63c49.333 0 93 18.667 131 56
s57 114.666 57 231.999v219h-317z" />
    <glyph glyph-name="afii10095" unicode="&#x44d;" horiz-adv-x="1233" 
d="M334 532l0.000976562 49.999h317v100c0 102 -10.833 174.333 -32.5 217s-61.167 64 -118.5 64c-31.333 0 -65.5 -7.33301 -102.5 -22s-74 -45.167 -111 -91.5s-65.5 -113.166 -85.5 -200.499h-49v355h49l69 -68c76.667 50.667 180 76 310 76
c91.333 0 174 -13.333 248 -40s136.167 -63.334 186.5 -110.001s89 -100 116 -160s40.5 -123.333 40.5 -190c0 -97.333 -26.667 -187.166 -80 -269.499s-128.833 -147.5 -226.5 -195.5s-210.5 -72 -338.5 -72c-110 0 -201.5 13.833 -274.5 41.5s-126.333 63.5 -160 107.5
s-50.5 90.667 -50.5 140c0 53.333 19.167 98.5 57.5 135.5s92.166 55.5 161.499 55.5c50 0 89.667 -9.66699 119 -29s50 -43.166 62 -71.499s18 -57.833 18 -88.5c0 -47.333 -12.333 -85.333 -37 -114s-54 -50 -88 -64c20 -42 63 -63 129 -63c49.333 0 93 18.667 131 56
s57 114.666 57 231.999v219h-317z" />
    <glyph glyph-name="afii10096" unicode="&#xfe;" horiz-adv-x="2089" 
d="M664 528l132.996 0.000976562c8.66699 106 43.334 195.667 104.001 269s136.334 127.5 227.001 162.5s185 52.5 283 52.5c93.333 0 177.833 -13.333 253.5 -40s140.334 -63.334 194.001 -110.001s95.334 -101.667 125.001 -165s44.5 -131 44.5 -203
s-14.667 -139.5 -44 -202.5s-71 -118.167 -125 -165.5s-119.5 -84.333 -196.5 -111s-160.833 -40 -251.5 -40c-80 0 -156 11 -228 33s-137 55 -195 99s-103.667 97 -137 159s-52 133 -56 213h-131v-430h122v-49h-725v49h123v889h-123v49h725v-49h-122v-410zM1315 854.001
l0.00195312 -721c0 -28.667 5.66699 -53.834 17 -75.501s37.666 -32.5 78.999 -32.5s67.666 10.833 78.999 32.5s17 46.834 17 75.501v721c0 72.667 -32 109 -96 109s-96 -36.333 -96 -109z" />
    <glyph glyph-name="afii10096" unicode="&#x44e;" horiz-adv-x="2089" 
d="M664 528l132.996 0.000976562c8.66699 106 43.334 195.667 104.001 269s136.334 127.5 227.001 162.5s185 52.5 283 52.5c93.333 0 177.833 -13.333 253.5 -40s140.334 -63.334 194.001 -110.001s95.334 -101.667 125.001 -165s44.5 -131 44.5 -203
s-14.667 -139.5 -44 -202.5s-71 -118.167 -125 -165.5s-119.5 -84.333 -196.5 -111s-160.833 -40 -251.5 -40c-80 0 -156 11 -228 33s-137 55 -195 99s-103.667 97 -137 159s-52 133 -56 213h-131v-430h122v-49h-725v49h123v889h-123v49h725v-49h-122v-410zM1315 854.001
l0.00195312 -721c0 -28.667 5.66699 -53.834 17 -75.501s37.666 -32.5 78.999 -32.5s67.666 10.833 78.999 32.5s17 46.834 17 75.501v721c0 72.667 -32 109 -96 109s-96 -36.333 -96 -109z" />
    <glyph glyph-name="afii10097" unicode="&#xff;" horiz-adv-x="1507" 
d="M844 500l-73.999 -0.00390625c-30 0 -53.667 -7 -71 -21s-27.666 -46.667 -30.999 -98c-7.33301 -101.333 -15.833 -176.166 -25.5 -224.499s-34.167 -90.666 -73.5 -126.999s-100.666 -54.5 -183.999 -54.5c-126 0 -240.667 50.667 -344 152l33 33
c23.333 -22 49.333 -33 78 -33c24 0 39.5 7.66699 46.5 23s13.167 49.333 18.5 102c5.33301 45.333 14.666 85 27.999 119s43.666 65 90.999 93s117 42 209 42v20c-79.333 0 -150.333 7.16699 -213 21.5s-112.167 38.333 -148.5 72s-54.5 77.834 -54.5 132.501
c0 68 19.667 119.333 59 154s88.166 56.834 146.499 66.501s125.833 14.5 202.5 14.5h909v-49h-123v-889h123v-49h-727v49h125v451zM844.001 548.996v393h-39c-48.667 0 -86.834 -7.33301 -114.501 -22s-41.5 -49 -41.5 -103v-143c0 -54 13.833 -88.333 41.5 -103
s65.834 -22 114.501 -22h39z" />
    <glyph glyph-name="afii10097" unicode="&#x44f;" horiz-adv-x="1507" 
d="M844 500l-73.999 -0.00390625c-30 0 -53.667 -7 -71 -21s-27.666 -46.667 -30.999 -98c-7.33301 -101.333 -15.833 -176.166 -25.5 -224.499s-34.167 -90.666 -73.5 -126.999s-100.666 -54.5 -183.999 -54.5c-126 0 -240.667 50.667 -344 152l33 33
c23.333 -22 49.333 -33 78 -33c24 0 39.5 7.66699 46.5 23s13.167 49.333 18.5 102c5.33301 45.333 14.666 85 27.999 119s43.666 65 90.999 93s117 42 209 42v20c-79.333 0 -150.333 7.16699 -213 21.5s-112.167 38.333 -148.5 72s-54.5 77.834 -54.5 132.501
c0 68 19.667 119.333 59 154s88.166 56.834 146.499 66.501s125.833 14.5 202.5 14.5h909v-49h-123v-889h123v-49h-727v49h125v451zM844.001 548.996v393h-39c-48.667 0 -86.834 -7.33301 -114.501 -22s-41.5 -49 -41.5 -103v-143c0 -54 13.833 -88.333 41.5 -103
s65.834 -22 114.501 -22h39z" />
    <glyph glyph-name="afii10059" unicode="&#x152;" horiz-adv-x="2630" 
d="M82 1434h844v-54h-74v-622h242v622h-74v54h844v-54h-152v-520h246c420.667 0 631 -142 631 -426c0 -99.333 -24.167 -181.5 -72.5 -246.5s-114.5 -112.5 -198.5 -142.5s-178 -45 -282 -45h-1016v53h74v652h-242v-652h74v-53h-844v53h151v1327h-151v54zM1712 53
l84 0.000976562c30.667 0 57 3.33301 79 10s40.667 22.667 56 48s23 64.666 23 117.999v402c0 75.333 -13.833 123.5 -41.5 144.5s-66.5 31.5 -116.5 31.5h-84v-754z" />
    <glyph glyph-name="afii10107" unicode="&#x153;" horiz-adv-x="2103" 
d="M664 479l-0.000976562 -430h57v-49h-660v49h123v889h-123v49h660v-49h-57v-410h204v410h-57v49h659v-49h-122v-340h258c130.667 0 239.334 -19.5 326.001 -58.5s130 -117.167 130 -234.5c0 -58 -15.667 -110 -47 -156s-79.5 -82.333 -144.5 -109s-143.833 -40 -236.5 -40
h-823v49h57v430h-204zM1348 549v-500h38c48.667 0 86.834 7.33301 114.501 22s41.5 49 41.5 103v250c0 54 -13.833 88.333 -41.5 103s-65.834 22 -114.501 22h-38z" />
    <glyph glyph-name="afii10058" unicode="&#x160;" horiz-adv-x="2462" 
d="M426 1434l1270 -0.00292969v-54h-152v-520h246c420.667 0 631 -142 631 -426c0 -99.333 -24.167 -181.5 -72.5 -246.5s-114.5 -112.5 -198.5 -142.5s-178 -45 -282 -45h-1094v53h152v1327h-111c-30 0 -54.5 -7 -73.5 -21s-28.5 -46.333 -28.5 -97v-605
c0 -115.333 -9.33301 -216.333 -28 -303s-45.834 -158.5 -81.501 -215.5s-79.167 -99.5 -130.5 -127.5s-108.666 -42 -171.999 -42c-55.333 0 -104.666 11.833 -147.999 35.5s-76.333 56 -99 97s-34 86.5 -34 136.5c0 53.333 11.5 98.833 34.5 136.5s53.5 66.167 91.5 85.5
s79.333 29 124 29c68 0 124.333 -20.5 169 -61.5s67 -96.833 67 -167.5c0 -77.333 -20 -134.666 -60 -171.999l7 -6c54 21.333 100.5 73.833 139.5 157.5s58.5 222.834 58.5 417.501v588c0 56.667 -11.167 93.334 -33.5 110.001s-50.833 25 -85.5 25h-106v54zM1544 52.9971
l84 0.000976562c30.667 0 57 3.33301 79 10s40.667 22.667 56 48s23 64.666 23 117.999v402c0 75.333 -13.833 123.5 -41.5 144.5s-66.5 31.5 -116.5 31.5h-84v-754z" />
    <glyph glyph-name="afii10106" unicode="&#x161;" horiz-adv-x="1999" 
d="M764 938l-182 0.00195312v-608c0 -86 -16.333 -166.667 -49 -242s-105.334 -113 -218.001 -113c-51.333 0 -99 9.66699 -143 29s-78.833 47.166 -104.5 83.499s-38.5 78.166 -38.5 125.499c0 64.667 22.333 115.334 67 152.001s95.334 55 152.001 55
c56 0 102.333 -18.667 139 -56s55 -87 55 -149c0 -39.333 -10.667 -74 -32 -104c-14 -20 -32 -36 -54 -48c-12 -6 -18 -12.667 -18 -20c0 -8 7.33301 -12 22 -12c38.667 0 70.834 14.167 96.501 42.5s44.667 65.333 57 111s18.5 94.167 18.5 145.5v608h-155v49h983v-49h-117
v-340h258c82 0 155.667 -6.83301 221 -20.5s121 -42.334 167 -86.001s69 -105.834 69 -186.501c0 -34 -5.83301 -68.167 -17.5 -102.5s-33.334 -67.166 -65.001 -98.499s-75.667 -56.5 -132 -75.5s-127.5 -28.5 -213.5 -28.5h-891v49h125v889zM1243 549.002v-500h39
c48.667 0 86.834 7.33301 114.501 22s41.5 49 41.5 103v250c0 54 -13.833 88.333 -41.5 103s-65.834 22 -114.501 22h-39z" />
    <glyph glyph-name="afii10193" unicode="&#x178;" horiz-adv-x="1497" 
d="M174 938h-117v49h662v-49h-66v-889h185v889h-58v49h660v-49h-123v-889h123v-49h-383c-80 0 -146.833 -23.5 -200.5 -70.5s-81.834 -153.167 -84.501 -318.5h-53c-2 114.667 -18 201 -48 259s-64.667 94.167 -104 108.5s-83.666 21.5 -132.999 21.5h-377v49h117v889z" />
    <glyph glyph-name="afii10100" unicode="&#x192;" horiz-adv-x="1163" 
d="M664 938l-0.00195312 -889h122v-49h-725v49h123v889h-123v49h1074v-360h-50c-5.33301 34.667 -14.5 68.334 -27.5 101.001s-32.667 65.167 -59 97.5s-62.166 59.166 -107.499 80.499s-98.666 32 -159.999 32h-67z" />
    <glyph glyph-name="emdash" unicode="&#x2013;" 
 />
    <glyph glyph-name="endash" unicode="&#x2014;" horiz-adv-x="1884" 
d="M123 614h1638v-204h-1638v204z" />
    <glyph glyph-name="quoteleft" unicode="&#x2018;" horiz-adv-x="737" 
d="M477 1495l25 -55c-73.333 -19.333 -137.5 -50 -192.5 -92s-82.5 -81 -82.5 -117c0 -14 5 -21 15 -21c8.66699 0 19.5 5 32.5 15s27.667 18.333 44 25s40.5 10 72.5 10c70 0 124.667 -19 164 -57s59 -86 59 -144c0 -67.333 -21.833 -122.5 -65.5 -165.5
s-102.834 -64.5 -177.501 -64.5c-75.333 0 -135.5 23.167 -180.5 69.5s-67.5 112.833 -67.5 199.5c0 92.667 28.833 174.5 86.5 245.5s146.834 121.5 267.501 151.5z" />
    <glyph glyph-name="quoteright" unicode="&#x2019;" horiz-adv-x="737" 
d="M260 799l-24.002 55.0029c74.667 19.333 139 50.166 193 92.499s81 81.166 81 116.499c0 13.333 -4.66699 20 -14 20c-10 0 -21.167 -4.83301 -33.5 -14.5s-26.166 -17.834 -41.499 -24.501s-40.333 -10 -75 -10c-69.333 0 -123.833 19 -163.5 57s-59.5 86 -59.5 144
c0 42.667 9.83301 81.5 29.5 116.5s48 62.5 85 82.5s80.167 30 129.5 30c74.667 0 134.5 -22.833 179.5 -68.5s67.5 -112.167 67.5 -199.5c0 -94 -28.167 -175.667 -84.5 -245s-146.166 -120 -269.499 -152z" />
    <glyph glyph-name="quotesinglbase" unicode="&#x201a;" horiz-adv-x="737" 
d="M260 -266l-24.002 55.002c74.667 19.333 139 50.166 193 92.499s81 81.166 81 116.499c0 13.333 -4.66699 20 -14 20c-5.33301 0 -11 -2 -17 -6c-23.333 -14.667 -44.166 -25.5 -62.499 -32.5s-41.833 -10.5 -70.5 -10.5c-69.333 0 -123.833 19 -163.5 57
s-59.5 86 -59.5 144c0 42.667 9.83301 81.5 29.5 116.5s48 62.5 85 82.5s80.167 30 129.5 30c74.667 0 134.5 -22.833 179.5 -68.5s67.5 -112.167 67.5 -199.5c0 -94 -28.167 -175.667 -84.5 -245s-146.166 -120 -269.499 -152z" />
    <glyph glyph-name="quotedblleft" unicode="&#x201c;" horiz-adv-x="1331" 
d="M1071 1495l25 -55c-74 -19.333 -138.333 -50 -193 -92s-82 -81 -82 -117c0 -14 5 -21 15 -21c8.66699 0 19.167 4.83301 31.5 14.5s27 18 44 25s41.5 10.5 73.5 10.5c69.333 0 123.833 -19 163.5 -57s59.5 -86 59.5 -144c0 -67.333 -21.833 -122.5 -65.5 -165.5
s-102.834 -64.5 -177.501 -64.5c-75.333 0 -135.5 23.167 -180.5 69.5s-67.5 112.833 -67.5 199.5c0 92.667 28.833 174.5 86.5 245.5s146.834 121.5 267.501 151.5zM477 1495l25 -55c-73.333 -19.333 -137.5 -50 -192.5 -92s-82.5 -81 -82.5 -117c0 -14 5 -21 15 -21
c8.66699 0 19.5 5 32.5 15s27.667 18.333 44 25s40.5 10 72.5 10c70 0 124.667 -19 164 -57s59 -86 59 -144c0 -67.333 -21.833 -122.5 -65.5 -165.5s-102.834 -64.5 -177.501 -64.5c-75.333 0 -135.5 23.167 -180.5 69.5s-67.5 112.833 -67.5 199.5
c0 92.667 28.833 174.5 86.5 245.5s146.834 121.5 267.501 151.5z" />
    <glyph glyph-name="quotedblright" unicode="&#x201d;" horiz-adv-x="1331" 
d="M260 799l-24.002 55.0029c74.667 19.333 139 50.166 193 92.499s81 81.166 81 116.499c0 13.333 -4.66699 20 -14 20c-10 0 -21.167 -4.83301 -33.5 -14.5s-26.166 -17.834 -41.499 -24.501s-40.333 -10 -75 -10c-69.333 0 -123.833 19 -163.5 57s-59.5 86 -59.5 144
c0 42.667 9.83301 81.5 29.5 116.5s48 62.5 85 82.5s80.167 30 129.5 30c74.667 0 134.5 -22.833 179.5 -68.5s67.5 -112.167 67.5 -199.5c0 -94 -28.167 -175.667 -84.5 -245s-146.166 -120 -269.499 -152zM853.998 799.003l-25.002 55.001
c76 20 140.833 50.833 194.5 92.5s80.5 80.5 80.5 116.5c0 13.333 -4.66699 20 -14 20c-10 0 -21.167 -4.83301 -33.5 -14.5s-26.166 -17.834 -41.499 -24.501s-40.333 -10 -75 -10c-69.333 0 -123.833 19 -163.5 57s-59.5 86 -59.5 144c0 42.667 9.83301 81.5 29.5 116.5
s48 62.5 85 82.5s80.167 30 129.5 30c74.667 0 134.5 -22.833 179.5 -68.5s67.5 -112.167 67.5 -199.5c0 -94 -28.167 -175.667 -84.5 -245s-146.166 -120 -269.499 -152z" />
    <glyph glyph-name="quotedblbase" unicode="&#x201e;" horiz-adv-x="1331" 
d="M260 -266l-24.002 55.0029c74.667 19.333 139 50.166 193 92.499s81 81.166 81 116.499c0 13.333 -4.66699 20 -14 20c-10 0 -21.167 -4.83301 -33.5 -14.5s-26.166 -17.834 -41.499 -24.501s-40.333 -10 -75 -10c-69.333 0 -123.833 19 -163.5 57s-59.5 86 -59.5 144
c0 42.667 9.83301 81.5 29.5 116.5s48 62.5 85 82.5s80.167 30 129.5 30c74.667 0 134.5 -22.833 179.5 -68.5s67.5 -112.167 67.5 -199.5c0 -94 -28.167 -175.667 -84.5 -245s-146.166 -120 -269.499 -152zM853.998 -265.997l-25.002 55.001
c76 20 140.833 50.833 194.5 92.5s80.5 80.5 80.5 116.5c0 13.333 -4.66699 20 -14 20c-10 0 -21.167 -4.83301 -33.5 -14.5s-26.166 -17.834 -41.499 -24.501s-40.333 -10 -75 -10c-69.333 0 -123.833 19 -163.5 57s-59.5 86 -59.5 144c0 42.667 9.83301 81.5 29.5 116.5
s48 62.5 85 82.5s80.167 30 129.5 30c74.667 0 134.5 -22.833 179.5 -68.5s67.5 -112.167 67.5 -199.5c0 -94 -28.167 -175.667 -84.5 -245s-146.166 -120 -269.499 -152z" />
    <glyph glyph-name="dagger" unicode="&#x2020;" horiz-adv-x="1434" 
d="M680 -471l0.00292969 522.001c0 73.333 -2.66699 136.833 -8 190.5s-16.5 103.667 -33.5 150s-42.833 94.166 -77.5 143.499c34.667 38 63.834 84.333 87.501 139s35.5 105 35.5 151c-32.667 0 -63.5 -5.66699 -92.5 -17s-69.833 -34.333 -122.5 -69
c-31.333 -21.333 -58.666 -37.5 -81.999 -48.5s-52 -16.5 -86 -16.5c-50.667 0 -93 18.167 -127 54.5s-51 79.5 -51 129.5c0 34.667 7.5 66.167 22.5 94.5s36.167 50.333 63.5 66s58 23.5 92 23.5c36 0 66 -5.66699 90 -17s50 -27.333 78 -48
c50 -32.667 90.667 -55.167 122 -67.5s62.333 -18.5 93 -18.5c0 34 -6.16699 65.333 -18.5 94s-38.833 71 -79.5 127l-25.5 36.5c-8.33301 12.333 -16.5 26.333 -24.5 42s-14 31.5 -18 47.5s-6 32 -6 48c0 35.333 9.16699 66.5 27.5 93.5s43.166 47.833 74.499 62.5
s65.666 22 102.999 22c36 0 69.833 -7.33301 101.5 -22s56.834 -35.5 75.501 -62.5s28 -58.167 28 -93.5c0 -34.667 -6 -63.5 -18 -86.5s-30.667 -52.167 -56 -87.5c-38.667 -53.333 -64.667 -95 -78 -125s-20 -62 -20 -96c31.333 0 62.666 6.16699 93.999 18.5
s71.666 34.833 120.999 67.5c33.333 22 61.333 38.333 84 49s50.667 16 84 16c34 0 64.667 -7.83301 92 -23.5s48.5 -37.667 63.5 -66s22.5 -59.833 22.5 -94.5c0 -50 -16.833 -93.167 -50.5 -129.5s-76.167 -54.5 -127.5 -54.5c-31.333 0 -57.5 4.83301 -78.5 14.5
s-50.833 26.5 -89.5 50.5c-52.667 34 -93.334 56.833 -122.001 68.5s-59.667 17.5 -93 17.5c4 -101.333 44.667 -198 122 -290c-32.667 -46.667 -57.834 -93.667 -75.501 -141s-29.167 -98 -34.5 -152s-8 -117.667 -8 -191v-522h-74z" />
    <glyph glyph-name="bullet" unicode="&#x2022;" horiz-adv-x="1434" 
d="M328 717c0 48.667 9.16602 96.335 27.499 143.002s44.666 88.667 78.999 126s75.333 66.666 123 87.999s100.834 32 159.501 32s112 -10.833 160 -32.5s88.833 -50.834 122.5 -87.501s59.834 -78.5 78.501 -125.5s28 -94.833 28 -143.5
c0 -63.333 -15.833 -125.333 -47.5 -186s-77.5 -109.667 -137.5 -147s-128 -56 -204 -56c-65.333 0 -128 16 -188 48s-108.5 77.833 -145.5 137.5s-55.5 127.5 -55.5 203.5z" />
    <glyph glyph-name="ellipsis" unicode="&#x2026;" horiz-adv-x="2212" 
d="M369 -31c-48 0 -90.334 8.33496 -127.001 25.002s-65.667 41.5 -87 74.5s-32 71.5 -32 115.5c0 68 23 120.833 69 158.5s105 56.5 177 56.5c47.333 0 89.5 -8.33301 126.5 -25s66 -41.334 87 -74.001s31.5 -71.334 31.5 -116.001c0 -44 -10.667 -82.5 -32 -115.5
s-50.166 -57.833 -86.499 -74.5s-78.5 -25 -126.5 -25zM1106 -30.998c-72 0 -131 19.1689 -177 57.502s-69 90.833 -69 157.5c0 68 23 120.833 69 158.5s105 56.5 177 56.5s131 -18.833 177 -56.5s69 -90.5 69 -158.5c0 -44.667 -10.833 -83.334 -32.5 -116.001
s-50.667 -57.334 -87 -74.001s-78.5 -25 -126.5 -25zM1843 -30.9961c-72 0 -131 19.1689 -177 57.502s-69 90.833 -69 157.5c0 68 23 120.833 69 158.5s105 56.5 177 56.5s131 -18.833 177 -56.5s69 -90.5 69 -158.5c0 -44.667 -10.833 -83.334 -32.5 -116.001
s-50.667 -57.334 -87 -74.001s-78.5 -25 -126.5 -25z" />
    <glyph glyph-name="perthousand" unicode="&#x2030;" horiz-adv-x="3254" 
d="M553 -119l1030 1675l76 -43l-1034 -1677zM553 1464c69.333 0 130.5 -11 183.5 -33s97.833 -51.833 134.5 -89.5s64.5 -80.334 83.5 -128.001s28.5 -97.167 28.5 -148.5c0 -50.667 -9.33301 -99.5 -28 -146.5s-46.667 -89.667 -84 -128s-82.666 -68.666 -135.999 -90.999
s-114 -33.5 -182 -33.5c-67.333 0 -127.833 11 -181.5 33s-99.334 52.667 -137.001 92s-65.667 82.166 -84 128.499s-27.5 94.833 -27.5 145.5c0 106.667 38.167 199.834 114.5 279.501s181.5 119.5 315.5 119.5zM635 817v496.001c0 31.333 -6.66699 56.166 -20 74.499
s-34 27.5 -62 27.5c-54.667 0 -82 -34 -82 -102v-496c0 -68 27.333 -102 82 -102s82 34 82 102zM1659 768.001c66.667 0 127.502 -11.333 182.502 -34s100.5 -52.5 136.5 -89.5s63.5 -79.333 82.5 -127s28.5 -97.167 28.5 -148.5c0 -66 -16.833 -130.167 -50.5 -192.5
s-82.834 -112.5 -147.501 -150.5s-142 -57 -232 -57c-67.333 0 -127.833 11 -181.5 33s-99.334 52.667 -137.001 92s-65.667 82.333 -84 129s-27.5 95.334 -27.5 146.001c0 51.333 9.33301 100.333 28 147s46.334 89.167 83.001 127.5s82.167 68.666 136.5 90.999
s115.166 33.5 182.499 33.5zM1741 121.001v495c0 68.667 -27.333 103 -82 103s-82 -34.333 -82 -103v-495c0 -68.667 27.333 -103 82 -103s82 34.333 82 103zM2701 768.001c68 0 129.167 -11.3311 183.5 -33.998s99.5 -52.5 135.5 -89.5s63.5 -79.333 82.5 -127
s28.5 -97.167 28.5 -148.5c0 -50.667 -9.33301 -99.834 -28 -147.501s-46.667 -90.5 -84 -128.5s-82.666 -68.167 -136 -90.5c-53.333 -22.333 -114 -33.5 -182 -33.5c-131.333 0 -235.833 40.333 -313.5 121s-116.5 173.667 -116.5 279c0 48.667 9.66699 97.5 29 146.5
s47.166 92.167 83.5 129.5c36.333 37.333 81.5 67.166 135.5 89.499s114.667 33.5 182 33.5zM2783 121.003v495c0 68.667 -27.333 103 -82 103s-82 -34.333 -82 -103v-495c0 -68.667 27.333 -103 82 -103s82 34.333 82 103z" />
    <glyph glyph-name="quilsinglleft" unicode="&#x2039;" 
 />
    <glyph glyph-name="quilsinglright" unicode="&#x203a;" 
 />
    <glyph glyph-name="trademark" unicode="&#x2122;" 
 />
    <glyph glyph-name="periodcentered" unicode="&#x2219;" horiz-adv-x="766" 
d="M383 518c-84 0 -146.333 21.333 -187 64s-61 92.334 -61 149.001c0 49.333 12.5 90.5 37.5 123.5s56 56.833 93 71.5s75.5 22 115.5 22c37.333 0 75.5 -7.5 114.5 -22.5s71.333 -38.833 97 -71.5s38.5 -73.667 38.5 -123c0 -56.667 -20.333 -106.334 -61 -149.001
s-103 -64 -187 -64z" />
    <glyph glyph-name=".null" 
 />
    <glyph glyph-name="nonmarkingreturn" 
 />
  </font>
</defs>
</svg>
