<svg width="48.000000" height="49.000000" viewBox="0 0 48 49" fill="none" xmlns="http://www.w3.org/2000/svg" xmlns:xlink="http://www.w3.org/1999/xlink">
	<desc>
			Created with Pixso.
	</desc>
	<g id="Discord_white">
		<g id="Vector">
			<path d="M0 24.5C0 10.969 10.7452 0 24 0C37.2548 0 48 10.969 48 24.5C48 38.031 37.2548 49 24 49C10.7452 49 0 38.031 0 24.5ZM33.8949 10.6166L14.9051 10.6166C13.3038 10.6166 12 11.9315 12 13.5607L12 32.8831C12 34.5123 13.3038 35.8271 14.9051 35.8271L30.9755 35.8271L30.2245 33.1832L32.0384 34.8839L33.7531 36.4846L36.8 39.2L36.8 13.5607C36.8 11.9315 35.4962 10.6166 33.8949 10.6166ZM27.4894 28.124C27.9145 28.6671 28.4247 29.2816 28.4247 29.2816C31.5566 29.1815 32.7611 27.1093 32.7611 27.1093C32.7611 22.5073 30.7205 18.7772 30.7205 18.7772C28.6798 17.2337 26.7383 17.2766 26.7383 17.2766L26.5399 17.5052C28.949 18.2484 30.0686 19.3203 30.0686 19.3203C28.5947 18.5057 27.1493 18.1055 25.803 17.9483C24.7826 17.834 23.8048 17.8625 22.9403 17.9769C22.8553 17.9769 22.7845 17.9911 22.6994 18.0054C22.2034 18.0483 20.9989 18.2341 19.4825 18.9058C18.9582 19.1488 18.6464 19.3203 18.6464 19.3203C18.6464 19.3203 19.8226 18.1912 22.3735 17.4481L22.2318 17.2766C22.2318 17.2766 20.2903 17.2337 18.2496 18.7772C18.2496 18.7772 16.2089 22.5073 16.2089 27.1093C16.2089 27.1093 17.3993 29.1815 20.5312 29.2816C20.5312 29.2816 21.0555 28.6384 21.4807 28.0954C19.6809 27.5523 19.0007 26.4089 19.0007 26.4089C19.0007 26.4089 19.1424 26.509 19.3975 26.6519C19.4117 26.6662 19.4258 26.6805 19.4542 26.6948C19.4967 26.7234 19.5392 26.7377 19.5817 26.7662C19.936 26.9663 20.2903 27.1235 20.6162 27.2522C21.1973 27.4808 21.8917 27.7095 22.6994 27.8667C23.7623 28.0668 25.0094 28.1382 26.3698 27.881C27.0359 27.7667 27.7161 27.5666 28.4247 27.2665C28.9207 27.0807 29.4734 26.8091 30.0544 26.4232C30.0544 26.4232 29.3458 27.5952 27.4894 28.124ZM20.8 24.5C20.8 23.6024 21.4327 22.8666 22.2341 22.8666C23.0355 22.8666 23.6823 23.6024 23.6682 24.5C23.6682 25.3976 23.0355 26.1333 22.2341 26.1333C21.4467 26.1333 20.8 25.3976 20.8 24.5ZM25.9318 24.5C25.9318 23.6024 26.5645 22.8666 27.3659 22.8666C28.1673 22.8666 28.8 23.6024 28.8 24.5C28.8 25.3976 28.1673 26.1333 27.3659 26.1333C26.5786 26.1333 25.9318 25.3976 25.9318 24.5Z" fill-rule="evenodd" fill="#FFFFFF"/>
		</g>
	</g>
	<defs/>
</svg>
