<svg width="48.000000" height="48.000000" viewBox="0 0 48 48" fill="none" xmlns="http://www.w3.org/2000/svg" xmlns:xlink="http://www.w3.org/1999/xlink">
	<desc>
			Created with Pixso.
	</desc>
	<g id="Github">
		<g id="Github">
			<g id="Fill-4">
				<path d="M24.0002 0C10.747 0 0 11.017 0 24.6076C0 35.4799 6.8768 44.7039 16.4128 47.9577C17.6122 48.1855 18.0526 47.4239 18.0526 46.7739C18.0526 46.1871 18.0304 44.2487 18.02 42.1925C11.3431 43.6811 9.93423 39.2891 9.93423 39.2891C8.8425 36.4448 7.26944 35.6885 7.26944 35.6885C5.09192 34.1613 7.43359 34.1926 7.43359 34.1926C9.84363 34.3662 11.1126 36.7285 11.1126 36.7285C13.2532 40.4904 16.7272 39.4028 18.0967 38.774C18.3121 37.1836 18.9341 36.0981 19.6205 35.4836C14.2897 34.8613 8.68591 32.7513 8.68591 23.3224C8.68591 20.6358 9.62344 18.4406 11.1587 16.7173C10.9095 16.0975 10.088 13.5947 11.3912 10.2052C11.3912 10.2052 13.4066 9.54388 17.993 12.7276C19.9074 12.1824 21.9606 11.9089 24.0002 11.8996C26.0398 11.9089 28.0945 12.1824 30.0126 12.7276C34.5934 9.54388 36.606 10.2052 36.606 10.2052C37.9124 13.5947 37.0905 16.0975 36.8413 16.7173C38.3801 18.4406 39.3113 20.6358 39.3113 23.3224C39.3113 32.7737 33.6968 34.8548 28.3525 35.464C29.2133 36.2277 29.9804 37.7252 29.9804 40.021C29.9804 43.3135 29.9525 45.9634 29.9525 46.7739C29.9525 47.4288 30.3846 48.1961 31.6011 47.9545C41.132 44.697 48 35.4763 48 24.6076C48 11.017 37.2546 0 24.0002 0Z" fill-rule="evenodd" fill="#FFFFFF"/>
			</g>
			<g id="Fill-5">
				<path d="M9.16089 35.1624C9.10812 35.2834 8.92087 35.3197 8.75031 35.2366C8.57654 35.1571 8.47897 34.9921 8.53528 34.8707C8.58685 34.746 8.77451 34.7112 8.94785 34.7948C9.12201 34.8743 9.22119 35.0409 9.16089 35.1624Z" fill-rule="evenodd" fill="#161514"/>
			</g>
			<g id="Fill-6">
				<path d="M10.1312 36.2629C10.0169 36.3707 9.79358 36.3206 9.64206 36.1504C9.48535 35.9805 9.45599 35.7534 9.57184 35.644C9.68964 35.5363 9.90625 35.5867 10.0633 35.7566C10.22 35.9285 10.2506 36.154 10.1312 36.2629Z" fill-rule="evenodd" fill="#161514"/>
			</g>
			<g id="Fill-7">
				<path d="M11.0757 37.6661C10.9289 37.7698 10.6889 37.6726 10.5406 37.4559C10.3938 37.2393 10.3938 36.9794 10.5437 36.8753C10.6925 36.7712 10.9289 36.8648 11.0793 37.0799C11.2256 37.3002 11.2256 37.56 11.0757 37.6661Z" fill-rule="evenodd" fill="#161514"/>
			</g>
			<g id="Fill-8">
				<path d="M12.3697 39.022C12.2384 39.1693 11.9587 39.1298 11.7541 38.9288C11.5446 38.7324 11.4863 38.4536 11.618 38.3063C11.7509 38.1586 12.0321 38.2002 12.2384 38.3995C12.4463 38.5956 12.5098 38.8764 12.3697 39.022Z" fill-rule="evenodd" fill="#161514"/>
			</g>
			<g id="Fill-9">
				<path d="M14.1548 39.8092C14.0969 40.0001 13.8275 40.0868 13.5562 40.0057C13.2853 39.9222 13.1079 39.6987 13.1627 39.5058C13.219 39.3137 13.4896 39.2234 13.7629 39.3101C14.0334 39.3932 14.2112 39.6151 14.1548 39.8092Z" fill-rule="evenodd" fill="#161514"/>
			</g>
			<g id="Fill-10">
				<path d="M16.1153 39.9551C16.1221 40.1561 15.892 40.3227 15.6072 40.3264C15.3207 40.3328 15.0891 40.1702 15.0859 39.9725C15.0859 39.7695 15.3108 39.6046 15.5973 39.5997C15.8821 39.5941 16.1153 39.7554 16.1153 39.9551Z" fill-rule="evenodd" fill="#161514"/>
			</g>
			<g id="Fill-11">
				<path d="M17.9397 39.6391C17.9738 39.8352 17.7759 40.0366 17.493 40.0902C17.2149 40.1418 16.9575 40.0208 16.9222 39.8264C16.8877 39.6254 17.0892 39.4241 17.3669 39.372C17.6501 39.322 17.9036 39.4398 17.9397 39.6391Z" fill-rule="evenodd" fill="#161514"/>
			</g>
		</g>
	</g>
	<defs/>
</svg>
