<svg width="48.000000" height="49.000000" viewBox="0 0 48 49" fill="none" xmlns="http://www.w3.org/2000/svg" xmlns:xlink="http://www.w3.org/1999/xlink">
	<desc>
			Created with Pixso.
	</desc>
	<g id="Telegram_white">
		<g id="Shape">
			<path d="M48 24.5C48 38.0309 37.2548 49 24 49C10.7452 49 0 38.0309 0 24.5C0 10.9691 10.7452 0 24 0C37.2548 0 48 10.9691 48 24.5L48 24.5M16.0715 22.2557C13.6673 23.3273 11.1971 24.4283 8.93826 25.6985C7.75876 26.5801 9.32639 27.2037 10.7971 27.7886C11.0309 27.8816 11.2622 27.9736 11.4797 28.0655C11.6607 28.1223 11.8447 28.1821 12.0312 28.2428C13.6669 28.7747 15.4907 29.3679 17.0787 28.4756C19.6873 26.9459 22.149 25.1774 24.6089 23.4103C25.4148 22.8312 26.2205 22.2524 27.0311 21.6822C27.0691 21.6574 27.1119 21.629 27.1588 21.5981C27.8493 21.1411 29.4024 20.1134 28.8279 21.5295C27.4695 23.046 26.0144 24.3884 24.5515 25.7383C23.5655 26.6479 22.5759 27.561 21.6099 28.5328C20.7686 29.2307 19.8949 30.634 20.837 31.6112C23.0069 33.1619 25.2107 34.6749 27.4132 36.1872C28.1299 36.6793 28.8466 37.1713 29.5618 37.6646C30.774 38.6525 32.6685 37.8533 32.935 36.3095C33.0535 35.5993 33.1725 34.8892 33.2915 34.179C33.9491 30.2542 34.6069 26.328 35.188 22.3904C35.267 21.7728 35.3565 21.1552 35.4461 20.5372C35.6632 19.0396 35.8806 17.54 35.9485 16.0343C35.7735 14.5317 33.9887 14.8621 32.9955 15.2C27.8903 17.1831 22.8361 19.3132 17.8019 21.4808C17.2316 21.7386 16.6535 21.9963 16.0715 22.2557L16.0715 22.2557Z" fill-rule="evenodd" fill="#FFFFFF"/>
		</g>
	</g>
	<defs/>
</svg>
