<svg width="48.000000" height="49.000000" viewBox="0 0 48 49" fill="none" xmlns="http://www.w3.org/2000/svg" xmlns:xlink="http://www.w3.org/1999/xlink">
	<desc>
			Created with Pixso.
	</desc>
	<g id="VK_white">
		<g id="Combined-Shape">
			<path d="M24 0C10.7452 0 0 10.969 0 24.5C0 38.031 10.7452 49 24 49C37.2548 49 48 38.031 48 24.5C48 10.969 37.2548 0 24 0L24 0M25.9541 32.2341C25.7175 32.4888 25.2555 32.5402 25.2555 32.5402L23.7254 32.5402C23.7254 32.5402 20.3497 32.7435 17.376 29.642C14.1331 26.2581 11.2695 19.5444 11.2695 19.5444C11.2695 19.5444 11.1043 19.1041 11.2833 18.892C11.4849 18.6524 12.0346 18.6373 12.0346 18.6373L15.6919 18.6135C15.6919 18.6135 16.0363 18.67 16.2829 18.8519C16.487 19.0024 16.601 19.2822 16.601 19.2822C16.601 19.2822 17.192 20.7803 17.9745 22.1353C19.5033 24.7814 20.2145 25.3598 20.7329 25.0762C21.4892 24.6635 21.2625 21.3361 21.2625 21.3361C21.2625 21.3361 21.2763 20.1292 20.8819 19.5909C20.5764 19.1743 20.0004 19.0526 19.7462 19.0187C19.5396 18.9911 19.8777 18.5119 20.3159 18.2973C20.9745 17.9749 22.1365 17.9561 23.51 17.9698C24.5806 17.9811 24.8886 18.0477 25.3068 18.1493C26.2774 18.384 26.2471 19.1361 26.1817 20.7594C26.1621 21.2449 26.1395 21.8083 26.1395 22.459C26.1395 22.6053 26.1352 22.7612 26.1308 22.9215C26.1081 23.7532 26.0821 24.7055 26.629 25.0599C26.9095 25.2406 27.5944 25.0863 29.3085 22.1705C30.1211 20.7878 30.7296 19.163 30.7296 19.163C30.7296 19.163 30.8636 18.8732 31.0702 18.749C31.2818 18.6223 31.5673 18.6612 31.5673 18.6612L35.4162 18.6373C35.4162 18.6373 36.5732 18.498 36.7597 19.0225C36.9563 19.5708 36.3278 20.8531 34.7551 22.9534C33.2617 24.9484 32.5358 25.6816 32.6042 26.331C32.6541 26.8043 33.126 27.2332 34.0302 28.0736C36.0773 29.9782 36.5018 30.9054 36.5719 31.0208C37.4196 32.4298 35.6316 32.5402 35.6316 32.5402L32.2121 32.5879C32.2121 32.5879 31.4784 32.7335 30.5118 32.0685C30.0054 31.7205 29.5106 31.152 29.0394 30.6106C28.3196 29.7837 27.6548 29.0199 27.0873 29.2003C26.1344 29.504 26.1632 31.5603 26.1632 31.5603C26.1632 31.5603 26.1707 32.0007 25.9541 32.2341L25.9541 32.2341Z" clip-rule="evenodd" fill-rule="evenodd" fill="#FFFFFF" fill-opacity="1.000000"/>
		</g>
	</g>
	<defs/>
</svg>
