<svg width="48.000000" height="49.000000" viewBox="0 0 48 49" fill="none" xmlns="http://www.w3.org/2000/svg" xmlns:xlink="http://www.w3.org/1999/xlink">
	<desc>
			Created with Pixso.
	</desc>
	<g id="Youtube_white">
		<g id="Combined-Shape">
			<path d="M0 24.5C0 10.969 10.7452 0 24 0C37.2548 0 48 10.969 48 24.5C48 38.031 37.2548 49 24 49C10.7452 49 0 38.031 0 24.5L0 24.5M36.265 18.4498C35.9706 17.2952 35.1031 16.386 34.0016 16.0775C32.0054 15.5167 24 15.5167 24 15.5167C24 15.5167 15.9946 15.5167 13.9983 16.0775C12.8967 16.386 12.0292 17.2952 11.7348 18.4498C11.2 20.5423 11.2 24.9083 11.2 24.9083C11.2 24.9083 11.2 29.2742 11.7348 31.3669C12.0292 32.5215 12.8967 33.4307 13.9983 33.7394C15.9946 34.3 24 34.3 24 34.3C24 34.3 32.0054 34.3 34.0016 33.7394C35.1031 33.4307 35.9706 32.5215 36.265 31.3669C36.8 29.2742 36.8 24.9083 36.8 24.9083C36.8 24.9083 36.8 20.5423 36.265 18.4498L36.265 18.4498Z" fill-rule="evenodd" fill="#FFFFFF"/>
		</g>
		<g id="Fill-2">
			<path d="M21.6001 29.4001L21.6001 21.2334L28.0001 25.3169L21.6001 29.4001Z" fill-rule="evenodd" fill="#FFFFFF"/>
		</g>
	</g>
	<defs/>
</svg>
